/* XPM */
static char *result[] = {
/* columns rows colors chars-per-pixel */
"64 64 6 1 ",
"  c #366791",
". c #529EC4",
"X c #5FCDE4",
"o c #73E9F0",
"O c #83F7EE",
"+ c None",
/* pixels */
"++++++++++++++++++++++++++++++++++++++++++++++++++++++++++++++++",
"++++++++++++++++++++++++++++++++++++++++++++++++++++++++++++++++",
"++++++++++++++++++++++++++++++++++++++++++++++++++++++++++++++++",
"++++++++++++++++++++++++++++++++++++++++++++++++++++++++++++++++",
"++++++++++++++++++++++++++++++++++++++++++++++++++++++++++++++++",
"++++++++++++++++++++++++++++++++++++++++++++++++++++++++++++++++",
"++++++++++++++++++++++++++++++++++++++++++++++++++++++++++++++++",
"++++++++++++++++++++++++++++++++++++++++++++++++++++++++++++++++",
"++++++++++++++++++++++++++++++++++++++++++++++++++++++++++++++++",
"++++++++++++++++++++++++++++++++++++++++++++++++++++++++++++++++",
"++++++++++++++++++++++++++++++++++++++++++++++++++++++++++++++++",
"++++++++++++++++++++++++++++++++++++++++++++++++++++++++++++++++",
"++++++++++++++++++++++++++++++++++++++++++++++++++++++++++++++++",
"++++++++++++++++++++++++                ++++++++++++++++++++++++",
"++++++++++++++++++++++++                ++++++++++++++++++++++++",
"++++++++++++++++++++    XXXXXXXXooXXXXXX    ++++++++++++++++++++",
"++++++++++++++++++++    XXXXXXXXooXXXXXX    ++++++++++++++++++++",
"++++++++++++++++++  ..  XXXXXXXXooooXXXX  XX  ++++++++++++++++++",
"++++++++++++++++++  ..  XXXXXXXXooooXXXX  XX  ++++++++++++++++++",
"++++++++++++++++  ......                XXXXXX  ++++++++++++++++",
"++++++++++++++++  ......                XXXXXX  ++++++++++++++++",
"++++++++++++++  ........  XXXXXXXXooOO  XXXXXXXX  ++++++++++++++",
"++++++++++++++  ........  XXXXXXXXooOO  XXXXXXXX  ++++++++++++++",
"++++++++++++  ..........  XXXXXXXXooOO  XXXXXXXXXX  ++++++++++++",
"++++++++++++  ..........  XXXXXXXXooOO  XXXXXXXXXX  ++++++++++++",
"++++++++++++  ........  XXXXXXXXXXXXooOO  XXXXXXXX  ++++++++++++",
"++++++++++++  ........  XXXXXXXXXXXXooOO  XXXXXXXX  ++++++++++++",
"++++++++++  ..........  XXXXXXXXXXXXXXoo  XXXXXXXXXX  ++++++++++",
"++++++++++  ..........  XXXXXXXXXXXXXXoo  XXXXXXXXXX  ++++++++++",
"++++++++++      ....  XXXXXXXXXXXXXXXXooOO  XXXX      ++++++++++",
"++++++++++      ....  XXXXXXXXXXXXXXXXooOO  XXXX      ++++++++++",
"++++++++++  ....      XXXXXXXXXXXXXXXXooOO      XXXX  ++++++++++",
"++++++++++  ....      XXXXXXXXXXXXXXXXooOO      XXXX  ++++++++++",
"++++++++++++  ......        XXXXXXXX        XXXXXX  ++++++++++++",
"++++++++++++  ......        XXXXXXXX        XXXXXX  ++++++++++++",
"++++++++++++++  ......  XXXX        XXoo  XXXXXX  ++++++++++++++",
"++++++++++++++  ......  XXXX        XXoo  XXXXXX  ++++++++++++++",
"++++++++++++++++  ....  XXXXXXXXXXXXXXOO  XXXX  ++++++++++++++++",
"++++++++++++++++  ....  XXXXXXXXXXXXXXOO  XXXX  ++++++++++++++++",
"++++++++++++++++++  ....  XXXXXXXXXXoo  XXXX  ++++++++++++++++++",
"++++++++++++++++++  ....  XXXXXXXXXXoo  XXXX  ++++++++++++++++++",
"++++++++++++++++++++  ..  XXXXXXXXXXOO  XX  ++++++++++++++++++++",
"++++++++++++++++++++  ..  XXXXXXXXXXOO  XX  ++++++++++++++++++++",
"++++++++++++++++++++++  ..  XXXXXXoo  XX  ++++++++++++++++++++++",
"++++++++++++++++++++++  ..  XXXXXXoo  XX  ++++++++++++++++++++++",
"++++++++++++++++++++++++  ..  XXoo  XX  ++++++++++++++++++++++++",
"++++++++++++++++++++++++  ..  XXoo  XX  ++++++++++++++++++++++++",
"++++++++++++++++++++++++++  ..    XX  ++++++++++++++++++++++++++",
"++++++++++++++++++++++++++  ..    XX  ++++++++++++++++++++++++++",
"++++++++++++++++++++++++++++        ++++++++++++++++++++++++++++",
"++++++++++++++++++++++++++++        ++++++++++++++++++++++++++++",
"++++++++++++++++++++++++++++++++++++++++++++++++++++++++++++++++",
"++++++++++++++++++++++++++++++++++++++++++++++++++++++++++++++++",
"++++++++++++++++++++++++++++++++++++++++++++++++++++++++++++++++",
"++++++++++++++++++++++++++++++++++++++++++++++++++++++++++++++++",
"++++++++++++++++++++++++++++++++++++++++++++++++++++++++++++++++",
"++++++++++++++++++++++++++++++++++++++++++++++++++++++++++++++++",
"++++++++++++++++++++++++++++++++++++++++++++++++++++++++++++++++",
"++++++++++++++++++++++++++++++++++++++++++++++++++++++++++++++++",
"++++++++++++++++++++++++++++++++++++++++++++++++++++++++++++++++",
"++++++++++++++++++++++++++++++++++++++++++++++++++++++++++++++++",
"++++++++++++++++++++++++++++++++++++++++++++++++++++++++++++++++",
"++++++++++++++++++++++++++++++++++++++++++++++++++++++++++++++++",
"++++++++++++++++++++++++++++++++++++++++++++++++++++++++++++++++"
};
