/* XPM */
static char *result[] = {
/* columns rows colors chars-per-pixel */
"64 64 6 1 ",
"  c #366791",
". c #529EC4",
"X c #5FCDE4",
"o c #73E9F0",
"O c #83F7EE",
"+ c None",
/* pixels */
"++++++++++++++++++++++++++++++++++++++++++++++++++++++++++++++++",
"++++++++++++++++++++++++++++++++++++++++++++++++++++++++++++++++",
"++++++++++++++++++++++++++++++++++++++++++++++++++++++++++++++++",
"++++++++++++++++++++++++++++++++++++++++++++++++++++++++++++++++",
"++++++++++++++++++++++++++++++++++++++++++++++++++++++++++++++++",
"++++++++++++++++++++++++++++++++++++++++++++++++++++++++++++++++",
"++++++++++++++++++++++++++++++++++++++++++++++++++++++++++++++++",
"++++++++++++++++++++++++++++++++++++++++++++++++++++++++++++++++",
"++++++++++++++++++++++++++++++++++++++++++++++++++++++++++++++++",
"++++++++++++++++++++++++++++++++++++++++++++++++++++++++++++++++",
"++++++++++++++++++++++++++++++++++++++++++++++++++++++++++++++++",
"++++++++++++++++++++++++++++++++++++++++++++++++++++++++++++++++",
"++++++++++++++++++++++++++++++++++++++++++++++++++++++++++++++++",
"++++++++++++++++++++++++                ++++++++++++++++++++++++",
"++++++++++++++++++++++++                ++++++++++++++++++++++++",
"++++++++++++++++++++    XXXXXXXXXXXXXXoo    ++++++++++++++++++++",
"++++++++++++++++++++    XXXXXXXXXXXXXXoo    ++++++++++++++++++++",
"++++++++++++++++++  ..  XXXXXXXXXXXXXXXX  OO  ++++++++++++++++++",
"++++++++++++++++++  ..  XXXXXXXXXXXXXXXX  OO  ++++++++++++++++++",
"++++++++++++++++  ......                XXooOO  ++++++++++++++++",
"++++++++++++++++  ......                XXooOO  ++++++++++++++++",
"++++++++++++++  ........  XXXXXXXXXXXX  XXXXooOO  ++++++++++++++",
"++++++++++++++  ........  XXXXXXXXXXXX  XXXXooOO  ++++++++++++++",
"++++++++++++  ..........  XXXXXXXXXXXX  XXXXXXOOoo  ++++++++++++",
"++++++++++++  ..........  XXXXXXXXXXXX  XXXXXXOOoo  ++++++++++++",
"++++++++++++  ........  XXXXXXXXXXXXXXXX  XXXXXXoo  ++++++++++++",
"++++++++++++  ........  XXXXXXXXXXXXXXXX  XXXXXXoo  ++++++++++++",
"++++++++++  ..........  XXXXXXXXXXXXXXXX  XXXXXXooOO  ++++++++++",
"++++++++++  ..........  XXXXXXXXXXXXXXXX  XXXXXXooOO  ++++++++++",
"++++++++++      ....  XXXXXXXXXXXXXXXXXXXX  XXXX      ++++++++++",
"++++++++++      ....  XXXXXXXXXXXXXXXXXXXX  XXXX      ++++++++++",
"++++++++++  ....      XXXXXXXXXXXXXXXXXXXX      XXoo  ++++++++++",
"++++++++++  ....      XXXXXXXXXXXXXXXXXXXX      XXoo  ++++++++++",
"++++++++++++  ......        XXXXXXXX        XXXXOO  ++++++++++++",
"++++++++++++  ......        XXXXXXXX        XXXXOO  ++++++++++++",
"++++++++++++++  ......  XXXX        XXXX  XXXXoo  ++++++++++++++",
"++++++++++++++  ......  XXXX        XXXX  XXXXoo  ++++++++++++++",
"++++++++++++++++  ....  XXXXXXXXXXXXXXXX  XXOO  ++++++++++++++++",
"++++++++++++++++  ....  XXXXXXXXXXXXXXXX  XXOO  ++++++++++++++++",
"++++++++++++++++++  ....  XXXXXXXXXXXX  XXoo  ++++++++++++++++++",
"++++++++++++++++++  ....  XXXXXXXXXXXX  XXoo  ++++++++++++++++++",
"++++++++++++++++++++  ..  XXXXXXXXXXXX  OO  ++++++++++++++++++++",
"++++++++++++++++++++  ..  XXXXXXXXXXXX  OO  ++++++++++++++++++++",
"++++++++++++++++++++++  ..  XXXXXXXX  XX  ++++++++++++++++++++++",
"++++++++++++++++++++++  ..  XXXXXXXX  XX  ++++++++++++++++++++++",
"++++++++++++++++++++++++  ..  XXXX  OO  ++++++++++++++++++++++++",
"++++++++++++++++++++++++  ..  XXXX  OO  ++++++++++++++++++++++++",
"++++++++++++++++++++++++++  ..    XX  ++++++++++++++++++++++++++",
"++++++++++++++++++++++++++  ..    XX  ++++++++++++++++++++++++++",
"++++++++++++++++++++++++++++        ++++++++++++++++++++++++++++",
"++++++++++++++++++++++++++++        ++++++++++++++++++++++++++++",
"++++++++++++++++++++++++++++++++++++++++++++++++++++++++++++++++",
"++++++++++++++++++++++++++++++++++++++++++++++++++++++++++++++++",
"++++++++++++++++++++++++++++++++++++++++++++++++++++++++++++++++",
"++++++++++++++++++++++++++++++++++++++++++++++++++++++++++++++++",
"++++++++++++++++++++++++++++++++++++++++++++++++++++++++++++++++",
"++++++++++++++++++++++++++++++++++++++++++++++++++++++++++++++++",
"++++++++++++++++++++++++++++++++++++++++++++++++++++++++++++++++",
"++++++++++++++++++++++++++++++++++++++++++++++++++++++++++++++++",
"++++++++++++++++++++++++++++++++++++++++++++++++++++++++++++++++",
"++++++++++++++++++++++++++++++++++++++++++++++++++++++++++++++++",
"++++++++++++++++++++++++++++++++++++++++++++++++++++++++++++++++",
"++++++++++++++++++++++++++++++++++++++++++++++++++++++++++++++++",
"++++++++++++++++++++++++++++++++++++++++++++++++++++++++++++++++"
};
