/* XPM */
static char *result[] = {
/* columns rows colors chars-per-pixel */
"64 64 6 1 ",
"  c #366791",
". c #529EC4",
"X c #5FCDE4",
"o c #73E9F0",
"O c #83F7EE",
"+ c None",
/* pixels */
"++++++++++++++++++++++++++++++++++++++++++++++++++++++++++++++++",
"++++++++++++++++++++++++++++++++++++++++++++++++++++++++++++++++",
"++++++++++++++++++++++++++++++++++++++++++++++++++++++++++++++++",
"++++++++++++++++++++++++++++++++++++++++++++++++++++++++++++++++",
"++++++++++++++++++++++++++++++++++++++++++++++++++++++++++++++++",
"++++++++++++++++++++++++++++++++++++++++++++++++++++++++++++++++",
"++++++++++++++++++++++++++++++++++++++++++++++++++++++++++++++++",
"++++++++++++++++++++++++++++++++++++++++++++++++++++++++++++++++",
"++++++++++++++++++++++++++++++++++++++++++++++++++++++++++++++++",
"++++++++++++++++++++++++++++++++++++++++++++++++++++++++++++++++",
"++++++++++++++++++++++++++++++++++++++++++++++++++++++++++++++++",
"++++++++++++++++++++++++++++++++++++++++++++++++++++++++++++++++",
"++++++++++++++++++++++++++++++++++++++++++++++++++++++++++++++++",
"++++++++++++++++++++++++                ++++++++++++++++++++++++",
"++++++++++++++++++++++++                ++++++++++++++++++++++++",
"++++++++++++++++++++    XXXXXXooooXXXXXX    ++++++++++++++++++++",
"++++++++++++++++++++    XXXXXXooooXXXXXX    ++++++++++++++++++++",
"++++++++++++++++++  ..  XXXXXXXXOOXXXXXX  XX  ++++++++++++++++++",
"++++++++++++++++++  ..  XXXXXXXXOOXXXXXX  XX  ++++++++++++++++++",
"++++++++++++++++  ......                XXXXXX  ++++++++++++++++",
"++++++++++++++++  ......                XXXXXX  ++++++++++++++++",
"++++++++++++++  ........  XXXXXXooXXXX  XXXXXXXX  ++++++++++++++",
"++++++++++++++  ........  XXXXXXooXXXX  XXXXXXXX  ++++++++++++++",
"++++++++++++  ..........  XXXXXXooOOXX  XXXXXXXXXX  ++++++++++++",
"++++++++++++  ..........  XXXXXXooOOXX  XXXXXXXXXX  ++++++++++++",
"++++++++++++  ........  XXXXXXooooXXXXXX  XXXXXXXX  ++++++++++++",
"++++++++++++  ........  XXXXXXooooXXXXXX  XXXXXXXX  ++++++++++++",
"++++++++++  ..........  XXXXXXXXooOOXXXX  XXXXXXXXXX  ++++++++++",
"++++++++++  ..........  XXXXXXXXooOOXXXX  XXXXXXXXXX  ++++++++++",
"++++++++++      ....  XXXXXXXXooOOooXXXXXX  XXXX      ++++++++++",
"++++++++++      ....  XXXXXXXXooOOooXXXXXX  XXXX      ++++++++++",
"++++++++++  ....      XXXXXXXXooOOooXXXXXX      XXXX  ++++++++++",
"++++++++++  ....      XXXXXXXXooOOooXXXXXX      XXXX  ++++++++++",
"++++++++++++  ......        XXXXooOO        XXXXXX  ++++++++++++",
"++++++++++++  ......        XXXXooOO        XXXXXX  ++++++++++++",
"++++++++++++++  ......  XXXX        XXXX  XXXXXX  ++++++++++++++",
"++++++++++++++  ......  XXXX        XXXX  XXXXXX  ++++++++++++++",
"++++++++++++++++  ....  XXXXXXooOOXXXXXX  XXXX  ++++++++++++++++",
"++++++++++++++++  ....  XXXXXXooOOXXXXXX  XXXX  ++++++++++++++++",
"++++++++++++++++++  ....  XXXXooooOOXX  XXXX  ++++++++++++++++++",
"++++++++++++++++++  ....  XXXXooooOOXX  XXXX  ++++++++++++++++++",
"++++++++++++++++++++  ..  XXXXXXooooXX  XX  ++++++++++++++++++++",
"++++++++++++++++++++  ..  XXXXXXooooXX  XX  ++++++++++++++++++++",
"++++++++++++++++++++++  ..  XXXXooXX  XX  ++++++++++++++++++++++",
"++++++++++++++++++++++  ..  XXXXooXX  XX  ++++++++++++++++++++++",
"++++++++++++++++++++++++  ..  XXoo  XX  ++++++++++++++++++++++++",
"++++++++++++++++++++++++  ..  XXoo  XX  ++++++++++++++++++++++++",
"++++++++++++++++++++++++++  ..    XX  ++++++++++++++++++++++++++",
"++++++++++++++++++++++++++  ..    XX  ++++++++++++++++++++++++++",
"++++++++++++++++++++++++++++        ++++++++++++++++++++++++++++",
"++++++++++++++++++++++++++++        ++++++++++++++++++++++++++++",
"++++++++++++++++++++++++++++++++++++++++++++++++++++++++++++++++",
"++++++++++++++++++++++++++++++++++++++++++++++++++++++++++++++++",
"++++++++++++++++++++++++++++++++++++++++++++++++++++++++++++++++",
"++++++++++++++++++++++++++++++++++++++++++++++++++++++++++++++++",
"++++++++++++++++++++++++++++++++++++++++++++++++++++++++++++++++",
"++++++++++++++++++++++++++++++++++++++++++++++++++++++++++++++++",
"++++++++++++++++++++++++++++++++++++++++++++++++++++++++++++++++",
"++++++++++++++++++++++++++++++++++++++++++++++++++++++++++++++++",
"++++++++++++++++++++++++++++++++++++++++++++++++++++++++++++++++",
"++++++++++++++++++++++++++++++++++++++++++++++++++++++++++++++++",
"++++++++++++++++++++++++++++++++++++++++++++++++++++++++++++++++",
"++++++++++++++++++++++++++++++++++++++++++++++++++++++++++++++++",
"++++++++++++++++++++++++++++++++++++++++++++++++++++++++++++++++"
};
