/* XPM */
static char *result[] = {
/* columns rows colors chars-per-pixel */
"64 64 4 1 ",
"  c #366791",
". c #529EC4",
"X c #5FCDE4",
"o c None",
/* pixels */
"oooooooooooooooooooooooooooooooooooooooooooooooooooooooooooooooo",
"oooooooooooooooooooooooooooooooooooooooooooooooooooooooooooooooo",
"oooooooooooooooooooooooooooooooooooooooooooooooooooooooooooooooo",
"oooooooooooooooooooooooooooooooooooooooooooooooooooooooooooooooo",
"oooooooooooooooooooooooooooooooooooooooooooooooooooooooooooooooo",
"oooooooooooooooooooooooooooooooooooooooooooooooooooooooooooooooo",
"oooooooooooooooooooooooooooooooooooooooooooooooooooooooooooooooo",
"oooooooooooooooooooooooooooooooooooooooooooooooooooooooooooooooo",
"oooooooooooooooooooooooooooooooooooooooooooooooooooooooooooooooo",
"oooooooooooooooooooooooooooooooooooooooooooooooooooooooooooooooo",
"oooooooooooooooooooooooooooooooooooooooooooooooooooooooooooooooo",
"oooooooooooooooooooooooooooooooooooooooooooooooooooooooooooooooo",
"oooooooooooooooooooooooooooooooooooooooooooooooooooooooooooooooo",
"oooooooooooooooooooooooo                oooooooooooooooooooooooo",
"oooooooooooooooooooooooo                oooooooooooooooooooooooo",
"oooooooooooooooooooo    XXXXXXXXXXXXXXXX    oooooooooooooooooooo",
"oooooooooooooooooooo    XXXXXXXXXXXXXXXX    oooooooooooooooooooo",
"oooooooooooooooooo  ..  XXXXXXXXXXXXXXXX  XX  oooooooooooooooooo",
"oooooooooooooooooo  ..  XXXXXXXXXXXXXXXX  XX  oooooooooooooooooo",
"oooooooooooooooo  ......                XXXXXX  oooooooooooooooo",
"oooooooooooooooo  ......                XXXXXX  oooooooooooooooo",
"oooooooooooooo  ........  XXXXXXXXXXXX  XXXXXXXX  oooooooooooooo",
"oooooooooooooo  ........  XXXXXXXXXXXX  XXXXXXXX  oooooooooooooo",
"oooooooooooo  ..........  XXXXXXXXXXXX  XXXXXXXXXX  oooooooooooo",
"oooooooooooo  ..........  XXXXXXXXXXXX  XXXXXXXXXX  oooooooooooo",
"oooooooooooo  ........  XXXXXXXXXXXXXXXX  XXXXXXXX  oooooooooooo",
"oooooooooooo  ........  XXXXXXXXXXXXXXXX  XXXXXXXX  oooooooooooo",
"oooooooooo  ..........  XXXXXXXXXXXXXXXX  XXXXXXXXXX  oooooooooo",
"oooooooooo  ..........  XXXXXXXXXXXXXXXX  XXXXXXXXXX  oooooooooo",
"oooooooooo      ....  XXXXXXXXXXXXXXXXXXXX  XXXX      oooooooooo",
"oooooooooo      ....  XXXXXXXXXXXXXXXXXXXX  XXXX      oooooooooo",
"oooooooooo  ....      XXXXXXXXXXXXXXXXXXXX      XXXX  oooooooooo",
"oooooooooo  ....      XXXXXXXXXXXXXXXXXXXX      XXXX  oooooooooo",
"oooooooooooo  ......        XXXXXXXX        XXXXXX  oooooooooooo",
"oooooooooooo  ......        XXXXXXXX        XXXXXX  oooooooooooo",
"oooooooooooooo  ......  XXXX        XXXX  XXXXXX  oooooooooooooo",
"oooooooooooooo  ......  XXXX        XXXX  XXXXXX  oooooooooooooo",
"oooooooooooooooo  ....  XXXXXXXXXXXXXXXX  XXXX  oooooooooooooooo",
"oooooooooooooooo  ....  XXXXXXXXXXXXXXXX  XXXX  oooooooooooooooo",
"oooooooooooooooooo  ....  XXXXXXXXXXXX  XXXX  oooooooooooooooooo",
"oooooooooooooooooo  ....  XXXXXXXXXXXX  XXXX  oooooooooooooooooo",
"oooooooooooooooooooo  ..  XXXXXXXXXXXX  XX  oooooooooooooooooooo",
"oooooooooooooooooooo  ..  XXXXXXXXXXXX  XX  oooooooooooooooooooo",
"oooooooooooooooooooooo  ..  XXXXXXXX  XX  oooooooooooooooooooooo",
"oooooooooooooooooooooo  ..  XXXXXXXX  XX  oooooooooooooooooooooo",
"oooooooooooooooooooooooo  ..  XXXX  XX  oooooooooooooooooooooooo",
"oooooooooooooooooooooooo  ..  XXXX  XX  oooooooooooooooooooooooo",
"oooooooooooooooooooooooooo  ..    XX  oooooooooooooooooooooooooo",
"oooooooooooooooooooooooooo  ..    XX  oooooooooooooooooooooooooo",
"oooooooooooooooooooooooooooo        oooooooooooooooooooooooooooo",
"oooooooooooooooooooooooooooo        oooooooooooooooooooooooooooo",
"oooooooooooooooooooooooooooooooooooooooooooooooooooooooooooooooo",
"oooooooooooooooooooooooooooooooooooooooooooooooooooooooooooooooo",
"oooooooooooooooooooooooooooooooooooooooooooooooooooooooooooooooo",
"oooooooooooooooooooooooooooooooooooooooooooooooooooooooooooooooo",
"oooooooooooooooooooooooooooooooooooooooooooooooooooooooooooooooo",
"oooooooooooooooooooooooooooooooooooooooooooooooooooooooooooooooo",
"oooooooooooooooooooooooooooooooooooooooooooooooooooooooooooooooo",
"oooooooooooooooooooooooooooooooooooooooooooooooooooooooooooooooo",
"oooooooooooooooooooooooooooooooooooooooooooooooooooooooooooooooo",
"oooooooooooooooooooooooooooooooooooooooooooooooooooooooooooooooo",
"oooooooooooooooooooooooooooooooooooooooooooooooooooooooooooooooo",
"oooooooooooooooooooooooooooooooooooooooooooooooooooooooooooooooo",
"oooooooooooooooooooooooooooooooooooooooooooooooooooooooooooooooo"
};
