/* XPM */
static char *result[] = {
/* columns rows colors chars-per-pixel */
"64 64 5 1 ",
"  c #366791",
". c #529EC4",
"X c #5FCDE4",
"o c #73E9F0",
"O c None",
/* pixels */
"OOOOOOOOOOOOOOOOOOOOOOOOOOOOOOOOOOOOOOOOOOOOOOOOOOOOOOOOOOOOOOOO",
"OOOOOOOOOOOOOOOOOOOOOOOOOOOOOOOOOOOOOOOOOOOOOOOOOOOOOOOOOOOOOOOO",
"OOOOOOOOOOOOOOOOOOOOOOOOOOOOOOOOOOOOOOOOOOOOOOOOOOOOOOOOOOOOOOOO",
"OOOOOOOOOOOOOOOOOOOOOOOOOOOOOOOOOOOOOOOOOOOOOOOOOOOOOOOOOOOOOOOO",
"OOOOOOOOOOOOOOOOOOOOOOOOOOOOOOOOOOOOOOOOOOOOOOOOOOOOOOOOOOOOOOOO",
"OOOOOOOOOOOOOOOOOOOOOOOOOOOOOOOOOOOOOOOOOOOOOOOOOOOOOOOOOOOOOOOO",
"OOOOOOOOOOOOOOOOOOOOOOOOOOOOOOOOOOOOOOOOOOOOOOOOOOOOOOOOOOOOOOOO",
"OOOOOOOOOOOOOOOOOOOOOOOOOOOOOOOOOOOOOOOOOOOOOOOOOOOOOOOOOOOOOOOO",
"OOOOOOOOOOOOOOOOOOOOOOOOOOOOOOOOOOOOOOOOOOOOOOOOOOOOOOOOOOOOOOOO",
"OOOOOOOOOOOOOOOOOOOOOOOOOOOOOOOOOOOOOOOOOOOOOOOOOOOOOOOOOOOOOOOO",
"OOOOOOOOOOOOOOOOOOOOOOOOOOOOOOOOOOOOOOOOOOOOOOOOOOOOOOOOOOOOOOOO",
"OOOOOOOOOOOOOOOOOOOOOOOOOOOOOOOOOOOOOOOOOOOOOOOOOOOOOOOOOOOOOOOO",
"OOOOOOOOOOOOOOOOOOOOOOOOOOOOOOOOOOOOOOOOOOOOOOOOOOOOOOOOOOOOOOOO",
"OOOOOOOOOOOOOOOOOOOOOOOO                OOOOOOOOOOOOOOOOOOOOOOOO",
"OOOOOOOOOOOOOOOOOOOOOOOO                OOOOOOOOOOOOOOOOOOOOOOOO",
"OOOOOOOOOOOOOOOOOOOO    XXXXXXXXooXXXXXX    OOOOOOOOOOOOOOOOOOOO",
"OOOOOOOOOOOOOOOOOOOO    XXXXXXXXooXXXXXX    OOOOOOOOOOOOOOOOOOOO",
"OOOOOOOOOOOOOOOOOO  ..  XXXXXXooooXXXXXX  XX  OOOOOOOOOOOOOOOOOO",
"OOOOOOOOOOOOOOOOOO  ..  XXXXXXooooXXXXXX  XX  OOOOOOOOOOOOOOOOOO",
"OOOOOOOOOOOOOOOO  ......                XXXXXX  OOOOOOOOOOOOOOOO",
"OOOOOOOOOOOOOOOO  ......                XXXXXX  OOOOOOOOOOOOOOOO",
"OOOOOOOOOOOOOO  ........  ooooXXXXXXXX  XXXXXXXX  OOOOOOOOOOOOOO",
"OOOOOOOOOOOOOO  ........  ooooXXXXXXXX  XXXXXXXX  OOOOOOOOOOOOOO",
"OOOOOOOOOOOO  ..........  ooooXXXXXXXX  XXXXXXXXXX  OOOOOOOOOOOO",
"OOOOOOOOOOOO  ..........  ooooXXXXXXXX  XXXXXXXXXX  OOOOOOOOOOOO",
"OOOOOOOOOOOO  ........  ooooXXXXXXXXXXXX  XXXXXXXX  OOOOOOOOOOOO",
"OOOOOOOOOOOO  ........  ooooXXXXXXXXXXXX  XXXXXXXX  OOOOOOOOOOOO",
"OOOOOOOOOO  ..........  ooXXXXXXXXXXXXXX  XXXXXXXXXX  OOOOOOOOOO",
"OOOOOOOOOO  ..........  ooXXXXXXXXXXXXXX  XXXXXXXXXX  OOOOOOOOOO",
"OOOOOOOOOO      ....  ooooXXXXXXXXXXXXXXXX  XXXX      OOOOOOOOOO",
"OOOOOOOOOO      ....  ooooXXXXXXXXXXXXXXXX  XXXX      OOOOOOOOOO",
"OOOOOOOOOO  ....      ooXXXXXXXXXXXXXXXXXX      XXXX  OOOOOOOOOO",
"OOOOOOOOOO  ....      ooXXXXXXXXXXXXXXXXXX      XXXX  OOOOOOOOOO",
"OOOOOOOOOOOO  ......        XXXXXXXX        XXXXXX  OOOOOOOOOOOO",
"OOOOOOOOOOOO  ......        XXXXXXXX        XXXXXX  OOOOOOOOOOOO",
"OOOOOOOOOOOOOO  ......  ooXX        XXXX  XXXXXX  OOOOOOOOOOOOOO",
"OOOOOOOOOOOOOO  ......  ooXX        XXXX  XXXXXX  OOOOOOOOOOOOOO",
"OOOOOOOOOOOOOOOO  ....  ooXXXXXXXXXXXXXX  XXXX  OOOOOOOOOOOOOOOO",
"OOOOOOOOOOOOOOOO  ....  ooXXXXXXXXXXXXXX  XXXX  OOOOOOOOOOOOOOOO",
"OOOOOOOOOOOOOOOOOO  ....  ooXXXXXXXXXX  XXXX  OOOOOOOOOOOOOOOOOO",
"OOOOOOOOOOOOOOOOOO  ....  ooXXXXXXXXXX  XXXX  OOOOOOOOOOOOOOOOOO",
"OOOOOOOOOOOOOOOOOOOO  ..  ooXXXXXXXXXX  XX  OOOOOOOOOOOOOOOOOOOO",
"OOOOOOOOOOOOOOOOOOOO  ..  ooXXXXXXXXXX  XX  OOOOOOOOOOOOOOOOOOOO",
"OOOOOOOOOOOOOOOOOOOOOO  ..  ooXXXXXX  XX  OOOOOOOOOOOOOOOOOOOOOO",
"OOOOOOOOOOOOOOOOOOOOOO  ..  ooXXXXXX  XX  OOOOOOOOOOOOOOOOOOOOOO",
"OOOOOOOOOOOOOOOOOOOOOOOO  ..  ooXX  XX  OOOOOOOOOOOOOOOOOOOOOOOO",
"OOOOOOOOOOOOOOOOOOOOOOOO  ..  ooXX  XX  OOOOOOOOOOOOOOOOOOOOOOOO",
"OOOOOOOOOOOOOOOOOOOOOOOOOO  ..    XX  OOOOOOOOOOOOOOOOOOOOOOOOOO",
"OOOOOOOOOOOOOOOOOOOOOOOOOO  ..    XX  OOOOOOOOOOOOOOOOOOOOOOOOOO",
"OOOOOOOOOOOOOOOOOOOOOOOOOOOO        OOOOOOOOOOOOOOOOOOOOOOOOOOOO",
"OOOOOOOOOOOOOOOOOOOOOOOOOOOO        OOOOOOOOOOOOOOOOOOOOOOOOOOOO",
"OOOOOOOOOOOOOOOOOOOOOOOOOOOOOOOOOOOOOOOOOOOOOOOOOOOOOOOOOOOOOOOO",
"OOOOOOOOOOOOOOOOOOOOOOOOOOOOOOOOOOOOOOOOOOOOOOOOOOOOOOOOOOOOOOOO",
"OOOOOOOOOOOOOOOOOOOOOOOOOOOOOOOOOOOOOOOOOOOOOOOOOOOOOOOOOOOOOOOO",
"OOOOOOOOOOOOOOOOOOOOOOOOOOOOOOOOOOOOOOOOOOOOOOOOOOOOOOOOOOOOOOOO",
"OOOOOOOOOOOOOOOOOOOOOOOOOOOOOOOOOOOOOOOOOOOOOOOOOOOOOOOOOOOOOOOO",
"OOOOOOOOOOOOOOOOOOOOOOOOOOOOOOOOOOOOOOOOOOOOOOOOOOOOOOOOOOOOOOOO",
"OOOOOOOOOOOOOOOOOOOOOOOOOOOOOOOOOOOOOOOOOOOOOOOOOOOOOOOOOOOOOOOO",
"OOOOOOOOOOOOOOOOOOOOOOOOOOOOOOOOOOOOOOOOOOOOOOOOOOOOOOOOOOOOOOOO",
"OOOOOOOOOOOOOOOOOOOOOOOOOOOOOOOOOOOOOOOOOOOOOOOOOOOOOOOOOOOOOOOO",
"OOOOOOOOOOOOOOOOOOOOOOOOOOOOOOOOOOOOOOOOOOOOOOOOOOOOOOOOOOOOOOOO",
"OOOOOOOOOOOOOOOOOOOOOOOOOOOOOOOOOOOOOOOOOOOOOOOOOOOOOOOOOOOOOOOO",
"OOOOOOOOOOOOOOOOOOOOOOOOOOOOOOOOOOOOOOOOOOOOOOOOOOOOOOOOOOOOOOOO",
"OOOOOOOOOOOOOOOOOOOOOOOOOOOOOOOOOOOOOOOOOOOOOOOOOOOOOOOOOOOOOOOO"
};
