/* XPM */
static char *result[] = {
/* columns rows colors chars-per-pixel */
"64 64 6 1 ",
"  c #366791",
". c #529EC4",
"X c #5FCDE4",
"o c #73E9F0",
"O c #83F7EE",
"+ c None",
/* pixels */
"++++++++++++++++++++++++++++++++++++++++++++++++++++++++++++++++",
"++++++++++++++++++++++++++++++++++++++++++++++++++++++++++++++++",
"++++++++++++++++++++++++++++++++++++++++++++++++++++++++++++++++",
"++++++++++++++++++++++++++++++++++++++++++++++++++++++++++++++++",
"++++++++++++++++++++++++++++++++++++++++++++++++++++++++++++++++",
"++++++++++++++++++++++++++++++++++++++++++++++++++++++++++++++++",
"++++++++++++++++++++++++++++++++++++++++++++++++++++++++++++++++",
"++++++++++++++++++++++++++++++++++++++++++++++++++++++++++++++++",
"++++++++++++++++++++++++++++++++++++++++++++++++++++++++++++++++",
"++++++++++++++++++++++++++++++++++++++++++++++++++++++++++++++++",
"++++++++++++++++++++++++++++++++++++++++++++++++++++++++++++++++",
"++++++++++++++++++++++++++++++++++++++++++++++++++++++++++++++++",
"++++++++++++++++++++++++++++++++++++++++++++++++++++++++++++++++",
"++++++++++++++++++++++++                ++++++++++++++++++++++++",
"++++++++++++++++++++++++                ++++++++++++++++++++++++",
"++++++++++++++++++++    XXXXXXXXXXooXXXX    ++++++++++++++++++++",
"++++++++++++++++++++    XXXXXXXXXXooXXXX    ++++++++++++++++++++",
"++++++++++++++++++  ..  XXXXXXXXXXXXoooo  XX  ++++++++++++++++++",
"++++++++++++++++++  ..  XXXXXXXXXXXXoooo  XX  ++++++++++++++++++",
"++++++++++++++++  ......                ooXXXX  ++++++++++++++++",
"++++++++++++++++  ......                ooXXXX  ++++++++++++++++",
"++++++++++++++  ........  XXXXXXXXXXXX  OOXXXXXX  ++++++++++++++",
"++++++++++++++  ........  XXXXXXXXXXXX  OOXXXXXX  ++++++++++++++",
"++++++++++++  ..........  XXXXXXXXXXXX  OOooXXXXXX  ++++++++++++",
"++++++++++++  ..........  XXXXXXXXXXXX  OOooXXXXXX  ++++++++++++",
"++++++++++++  ........  XXXXXXXXXXXXXXXX  ooXXXXXX  ++++++++++++",
"++++++++++++  ........  XXXXXXXXXXXXXXXX  ooXXXXXX  ++++++++++++",
"++++++++++  ..........  XXXXXXXXXXXXXXXX  OOooXXXXXX  ++++++++++",
"++++++++++  ..........  XXXXXXXXXXXXXXXX  OOooXXXXXX  ++++++++++",
"++++++++++      ....  XXXXXXXXXXXXXXXXXXXX  ooXX      ++++++++++",
"++++++++++      ....  XXXXXXXXXXXXXXXXXXXX  ooXX      ++++++++++",
"++++++++++  ....      XXXXXXXXXXXXXXXXXXXX      XXXX  ++++++++++",
"++++++++++  ....      XXXXXXXXXXXXXXXXXXXX      XXXX  ++++++++++",
"++++++++++++  ......        XXXXXXXX        ooXXXX  ++++++++++++",
"++++++++++++  ......        XXXXXXXX        ooXXXX  ++++++++++++",
"++++++++++++++  ......  XXXX        XXXX  OOooXX  ++++++++++++++",
"++++++++++++++  ......  XXXX        XXXX  OOooXX  ++++++++++++++",
"++++++++++++++++  ....  XXXXXXXXXXXXXXXX  ooXX  ++++++++++++++++",
"++++++++++++++++  ....  XXXXXXXXXXXXXXXX  ooXX  ++++++++++++++++",
"++++++++++++++++++  ....  XXXXXXXXXXXX  OOXX  ++++++++++++++++++",
"++++++++++++++++++  ....  XXXXXXXXXXXX  OOXX  ++++++++++++++++++",
"++++++++++++++++++++  ..  XXXXXXXXXXXX  XX  ++++++++++++++++++++",
"++++++++++++++++++++  ..  XXXXXXXXXXXX  XX  ++++++++++++++++++++",
"++++++++++++++++++++++  ..  XXXXXXXX  oo  ++++++++++++++++++++++",
"++++++++++++++++++++++  ..  XXXXXXXX  oo  ++++++++++++++++++++++",
"++++++++++++++++++++++++  ..  XXXX  oo  ++++++++++++++++++++++++",
"++++++++++++++++++++++++  ..  XXXX  oo  ++++++++++++++++++++++++",
"++++++++++++++++++++++++++  ..    oo  ++++++++++++++++++++++++++",
"++++++++++++++++++++++++++  ..    oo  ++++++++++++++++++++++++++",
"++++++++++++++++++++++++++++        ++++++++++++++++++++++++++++",
"++++++++++++++++++++++++++++        ++++++++++++++++++++++++++++",
"++++++++++++++++++++++++++++++++++++++++++++++++++++++++++++++++",
"++++++++++++++++++++++++++++++++++++++++++++++++++++++++++++++++",
"++++++++++++++++++++++++++++++++++++++++++++++++++++++++++++++++",
"++++++++++++++++++++++++++++++++++++++++++++++++++++++++++++++++",
"++++++++++++++++++++++++++++++++++++++++++++++++++++++++++++++++",
"++++++++++++++++++++++++++++++++++++++++++++++++++++++++++++++++",
"++++++++++++++++++++++++++++++++++++++++++++++++++++++++++++++++",
"++++++++++++++++++++++++++++++++++++++++++++++++++++++++++++++++",
"++++++++++++++++++++++++++++++++++++++++++++++++++++++++++++++++",
"++++++++++++++++++++++++++++++++++++++++++++++++++++++++++++++++",
"++++++++++++++++++++++++++++++++++++++++++++++++++++++++++++++++",
"++++++++++++++++++++++++++++++++++++++++++++++++++++++++++++++++",
"++++++++++++++++++++++++++++++++++++++++++++++++++++++++++++++++"
};
