/* XPM */
static char *result[] = {
/* columns rows colors chars-per-pixel */
"64 64 5 1 ",
"  c #366791",
". c #529EC4",
"X c #5FCDE4",
"o c #73E9F0",
"O c None",
/* pixels */
"OOOOOOOOOOOOOOOOOOOOOOOOOOOOOOOOOOOOOOOOOOOOOOOOOOOOOOOOOOOOOOOO",
"OOOOOOOOOOOOOOOOOOOOOOOOOOOOOOOOOOOOOOOOOOOOOOOOOOOOOOOOOOOOOOOO",
"OOOOOOOOOOOOOOOOOOOOOOOOOOOOOOOOOOOOOOOOOOOOOOOOOOOOOOOOOOOOOOOO",
"OOOOOOOOOOOOOOOOOOOOOOOOOOOOOOOOOOOOOOOOOOOOOOOOOOOOOOOOOOOOOOOO",
"OOOOOOOOOOOOOOOOOOOOOOOOOOOOOOOOOOOOOOOOOOOOOOOOOOOOOOOOOOOOOOOO",
"OOOOOOOOOOOOOOOOOOOOOOOOOOOOOOOOOOOOOOOOOOOOOOOOOOOOOOOOOOOOOOOO",
"OOOOOOOOOOOOOOOOOOOOOOOOOOOOOOOOOOOOOOOOOOOOOOOOOOOOOOOOOOOOOOOO",
"OOOOOOOOOOOOOOOOOOOOOOOOOOOOOOOOOOOOOOOOOOOOOOOOOOOOOOOOOOOOOOOO",
"OOOOOOOOOOOOOOOOOOOOOOOOOOOOOOOOOOOOOOOOOOOOOOOOOOOOOOOOOOOOOOOO",
"OOOOOOOOOOOOOOOOOOOOOOOOOOOOOOOOOOOOOOOOOOOOOOOOOOOOOOOOOOOOOOOO",
"OOOOOOOOOOOOOOOOOOOOOOOOOOOOOOOOOOOOOOOOOOOOOOOOOOOOOOOOOOOOOOOO",
"OOOOOOOOOOOOOOOOOOOOOOOOOOOOOOOOOOOOOOOOOOOOOOOOOOOOOOOOOOOOOOOO",
"OOOOOOOOOOOOOOOOOOOOOOOOOOOOOOOOOOOOOOOOOOOOOOOOOOOOOOOOOOOOOOOO",
"OOOOOOOOOOOOOOOOOOOOOOOO                OOOOOOOOOOOOOOOOOOOOOOOO",
"OOOOOOOOOOOOOOOOOOOOOOOO                OOOOOOOOOOOOOOOOOOOOOOOO",
"OOOOOOOOOOOOOOOOOOOO    XXooXXXXXXXXXXXX    OOOOOOOOOOOOOOOOOOOO",
"OOOOOOOOOOOOOOOOOOOO    XXooXXXXXXXXXXXX    OOOOOOOOOOOOOOOOOOOO",
"OOOOOOOOOOOOOOOOOO  ..  ooooXXXXXXXXXXXX  XX  OOOOOOOOOOOOOOOOOO",
"OOOOOOOOOOOOOOOOOO  ..  ooooXXXXXXXXXXXX  XX  OOOOOOOOOOOOOOOOOO",
"OOOOOOOOOOOOOOOO  ....XX                XXXXXX  OOOOOOOOOOOOOOOO",
"OOOOOOOOOOOOOOOO  ....XX                XXXXXX  OOOOOOOOOOOOOOOO",
"OOOOOOOOOOOOOO  ....XXoo  XXXXXXXXXXXX  XXXXXXXX  OOOOOOOOOOOOOO",
"OOOOOOOOOOOOOO  ....XXoo  XXXXXXXXXXXX  XXXXXXXX  OOOOOOOOOOOOOO",
"OOOOOOOOOOOO  ......XXoo  XXXXXXXXXXXX  XXXXXXXXXX  OOOOOOOOOOOO",
"OOOOOOOOOOOO  ......XXoo  XXXXXXXXXXXX  XXXXXXXXXX  OOOOOOOOOOOO",
"OOOOOOOOOOOO  ......oo  XXXXXXXXXXXXXXXX  XXXXXXXX  OOOOOOOOOOOO",
"OOOOOOOOOOOO  ......oo  XXXXXXXXXXXXXXXX  XXXXXXXX  OOOOOOOOOOOO",
"OOOOOOOOOO  ......XXoo  XXXXXXXXXXXXXXXX  XXXXXXXXXX  OOOOOOOOOO",
"OOOOOOOOOO  ......XXoo  XXXXXXXXXXXXXXXX  XXXXXXXXXX  OOOOOOOOOO",
"OOOOOOOOOO      ..XX  XXXXXXXXXXXXXXXXXXXX  XXXX      OOOOOOOOOO",
"OOOOOOOOOO      ..XX  XXXXXXXXXXXXXXXXXXXX  XXXX      OOOOOOOOOO",
"OOOOOOOOOO  ....      XXXXXXXXXXXXXXXXXXXX      XXXX  OOOOOOOOOO",
"OOOOOOOOOO  ....      XXXXXXXXXXXXXXXXXXXX      XXXX  OOOOOOOOOO",
"OOOOOOOOOOOO  ..XXoo        XXXXXXXX        XXXXXX  OOOOOOOOOOOO",
"OOOOOOOOOOOO  ..XXoo        XXXXXXXX        XXXXXX  OOOOOOOOOOOO",
"OOOOOOOOOOOOOO  ..XXoo  XXXX        XXXX  XXXXXX  OOOOOOOOOOOOOO",
"OOOOOOOOOOOOOO  ..XXoo  XXXX        XXXX  XXXXXX  OOOOOOOOOOOOOO",
"OOOOOOOOOOOOOOOO  ..XX  XXXXXXXXXXXXXXXX  XXXX  OOOOOOOOOOOOOOOO",
"OOOOOOOOOOOOOOOO  ..XX  XXXXXXXXXXXXXXXX  XXXX  OOOOOOOOOOOOOOOO",
"OOOOOOOOOOOOOOOOOO  ..XX  XXXXXXXXXXXX  XXXX  OOOOOOOOOOOOOOOOOO",
"OOOOOOOOOOOOOOOOOO  ..XX  XXXXXXXXXXXX  XXXX  OOOOOOOOOOOOOOOOOO",
"OOOOOOOOOOOOOOOOOOOO  XX  XXXXXXXXXXXX  XX  OOOOOOOOOOOOOOOOOOOO",
"OOOOOOOOOOOOOOOOOOOO  XX  XXXXXXXXXXXX  XX  OOOOOOOOOOOOOOOOOOOO",
"OOOOOOOOOOOOOOOOOOOOOO  ..  XXXXXXXX  XX  OOOOOOOOOOOOOOOOOOOOOO",
"OOOOOOOOOOOOOOOOOOOOOO  ..  XXXXXXXX  XX  OOOOOOOOOOOOOOOOOOOOOO",
"OOOOOOOOOOOOOOOOOOOOOOOO  ..  XXXX  XX  OOOOOOOOOOOOOOOOOOOOOOOO",
"OOOOOOOOOOOOOOOOOOOOOOOO  ..  XXXX  XX  OOOOOOOOOOOOOOOOOOOOOOOO",
"OOOOOOOOOOOOOOOOOOOOOOOOOO  ..    XX  OOOOOOOOOOOOOOOOOOOOOOOOOO",
"OOOOOOOOOOOOOOOOOOOOOOOOOO  ..    XX  OOOOOOOOOOOOOOOOOOOOOOOOOO",
"OOOOOOOOOOOOOOOOOOOOOOOOOOOO        OOOOOOOOOOOOOOOOOOOOOOOOOOOO",
"OOOOOOOOOOOOOOOOOOOOOOOOOOOO        OOOOOOOOOOOOOOOOOOOOOOOOOOOO",
"OOOOOOOOOOOOOOOOOOOOOOOOOOOOOOOOOOOOOOOOOOOOOOOOOOOOOOOOOOOOOOOO",
"OOOOOOOOOOOOOOOOOOOOOOOOOOOOOOOOOOOOOOOOOOOOOOOOOOOOOOOOOOOOOOOO",
"OOOOOOOOOOOOOOOOOOOOOOOOOOOOOOOOOOOOOOOOOOOOOOOOOOOOOOOOOOOOOOOO",
"OOOOOOOOOOOOOOOOOOOOOOOOOOOOOOOOOOOOOOOOOOOOOOOOOOOOOOOOOOOOOOOO",
"OOOOOOOOOOOOOOOOOOOOOOOOOOOOOOOOOOOOOOOOOOOOOOOOOOOOOOOOOOOOOOOO",
"OOOOOOOOOOOOOOOOOOOOOOOOOOOOOOOOOOOOOOOOOOOOOOOOOOOOOOOOOOOOOOOO",
"OOOOOOOOOOOOOOOOOOOOOOOOOOOOOOOOOOOOOOOOOOOOOOOOOOOOOOOOOOOOOOOO",
"OOOOOOOOOOOOOOOOOOOOOOOOOOOOOOOOOOOOOOOOOOOOOOOOOOOOOOOOOOOOOOOO",
"OOOOOOOOOOOOOOOOOOOOOOOOOOOOOOOOOOOOOOOOOOOOOOOOOOOOOOOOOOOOOOOO",
"OOOOOOOOOOOOOOOOOOOOOOOOOOOOOOOOOOOOOOOOOOOOOOOOOOOOOOOOOOOOOOOO",
"OOOOOOOOOOOOOOOOOOOOOOOOOOOOOOOOOOOOOOOOOOOOOOOOOOOOOOOOOOOOOOOO",
"OOOOOOOOOOOOOOOOOOOOOOOOOOOOOOOOOOOOOOOOOOOOOOOOOOOOOOOOOOOOOOOO",
"OOOOOOOOOOOOOOOOOOOOOOOOOOOOOOOOOOOOOOOOOOOOOOOOOOOOOOOOOOOOOOOO"
};
