/* XPM */
static char *result[] = {
/* columns rows colors chars-per-pixel */
"64 64 5 1 ",
"  c #366791",
". c #529EC4",
"X c #5FCDE4",
"o c #73E9F0",
"O c None",
/* pixels */
"OOOOOOOOOOOOOOOOOOOOOOOOOOOOOOOOOOOOOOOOOOOOOOOOOOOOOOOOOOOOOOOO",
"OOOOOOOOOOOOOOOOOOOOOOOOOOOOOOOOOOOOOOOOOOOOOOOOOOOOOOOOOOOOOOOO",
"OOOOOOOOOOOOOOOOOOOOOOOOOOOOOOOOOOOOOOOOOOOOOOOOOOOOOOOOOOOOOOOO",
"OOOOOOOOOOOOOOOOOOOOOOOOOOOOOOOOOOOOOOOOOOOOOOOOOOOOOOOOOOOOOOOO",
"OOOOOOOOOOOOOOOOOOOOOOOOOOOOOOOOOOOOOOOOOOOOOOOOOOOOOOOOOOOOOOOO",
"OOOOOOOOOOOOOOOOOOOOOOOOOOOOOOOOOOOOOOOOOOOOOOOOOOOOOOOOOOOOOOOO",
"OOOOOOOOOOOOOOOOOOOOOOOOOOOOOOOOOOOOOOOOOOOOOOOOOOOOOOOOOOOOOOOO",
"OOOOOOOOOOOOOOOOOOOOOOOOOOOOOOOOOOOOOOOOOOOOOOOOOOOOOOOOOOOOOOOO",
"OOOOOOOOOOOOOOOOOOOOOOOOOOOOOOOOOOOOOOOOOOOOOOOOOOOOOOOOOOOOOOOO",
"OOOOOOOOOOOOOOOOOOOOOOOOOOOOOOOOOOOOOOOOOOOOOOOOOOOOOOOOOOOOOOOO",
"OOOOOOOOOOOOOOOOOOOOOOOOOOOOOOOOOOOOOOOOOOOOOOOOOOOOOOOOOOOOOOOO",
"OOOOOOOOOOOOOOOOOOOOOOOOOOOOOOOOOOOOOOOOOOOOOOOOOOOOOOOOOOOOOOOO",
"OOOOOOOOOOOOOOOOOOOOOOOOOOOOOOOOOOOOOOOOOOOOOOOOOOOOOOOOOOOOOOOO",
"OOOOOOOOOOOOOOOOOOOOOOOO                OOOOOOOOOOOOOOOOOOOOOOOO",
"OOOOOOOOOOOOOOOOOOOOOOOO                OOOOOOOOOOOOOOOOOOOOOOOO",
"OOOOOOOOOOOOOOOOOOOO    ooXXXXXXXXXXXXXX    OOOOOOOOOOOOOOOOOOOO",
"OOOOOOOOOOOOOOOOOOOO    ooXXXXXXXXXXXXXX    OOOOOOOOOOOOOOOOOOOO",
"OOOOOOOOOOOOOOOOOO  oo  XXXXXXXXXXXXXXXX  XX  OOOOOOOOOOOOOOOOOO",
"OOOOOOOOOOOOOOOOOO  oo  XXXXXXXXXXXXXXXX  XX  OOOOOOOOOOOOOOOOOO",
"OOOOOOOOOOOOOOOO  ooXX..                XXXXXX  OOOOOOOOOOOOOOOO",
"OOOOOOOOOOOOOOOO  ooXX..                XXXXXX  OOOOOOOOOOOOOOOO",
"OOOOOOOOOOOOOO  XXXX....  XXXXXXXXXXXX  XXXXXXXX  OOOOOOOOOOOOOO",
"OOOOOOOOOOOOOO  XXXX....  XXXXXXXXXXXX  XXXXXXXX  OOOOOOOOOOOOOO",
"OOOOOOOOOOOO  ooXX......  XXXXXXXXXXXX  XXXXXXXXXX  OOOOOOOOOOOO",
"OOOOOOOOOOOO  ooXX......  XXXXXXXXXXXX  XXXXXXXXXX  OOOOOOOOOOOO",
"OOOOOOOOOOOO  XXXX....  XXXXXXXXXXXXXXXX  XXXXXXXX  OOOOOOOOOOOO",
"OOOOOOOOOOOO  XXXX....  XXXXXXXXXXXXXXXX  XXXXXXXX  OOOOOOOOOOOO",
"OOOOOOOOOO  ooXX......  XXXXXXXXXXXXXXXX  XXXXXXXXXX  OOOOOOOOOO",
"OOOOOOOOOO  ooXX......  XXXXXXXXXXXXXXXX  XXXXXXXXXX  OOOOOOOOOO",
"OOOOOOOOOO      ....  XXXXXXXXXXXXXXXXXXXX  XXXX      OOOOOOOOOO",
"OOOOOOOOOO      ....  XXXXXXXXXXXXXXXXXXXX  XXXX      OOOOOOOOOO",
"OOOOOOOOOO  XX..      XXXXXXXXXXXXXXXXXXXX      XXXX  OOOOOOOOOO",
"OOOOOOOOOO  XX..      XXXXXXXXXXXXXXXXXXXX      XXXX  OOOOOOOOOO",
"OOOOOOOOOOOO  oo....        XXXXXXXX        XXXXXX  OOOOOOOOOOOO",
"OOOOOOOOOOOO  oo....        XXXXXXXX        XXXXXX  OOOOOOOOOOOO",
"OOOOOOOOOOOOOO  XX....  XXXX        XXXX  XXXXXX  OOOOOOOOOOOOOO",
"OOOOOOOOOOOOOO  XX....  XXXX        XXXX  XXXXXX  OOOOOOOOOOOOOO",
"OOOOOOOOOOOOOOOO  XX..  XXXXXXXXXXXXXXXX  XXXX  OOOOOOOOOOOOOOOO",
"OOOOOOOOOOOOOOOO  XX..  XXXXXXXXXXXXXXXX  XXXX  OOOOOOOOOOOOOOOO",
"OOOOOOOOOOOOOOOOOO  oo..  XXXXXXXXXXXX  XXXX  OOOOOOOOOOOOOOOOOO",
"OOOOOOOOOOOOOOOOOO  oo..  XXXXXXXXXXXX  XXXX  OOOOOOOOOOOOOOOOOO",
"OOOOOOOOOOOOOOOOOOOO  XX  XXXXXXXXXXXX  XX  OOOOOOOOOOOOOOOOOOOO",
"OOOOOOOOOOOOOOOOOOOO  XX  XXXXXXXXXXXX  XX  OOOOOOOOOOOOOOOOOOOO",
"OOOOOOOOOOOOOOOOOOOOOO  ..  XXXXXXXX  XX  OOOOOOOOOOOOOOOOOOOOOO",
"OOOOOOOOOOOOOOOOOOOOOO  ..  XXXXXXXX  XX  OOOOOOOOOOOOOOOOOOOOOO",
"OOOOOOOOOOOOOOOOOOOOOOOO  ..  XXXX  XX  OOOOOOOOOOOOOOOOOOOOOOOO",
"OOOOOOOOOOOOOOOOOOOOOOOO  ..  XXXX  XX  OOOOOOOOOOOOOOOOOOOOOOOO",
"OOOOOOOOOOOOOOOOOOOOOOOOOO  ..    XX  OOOOOOOOOOOOOOOOOOOOOOOOOO",
"OOOOOOOOOOOOOOOOOOOOOOOOOO  ..    XX  OOOOOOOOOOOOOOOOOOOOOOOOOO",
"OOOOOOOOOOOOOOOOOOOOOOOOOOOO        OOOOOOOOOOOOOOOOOOOOOOOOOOOO",
"OOOOOOOOOOOOOOOOOOOOOOOOOOOO        OOOOOOOOOOOOOOOOOOOOOOOOOOOO",
"OOOOOOOOOOOOOOOOOOOOOOOOOOOOOOOOOOOOOOOOOOOOOOOOOOOOOOOOOOOOOOOO",
"OOOOOOOOOOOOOOOOOOOOOOOOOOOOOOOOOOOOOOOOOOOOOOOOOOOOOOOOOOOOOOOO",
"OOOOOOOOOOOOOOOOOOOOOOOOOOOOOOOOOOOOOOOOOOOOOOOOOOOOOOOOOOOOOOOO",
"OOOOOOOOOOOOOOOOOOOOOOOOOOOOOOOOOOOOOOOOOOOOOOOOOOOOOOOOOOOOOOOO",
"OOOOOOOOOOOOOOOOOOOOOOOOOOOOOOOOOOOOOOOOOOOOOOOOOOOOOOOOOOOOOOOO",
"OOOOOOOOOOOOOOOOOOOOOOOOOOOOOOOOOOOOOOOOOOOOOOOOOOOOOOOOOOOOOOOO",
"OOOOOOOOOOOOOOOOOOOOOOOOOOOOOOOOOOOOOOOOOOOOOOOOOOOOOOOOOOOOOOOO",
"OOOOOOOOOOOOOOOOOOOOOOOOOOOOOOOOOOOOOOOOOOOOOOOOOOOOOOOOOOOOOOOO",
"OOOOOOOOOOOOOOOOOOOOOOOOOOOOOOOOOOOOOOOOOOOOOOOOOOOOOOOOOOOOOOOO",
"OOOOOOOOOOOOOOOOOOOOOOOOOOOOOOOOOOOOOOOOOOOOOOOOOOOOOOOOOOOOOOOO",
"OOOOOOOOOOOOOOOOOOOOOOOOOOOOOOOOOOOOOOOOOOOOOOOOOOOOOOOOOOOOOOOO",
"OOOOOOOOOOOOOOOOOOOOOOOOOOOOOOOOOOOOOOOOOOOOOOOOOOOOOOOOOOOOOOOO",
"OOOOOOOOOOOOOOOOOOOOOOOOOOOOOOOOOOOOOOOOOOOOOOOOOOOOOOOOOOOOOOOO"
};
