/* XPM */
static const char *YmF0MQ__[] = {
/* columns rows colors chars-per-pixel */
"64 64 9 1 ",
"  c #1D181E",
". c #432F53",
"X c #5C436F",
"o c #5F5F7B",
"O c #AE0000",
"+ c #B572B1",
"@ c #7784A2",
"# c #FFF9D6",
"$ c None",
/* pixels */
"$$$$$$$$$$$$$$$$$$$$$$$$$$$$$$$$$$$$$$$$$$$$$$$$$$$$$$$$$$$$$$$$",
"$$$$$$$$$$$$$$$$$$$$$$$$$$$$$$$$$$$$$$$$$$$$$$$$$$$$$$$$$$$$$$$$",
"$$$$$$$$$$$$$$$$$$$$$$$$$$$$$$$$$$$$$$$$$$$$$$$$$$$$$$$$$$$$$$$$",
"$$$$$$$$$$$$$$$$$$$$$$$$$$$$$$$$$$$$$$$$$$$$$$$$$$$$$$$$$$$$$$$$",
"$$$$$$$$$$$$$$$$$$$$$$$$$$$$$$$$$$$$$$$$$$$$$$$$$$$$$$$$$$$$$$$$",
"$$$$$$$$$$$$$$$$$$$$$$$$$$$$$$$$$$$$$$$$$$$$$$$$$$$$$$$$$$$$$$$$",
"$$$$$$$$$$$$$$$$$$$$$$$$$$$$$$$$$$$$$$$$$$$$$$$$$$$$$$$$$$$$$$$$",
"$$$$$$$$$$$$$$$$$$$$$$$$$$$$$$$$$$$$$$$$$$$$$$$$$$$$$$$$$$$$$$$$",
"$$$$$$$$$$$$$$$$$$$$$$$$$$$$$$$$$$$$$$$$$$$$$$$$$$$$$$$$$$$$$$$$",
"$$$$$$$$$$$$$$$$$$$$$$$  $$$$$$$$$$  $$$$$$$$$$$$$$$$$$$$$$$$$$$",
"$$$$$$$$$$$$$$$$$$$$$$$  $$$$$$$$$$  $$$$$$$$$$$$$$$$$$$$$$$$$$$",
"$$$$$$$$$$$$$$$$$$$$$  @@  $$$$$$  @@  $$$$$$$$$$$$$$$$$$$$$$$$$",
"$$$$$$$$$$$$$$$$$$$$$  @@  $$$$$$  @@  $$$$$$$$$$$$$$$$$$$$$$$$$",
"$$$$$$$$$$$$$$$$$$$$$  ++..      ..++  $$$$$$$$$$$$$$$$$$$$$$$$$",
"$$$$$$$$$$$$$$$$$$$$$  ++..      ..++  $$$$$$$$$$$$$$$$$$$$$$$$$",
"$$$$$$$$$$$$$$$$$$$$$  ++@@..@@..oo++  $$$$$$$$$$$$$$$$$$$$$$$$$",
"$$$$$$$$$$$$$$$$$$$$$  ++@@..@@..oo++  $$$$$$$$$$$$$$$$$$$$$$$$$",
"$$$$$$$$$$$$$$$$$$$$$..    oo@@@@    ..$$$$$$$$$$$$$$$$$$$$$$$$$",
"$$$$$$$$$$$$$$$$$$$$$..    oo@@@@    ..$$$$$$$$$$$$$$$$$$$$$$$$$",
"$$$$$$$$$$$$$$$$$$$$$..  OO  @@  OO  ..$$$$$$$$$$$$$$$$$$$$$$$$$",
"$$$$$$$$$$$$$$$$$$$$$..  OO  @@  OO  ..$$$$$$$$$$$$$$$$$$$$$$$$$",
"$$$$$$$$$$$$$$$........  ..++@@oo..  ........$$$$$$$$$$$$$$$$$$$",
"$$$$$$$$$$$$$$$........  ..++@@oo..  ........$$$$$$$$$$$$$$$$$$$",
"$$$$$$$$$$$$$..++++++..    ##  ##    ..++++++..$$$$$$$$$$$$$$$$$",
"$$$$$$$$$$$$$..++++++..    ##  ##    ..++++++..$$$$$$$$$$$$$$$$$",
"$$$$$$$$$$$..++oo....  ooXX  XX  XXXX  ....oo++..$$$$$$$$$$$$$$$",
"$$$$$$$$$$$..++oo....  ooXX  XX  XXXX  ....oo++..$$$$$$$$$$$$$$$",
"$$$$$$$$$..++..XXXX..  ooooXXXXXXXXoo  ..XXXX..++..$$$$$$$$$$$$$",
"$$$$$$$$$..++..XXXX..  ooooXXXXXXXXoo  ..XXXX..++..$$$$$$$$$$$$$",
"$$$$$$$$$..oo..XX....  @@ooooXXoooo@@  ....XX..oo..$$$$$$$$$$$$$",
"$$$$$$$$$..oo..XX....  @@ooooXXoooo@@  ....XX..oo..$$$$$$$$$$$$$",
"$$$$$$$..++ooXX....  $$  @@@@@@@@@@  $$  ....XXoo++..$$$$$$$$$$$",
"$$$$$$$..++ooXX....  $$  @@@@@@@@@@  $$  ....XXoo++..$$$$$$$$$$$",
"$$$$$....++......  $$$$  @@@@  @@@@  $$$$  ......++....$$$$$$$$$",
"$$$$$....++......  $$$$  @@@@  @@@@  $$$$  ......++....$$$$$$$$$",
"$$$..++++ooXX..  $$$$$$  XX  $$  XX  $$$$$$  ....oo++++..$$$$$$$",
"$$$..++++ooXX..  $$$$$$  XX  $$  XX  $$$$$$  ....oo++++..$$$$$$$",
"$$$$$..++ooXX  $$$$$$$$  XX  $$  XX  $$$$$$$$  ..oo++..$$$$$$$$$",
"$$$$$..++ooXX  $$$$$$$$  XX  $$  XX  $$$$$$$$  ..oo++..$$$$$$$$$",
"$$$$$..oo..oo  $$$$$$$$$$  $$$$$$  $$$$$$$$$$  oo..oo..$$$$$$$$$",
"$$$$$..oo..oo  $$$$$$$$$$  $$$$$$  $$$$$$$$$$  oo..oo..$$$$$$$$$",
"$$$$$..oo....  $$$$$$$$$$$$$$$$$$$$$$$$$$$$$$  ....oo..$$$$$$$$$",
"$$$$$..oo....  $$$$$$$$$$$$$$$$$$$$$$$$$$$$$$  ....oo..$$$$$$$$$",
"$$$....oo..  $$$$$$$$$$$$$$$$$$$$$$$$$$$$$$$$$$  XXoo....$$$$$$$",
"$$$....oo..  $$$$$$$$$$$$$$$$$$$$$$$$$$$$$$$$$$  XXoo....$$$$$$$",
"$$$  XXoo..  $$$$$$$$$$$$$$$$$$$$$$$$$$$$$$$$$$  XXooXX  $$$$$$$",
"$$$  XXoo..  $$$$$$$$$$$$$$$$$$$$$$$$$$$$$$$$$$  XXooXX  $$$$$$$",
"$$$  XXXX..  $$$$$$$$$$$$$$$$$$$$$$$$$$$$$$$$$$  ....XX  $$$$$$$",
"$$$  XXXX..  $$$$$$$$$$$$$$$$$$$$$$$$$$$$$$$$$$  ....XX  $$$$$$$",
"$$$$$  ..  $$$$$$$$$$$$$$$$$$$$$$$$$$$$$$$$$$$$$$  XX  $$$$$$$$$",
"$$$$$  ..  $$$$$$$$$$$$$$$$$$$$$$$$$$$$$$$$$$$$$$  XX  $$$$$$$$$",
"$$$$$$$    $$$$$$$$$$$$$$$$$$$$$$$$$$$$$$$$$$$$$$    $$$$$$$$$$$",
"$$$$$$$    $$$$$$$$$$$$$$$$$$$$$$$$$$$$$$$$$$$$$$    $$$$$$$$$$$",
"$$$$$$$$$$$$$$$$$$$$$$$$$$$$$$$$$$$$$$$$$$$$$$$$$$$$$$$$$$$$$$$$",
"$$$$$$$$$$$$$$$$$$$$$$$$$$$$$$$$$$$$$$$$$$$$$$$$$$$$$$$$$$$$$$$$",
"$$$$$$$$$$$$$$$$$$$$$$$$$$$$$$$$$$$$$$$$$$$$$$$$$$$$$$$$$$$$$$$$",
"$$$$$$$$$$$$$$$$$$$$$$$$$$$$$$$$$$$$$$$$$$$$$$$$$$$$$$$$$$$$$$$$",
"$$$$$$$$$$$$$$$$$$$$$$$$$$$$$$$$$$$$$$$$$$$$$$$$$$$$$$$$$$$$$$$$",
"$$$$$$$$$$$$$$$$$$$$$$$$$$$$$$$$$$$$$$$$$$$$$$$$$$$$$$$$$$$$$$$$",
"$$$$$$$$$$$$$$$$$$$$$$$$$$$$$$$$$$$$$$$$$$$$$$$$$$$$$$$$$$$$$$$$",
"$$$$$$$$$$$$$$$$$$$$$$$$$$$$$$$$$$$$$$$$$$$$$$$$$$$$$$$$$$$$$$$$",
"$$$$$$$$$$$$$$$$$$$$$$$$$$$$$$$$$$$$$$$$$$$$$$$$$$$$$$$$$$$$$$$$",
"$$$$$$$$$$$$$$$$$$$$$$$$$$$$$$$$$$$$$$$$$$$$$$$$$$$$$$$$$$$$$$$$",
"$$$$$$$$$$$$$$$$$$$$$$$$$$$$$$$$$$$$$$$$$$$$$$$$$$$$$$$$$$$$$$$$"
};
