/* XPM */
static const char *YmF0Mw__[] = {
/* columns rows colors chars-per-pixel */
"64 64 9 1 ",
"  c #1D181E",
". c #432F53",
"X c #5C436F",
"o c #5F5F7B",
"O c #AE0000",
"+ c #B572B1",
"@ c #7784A2",
"# c #FFF9D6",
"$ c None",
/* pixels */
"$$$$$$$$$$$$$$$$$$$$$$$$$$$$$$$$$$$$$$$$$$$$$$$$$$$$$$$$$$$$$$$$",
"$$$$$$$$$$$$$$$$$$$$$$$$$$$$$$$$$$$$$$$$$$$$$$$$$$$$$$$$$$$$$$$$",
"$$$$$$$$$$$$$$$$$$$$$$$$$$$$$$$$$$$$$$$$$$$$$$$$$$$$$$$$$$$$$$$$",
"$$$$$$$$$$$$$$$$$$$$$$$$$$$$$$$$$$$$$$$$$$$$$$$$$$$$$$$$$$$$$$$$",
"$$$$$$$$$$$$$$$$$$$$$$$$$$$$$$$$$$$$$$$$$$$$$$$$$$$$$$$$$$$$$$$$",
"$$$$$$$$$$$$$$$$$$$$$$$$$$$$$$$$$$$$$$$$$$$$$$$$$$$$$$$$$$$$$$$$",
"$$$$$$$$$$$$$$$$$$$$$$$$$$$$$$$$$$$$$$$$$$$$$$$$$$$$$$$$$$$$$$$$",
"$$$$$$$$$$$$$$$$$$$$$$$$$$$$$$$$$$$$$$$$$$$$$$$$$$$$$$$$$$$$$$$$",
"$$$$$$$$$$$$$$$$$$$$$$$$$$$$$$$$$$$$$$$$$$$$$$$$$$$$$$$$$$$$$$$$",
"$$$$$$$$$$$$$$$$$$$$$$$$$$$$$$$$$$$$$$$$$$$$$$$$$$$$$$$$$$$$$$$$",
"$$$$$$$$$$$$$$$$$$$$$$$$$$$$$$$$$$$$$$$$$$$$$$$$$$$$$$$$$$$$$$$$",
"$$$......$$$$$$$$$$$$$$$$$$$$$$$$$$$$$$$$$$$$$$$$$$$$$$      $$$",
"$$$......$$$$$$$$$$$$$$$$$$$$$$$$$$$$$$$$$$$$$$$$$$$$$$      $$$",
"$..oo++++........$$$$$$$$$$$$$$$$$$$$$$$$$$$$$$........++++oo   ",
"$..oo++++........$$$$$$$$$$$$$$$$$$$$$$$$$$$$$$........++++oo   ",
"$$$......oo++++++..$$$$$$$$$$$$$$$$$$$$$$$$$$..++++++oo....  $$$",
"$$$......oo++++++..$$$$$$$$$$$$$$$$$$$$$$$$$$..++++++oo....  $$$",
"$$$$$  XXXXXX..oooo  $$$$$$$$$$$$$$$$$$$$$$..++oo....XXXX  $$$$$",
"$$$$$  XXXXXX..oooo  $$$$$$$$$$$$$$$$$$$$$$..++oo....XXXX  $$$$$",
"$$$$$$$  ....++..oo  $$$$$$$$$$$$$$$$$$$$$$..++..oo....  $$$$$$$",
"$$$$$$$  ....++..oo  $$$$$$$$$$$$$$$$$$$$$$..++..oo....  $$$$$$$",
"$$$$$$$$$  oo....oo..  $$$$$$$$$$$$$$$$$$  ..oo..XXoo  $$$$$$$$$",
"$$$$$$$$$  oo....oo..  $$$$$$$$$$$$$$$$$$  ..oo..XXoo  $$$$$$$$$",
"$$$$$$$  oo....oo....  $$$$$$$$$$$$$$$$$$  ....ooXX..oo  $$$$$$$",
"$$$$$$$  oo....oo....  $$$$$$$$$$$$$$$$$$  ....ooXX..oo  $$$$$$$",
"$$$$$$$$$    ..oo..XX  $$  $$$$$$$$$$  $$  ..XXoo..    $$$$$$$$$",
"$$$$$$$$$    ..oo..XX  $$  $$$$$$$$$$  $$  ..XXoo..    $$$$$$$$$",
"$$$$$$$$$$$  ooXXXX....  @@  $$$$$$  @@  ..XXXX..oo  $$$$$$$$$$$",
"$$$$$$$$$$$  ooXXXX....  @@  $$$$$$  @@  ..XXXX..oo  $$$$$$$$$$$",
"$$$$$$$$$$$  ooXXXX....  ++..      ..++  ....XXXXoo  $$$$$$$$$$$",
"$$$$$$$$$$$  ooXXXX....  ++..      ..++  ....XXXXoo  $$$$$$$$$$$",
"$$$$$$$$$  oo..XX..oooo  ++@@..@@..oo++  oooo......oo  $$$$$$$$$",
"$$$$$$$$$  oo..XX..oooo  ++@@..@@..oo++  oooo......oo  $$$$$$$$$",
"$$$$$$$$$$$    ..oo......    oo@@@@    ..XX..oo..    $$$$$$$$$$$",
"$$$$$$$$$$$    ..oo......    oo@@@@    ..XX..oo..    $$$$$$$$$$$",
"$$$$$$$$$$$$$  oo....XX..  OO  @@  OO  ..XXXX..oo  $$$$$$$$$$$$$",
"$$$$$$$$$$$$$  oo....XX..  OO  @@  OO  ..XXXX..oo  $$$$$$$$$$$$$",
"$$$$$$$$$$$$$  ....XX....  ..++@@oo..  ..XXXX....  $$$$$$$$$$$$$",
"$$$$$$$$$$$$$  ....XX....  ..++@@oo..  ..XXXX....  $$$$$$$$$$$$$",
"$$$$$$$$$$$$$$$  ........    ##  ##    ....XX..  $$$$$$$$$$$$$$$",
"$$$$$$$$$$$$$$$  ........    ##  ##    ....XX..  $$$$$$$$$$$$$$$",
"$$$$$$$$$$$$$$$$$  ....  ooXX  XX  XXXX  ....  $$$$$$$$$$$$$$$$$",
"$$$$$$$$$$$$$$$$$  ....  ooXX  XX  XXXX  ....  $$$$$$$$$$$$$$$$$",
"$$$$$$$$$$$$$$$$$$$      ooXXooXXXXXXoo      $$$$$$$$$$$$$$$$$$$",
"$$$$$$$$$$$$$$$$$$$      ooXXooXXXXXXoo      $$$$$$$$$$$$$$$$$$$",
"$$$$$$$$$$$$$$$$$$$$$$$  @@@@ooooXXoo@@  $$$$$$$$$$$$$$$$$$$$$$$",
"$$$$$$$$$$$$$$$$$$$$$$$  @@@@ooooXXoo@@  $$$$$$$$$$$$$$$$$$$$$$$",
"$$$$$$$$$$$$$$$$$$$$$$$$$  @@@@@@@@@@  $$$$$$$$$$$$$$$$$$$$$$$$$",
"$$$$$$$$$$$$$$$$$$$$$$$$$  @@@@@@@@@@  $$$$$$$$$$$$$$$$$$$$$$$$$",
"$$$$$$$$$$$$$$$$$$$$$$$$$  XX      XX  $$$$$$$$$$$$$$$$$$$$$$$$$",
"$$$$$$$$$$$$$$$$$$$$$$$$$  XX      XX  $$$$$$$$$$$$$$$$$$$$$$$$$",
"$$$$$$$$$$$$$$$$$$$$$$$$$$$  $$$$$$  $$$$$$$$$$$$$$$$$$$$$$$$$$$",
"$$$$$$$$$$$$$$$$$$$$$$$$$$$  $$$$$$  $$$$$$$$$$$$$$$$$$$$$$$$$$$",
"$$$$$$$$$$$$$$$$$$$$$$$$$$$$$$$$$$$$$$$$$$$$$$$$$$$$$$$$$$$$$$$$",
"$$$$$$$$$$$$$$$$$$$$$$$$$$$$$$$$$$$$$$$$$$$$$$$$$$$$$$$$$$$$$$$$",
"$$$$$$$$$$$$$$$$$$$$$$$$$$$$$$$$$$$$$$$$$$$$$$$$$$$$$$$$$$$$$$$$",
"$$$$$$$$$$$$$$$$$$$$$$$$$$$$$$$$$$$$$$$$$$$$$$$$$$$$$$$$$$$$$$$$",
"$$$$$$$$$$$$$$$$$$$$$$$$$$$$$$$$$$$$$$$$$$$$$$$$$$$$$$$$$$$$$$$$",
"$$$$$$$$$$$$$$$$$$$$$$$$$$$$$$$$$$$$$$$$$$$$$$$$$$$$$$$$$$$$$$$$",
"$$$$$$$$$$$$$$$$$$$$$$$$$$$$$$$$$$$$$$$$$$$$$$$$$$$$$$$$$$$$$$$$",
"$$$$$$$$$$$$$$$$$$$$$$$$$$$$$$$$$$$$$$$$$$$$$$$$$$$$$$$$$$$$$$$$",
"$$$$$$$$$$$$$$$$$$$$$$$$$$$$$$$$$$$$$$$$$$$$$$$$$$$$$$$$$$$$$$$$",
"$$$$$$$$$$$$$$$$$$$$$$$$$$$$$$$$$$$$$$$$$$$$$$$$$$$$$$$$$$$$$$$$",
"$$$$$$$$$$$$$$$$$$$$$$$$$$$$$$$$$$$$$$$$$$$$$$$$$$$$$$$$$$$$$$$$"
};
