/* XPM */
static char *e9c6257f93f44bd19562f98cadfa3821WuCM9mKTOIber66g[] = {
/* columns rows colors chars-per-pixel */
"64 64 142 2 ",
"   c None",
".  c #77B9B9",
"X  c #7DBCBC",
"o  c #81BFBF",
"O  c #84C0C0",
"+  c #8BC4C4",
"@  c #8FC8C8",
"#  c #91C7C7",
"$  c #95C9C9",
"%  c #9BCCCC",
"&  c #9ED1D1",
"*  c #A0CFCF",
"=  c #AAD6C5",
"-  c #A7D4CF",
";  c #AAD6CB",
":  c #AFD8CE",
">  c #B2DACD",
",  c #BBDECC",
"<  c #A5D2D2",
"1  c #ACD5D5",
"2  c #AED8D5",
"3  c #AED8D8",
"4  c #B0D7D7",
"5  c #B4DBD4",
"6  c #B9DDD2",
"7  c #B3D9D9",
"8  c #BBDEDE",
"9  c #BFE0DD",
"0  c #B6E0E0",
"q  c #BDE1E1",
"w  c #C0DFDF",
"e  c #C2E1D5",
"r  c #C4E2DD",
"t  c #C9E5DD",
"y  c #C4E3E3",
"u  c #CBE6E5",
"i  c #C6E9E9",
"p  c #CCEBEB",
"a  c #D2E9E6",
"s  c #DBEEE6",
"d  c #D7ECE8",
"f  c #D7ECEC",
"g  c #D4EAEA",
"h  c #D9EDE9",
"j  c #D8ECEB",
"k  c #DBEDEB",
"l  c #DCEEEB",
"z  c #DEEFEA",
"x  c #D8ECEC",
"c  c #D9ECEC",
"v  c #D9EDED",
"b  c #DAEDEC",
"n  c #DAEDED",
"m  c #DBEDED",
"M  c #DBEEEE",
"N  c #DCEEEE",
"B  c #DDEEEE",
"V  c #DDEFEF",
"C  c #DFEFEE",
"Z  c #DEEFEF",
"A  c #DFEFEF",
"S  c #DBEDED",
"D  c #D3F1F1",
"F  c #DFF0F0",
"G  c #E0EFEF",
"H  c #E0F0EF",
"J  c #E2F1EF",
"K  c #E4F2EE",
"L  c #E9F4EE",
"P  c #EDF6EF",
"I  c #EBF6ED",
"U  c #F2F9EF",
"Y  c #F3F9EF",
"T  c #F5FAEF",
"R  c #F1F8EB",
"E  c #E0F0F0",
"W  c #E1F0F0",
"Q  c #E2F0F0",
"!  c #E2F1F0",
"~  c #E3F1F0",
"^  c #E2F1F1",
"/  c #E3F2F2",
"(  c #E4F2F2",
")  c #E5F2F2",
"_  c #E5F3F3",
"`  c #E6F3F3",
"'  c #E7F3F3",
"]  c #E7F4F3",
"[  c #E7F4F4",
"{  c #E1F1F0",
"}  c #E8F4F2",
"|  c #EAF5F3",
" . c #E8F4F4",
".. c #E9F4F4",
"X. c #EAF5F4",
"o. c #EAF5F5",
"O. c #EBF5F5",
"+. c #ECF5F5",
"@. c #EEF7F5",
"#. c #ECF6F6",
"$. c #EDF6F6",
"%. c #EDF7F6",
"&. c #EFF7F7",
"*. c #EBF5F1",
"=. c #F0F7F1",
"-. c #F6FBF1",
";. c #F7FBF2",
":. c #F0F8F6",
">. c #F4F9F5",
",. c #F7FBF4",
"<. c #F6FBF5",
"1. c #F5FAF6",
"2. c #F4FAF5",
"3. c #F8FBF6",
"4. c #F8FCF4",
"5. c #F8FCF5",
"6. c #F9FCF5",
"7. c #F8FCF6",
"8. c #F9FCF6",
"9. c #F0F8F8",
"0. c #F2F9F8",
"q. c #F3F9F8",
"w. c #F4FAF8",
"e. c #F5FAF8",
"r. c #F5FAF9",
"t. c #F6FAF8",
"y. c #F6FBF8",
"u. c #F6FAF9",
"i. c #F7FBF9",
"p. c #F6FBFA",
"a. c #F7FBFA",
"s. c #F4FAF8",
"d. c #F8FBF8",
"f. c #F8FBFA",
"g. c #F8FBFB",
"h. c #F8FCF8",
"j. c #F9FCF9",
"k. c #FAFCF9",
"l. c #F9FCFA",
"z. c #F8FCFB",
"x. c #FAFCFA",
"c. c #FAFCFC",
/* pixels */
"                                                                                                                                ",
"                                                                                                                                ",
"                                                                                                                                ",
"                                                                                                                                ",
"                                                                                                                                ",
"                                                        T 1.p.j.d.p.1.Y                                                         ",
"                                              ;.1.p.:.O.) ^ ^ ^ Z ^ ^ ) ] | %.=.Y                                               ",
"                                          5.p.%.) Z x x x x x x x x x x x x x Z ^ | I                                           ",
"                                      5.p.O.Z x x x x x x x x x x x x x c c f f g g x H L                                       ",
"                                  1.p.O.Z x x x x x x a u 8 7 7 4 7 8 y u g x f g g g g x Z l                                   ",
"                                j.%.F x x x x x u 4 % + o o o O O O o o + $ 2 y g g g g g x x l                                 ",
"                              d.O.x x x x x 8 % o X + % < 1 2 2 2 2 1 < % + X o $ 8 a g x x x x j                               ",
"                          3.p.) x x x x y % o + % 1 7 7 7 7 7 4 4 2 2 2 2 2 < % + o % y x x x x x j s                           ",
"                        3.p.^ x x x a < o + < 7 7 7 7 7 7 4 4 2 2 2 2 2 2 2 2 2 2 % O o 2 g x x g a a a                         ",
"                        p.^ x x x u $ o % 2 7 7 7 7 4 4 4 2 2 2 2 2 2 2 2 2 2 2 2 2 1 % o % a x a u u a                         ",
"                      j.) x x x y + O < 7 7 7 7 4 4 2 2 2 2 2 2 2 2 2 2 2 2 2 1 1 1 2 4 < O + 8 u u p g j                       ",
"                    j.O.f g x y O + 2 7 7 7 4 4 2 2 2 2 2 2 2 2 2 2 2 2 2 1 1 1 1 1 2 4 4 2 + o 8 u g x a t                     ",
"                  5.0.x g g u + + 2 7 7 7 7 4 4 2 2 2 2 2 2 2 2 2 2 2 2 1 1 1 1 1 2 4 4 4 4 2 + + u x a u u t                   ",
"                  j.^ g g u $ O 2 7 4 4 < $ + + + + + + + + + + + + + + + + + + + + + $ < 2 2 < o $ u u u u u                   ",
"                5.%.g g g < X < 7 4 4 < X + < 4 4 4 4 4 4 4 4 4 4 4 4 4 4 4 4 4 7 7 < O O < < < % X < u u u y t                 ",
"                d.x a g w o % 4 2 2 2 + $ ) O.) ) ) ) ) ) ) ) ) ) ) [ %.%.%.%.%.%.%.O.u o # < < < $ o 8 u y y y                 ",
"              5.%.a a a % O 2 2 2 2 2 O w ) x x x x x x x x x x x x ^ ) ) ) ) ) ) Z f g $ O < < < 1 O % y y y y e               ",
"              j.Z a a 8 X % 2 2 2 2 1 O y Z x j d g g g g g g g g x ^ ^ ^ ^ ^ H d g g g * O < < 1 1 % X 8 y y y r               ",
"            ;.0.g a p $ + 2 2 2 2 2 1 O y Z x a                                   a g Z < O < 1 1 < < O & y y y y e             ",
"            5.) a a y X % 2 2 2 2 2 < O y Z x u                                   ^ Z ^ < O 1 1 < < < $ O y y y y e             ",
"            j.Z p a 1 X < 2 2 2 2 2 < O y Z x u                                   O.^ Z * O < < < < < % X 7 y y y r             ",
"            p.g u u $ + 2 2 2 2 1 1 < O y Z x u                                   %.^ g % O < < < * * % O & u y y 9             ",
"            0.p u y O $ 2 1 1 1 2 1 < o y Z j t                                   O.g u % O * * * * * * + @ p q q q             ",
"          T O.u u 8 X * 2 2 1 1 1 1 < o y Z g r                                   ^ a u % O * * < % % % $ O p y 8 8 ,           ",
"          1.^ u u 7 X < 2 1 1 1 1 1 < o y x g r                                   H u u % O * % % % % % % X i y 8 8 6           ",
"          j.^ u u 2 X < 1 1 1 1 < < < o y x a r                                   H u u % O * * % % % % % o y y 8 8 8           ",
"          c.Z u u 1 X < 1 1 < < < < < o y x a r                                   Z u u % O % % % % % % % X q y 8 8 8           ",
"          c.Z u u < o < < < < < < < < o y g a r                                   Z u y $ o % % % % % % % X q y 8 8 8           ",
"          p.Z y u 2 X < < < < < < < < o y g a u                                   Z u y $ o % % % % % % % X y y 8 8 5           ",
"          =.Z y y 7 X < < < < < < < < o y g x a                                   Z y y $ o % % % % % % $ X i y 7 7 6           ",
"          R ^ y y 8 X % < < < < < < < o y Z Z u                                   Z y y $ o % % % % % % # O p q 7 7 ,           ",
"            ^ y y 8 O $ < < < < < < < o y ^ Z u                                   x y y $ o % % % % % % + + D 8 7 7             ",
"            ) y y y # O < < < < < < * o y ^ x u                                   x y y $ o % % % % % % o & f 7 7 7             ",
"            | y y y < X * < < < < < * o y G x u                                   x y 8 $ o % % % % % $ X q p 7 7 7             ",
"            L u y y 7 X $ < < < < < * o y Z x u                                   Z y 8 $ o % % % % % + O p q 7 7 5             ",
"            I a q y 8 + O < < < < < * o y Z g u j K K | | | K K K K K K K K K K %.x 8 8 # o % % % $ $ o & D 7 7 7 >             ",
"              d q q q 1 X $ < < < * * o y x u y u g G ^ Z g a a a a a a a a u u u q 8 8 + o % $ $ $ + X i y 7 7 7               ",
"              s y 8 8 8 + o * * * < < O % u y y y a g a y q 8 8 8 8 8 8 8 8 8 8 8 8 8 7 o O $ $ $ $ X < D 7 7 7 >               ",
"                u 8 8 8 2 X # * < < < $ X + < < 2 7 7 1 < < < < < < < < < < < < < < % O . + $ $ $ + O p y 3 3 2                 ",
"                u 8 8 8 y < X % < < < < $ o X X X X X X X X X X X X X X X X X X X X X X + $ $ $ + X 3 p 7 3 3 :                 ",
"                  r 8 y g g $ o < < < < < * % % % % % % % $ $ $ $ $ $ $ $ $ $ $ $ $ $ $ $ $ $ # X & D q 2 3 2                   ",
"                  e y g x x u + O < < < * % % % * < < % % % % % % % % % % $ $ $ $ $ $ $ $ $ $ X $ D y 2 2 2 ;                   ",
"                    a x x x x y O O * < % % % % < < % % % % % % % % $ $ $ $ $ $ $ $ $ $ $ # X + p i 2 2 2 :                     ",
"                      j x x x u 3 + o $ % % % < < % % % % $ % % $ $ $ $ $ $ $ $ $ $ $ $ + X $ p p 3 1 1 1                       ",
"                        j x u 8 7 7 $ X + % < < % % % % % % $ $ $ $ $ $ $ $ $ $ $ $ $ O X & D i 3 1 1 1                         ",
"                        a u 8 7 7 y g 2 o o $ % % % % % $ $ $ $ $ $ $ $ $ $ $ $ $ + X O 3 D q 1 1 1 1 ;                         ",
"                          6 7 7 y x x u 7 % X o + $ $ $ $ $ $ $ $ $ $ $ $ $ # + X X < p D 8 1 1 1 1 ;                           ",
"                              r x x u 7 7 q q & O X X + + # $ $ $ # # + O X X O & i D y 3 1 1 1 1                               ",
"                                d u 7 3 3 3 7 q y 0 & + O X X X X X X O + & q p D y 3 1 1 1 < -                                 ",
"                                  6 2 3 3 3 3 2 3 8 y p p i y q q y i p D D p q 3 1 < < < < ;                                   ",
"                                      : 2 2 2 2 1 1 1 3 7 q q y y y q 8 7 2 1 < < < < < ;                                       ",
"                                          : 1 1 1 1 1 1 1 1 1 1 1 < < < < < < < < < ;                                           ",
"                                              ; : 1 1 1 1 1 1 1 < < < < < < < ; =                                               ",
"                                                        = ; < < < < ; =                                                         ",
"                                                                                                                                ",
"                                                                                                                                ",
"                                                                                                                                ",
"                                                                                                                                ",
"                                                                                                                                "
};
