/* XPM */
static char *_a61b624fcdd407eaa0767b90db4b764cFEAX6dggETQSQvk[] = {
/* columns rows colors chars-per-pixel */
"64 64 14 1 ",
"  c None",
". c black",
"X c #228F87",
"o c #9BE8E3",
"O c #2EBFB7",
"+ c #3BD0C8",
"@ c #31CBC3",
"# c #A7EBE6",
"$ c #8FE5DF",
"% c #5FD9D2",
"& c #53D6CE",
"* c #228F84",
"= c gray3",
"- c white",
/* pixels */
"                                                                ",
"                                                                ",
"                                                                ",
"                                                                ",
"                                                                ",
"                                                                ",
"                                                                ",
"                                                                ",
"                                                                ",
"                                                                ",
"                                                                ",
"                                                                ",
"                                ..                              ",
"                               .Xo.                             ",
"                              .XO+o.                            ",
"                             .XOO+@#.                           ",
"                            .XOOO+o@o.                          ",
"                           .XOOOO++$@#.                         ",
"                          .XOOOO%o++$+o.                        ",
"                         .XOOOO%OOo++++o.                       ",
"                         .XXXXXOOO%OOOO&.                       ",
"                          .*XXXXO%OOOO&.                        ",
"                           .XXXXXOOOO&=                         ",
"                            .XXXXOOO%.                          ",
"                             .XXXOO&.                           ",
"                              .XXO%.                            ",
"                               .X&.                             ",
"                                ..                              ",
"                                                                ",
"                                                                ",
"                                                                ",
"                                                                ",
"                                                                ",
"                                                                ",
"                                                                ",
"                                                                ",
"                                                                ",
"                                                                ",
"                                                                ",
"                                                                ",
"                                                                ",
"                                                                ",
"                                                                ",
"                                                                ",
"                                                                ",
"                                                                ",
"                                                                ",
"                                                                ",
"                                                                ",
"                                                                ",
"                                                                ",
"                                                                ",
"                                                                ",
"                                                                ",
"                                                                ",
"                                                                ",
"                                                                ",
"                                                                ",
"                                                                ",
"                                                                ",
"                                                                ",
"                                                                ",
"                                                                ",
"                                                                "
};
