/* XPM */
static char *e0645bdfbebd49bbb99640ad812a5d85vWPysqTWDZmc5rVF[] = {
/* columns rows colors chars-per-pixel */
"64 64 121 2 ",
"   c None",
".  c #000000",
"X  c gray3",
"o  c #071E1D",
"O  c #08211F",
"+  c #082321",
"@  c #0A2B27",
"#  c #0B2D2B",
"$  c #122D2C",
"%  c #0C322F",
"&  c #14312F",
"*  c #0D3532",
"=  c #0E3936",
"-  c #0E3D3A",
";  c #163231",
":  c #163937",
">  c #243534",
",  c #2A3F3E",
"<  c #1C403E",
"1  c #114642",
"2  c #1C4542",
"3  c #164B47",
"4  c #1E4E4B",
"5  c #155651",
"6  c #2E4644",
"7  c #214B48",
"8  c #354C4B",
"9  c #21524F",
"0  c #36514F",
"q  c #225451",
"w  c #215B57",
"e  c #3C5554",
"r  c #3D5B59",
"t  c #17605B",
"y  c #1A6C66",
"u  c #1A6F69",
"i  c #1B716B",
"p  c #1E7D76",
"a  c #2E6461",
"s  c #3E6966",
"d  c #2E7A76",
"f  c #2F7D78",
"g  c #307B77",
"h  c #415E5C",
"j  c #426361",
"k  c #1F827A",
"l  c #20867F",
"z  c #228E86",
"x  c #23938B",
"c  c #249790",
"v  c #259C94",
"b  c #2D9992",
"n  c #3C9B95",
"m  c #3E9F99",
"M  c #2AA49C",
"N  c #2AACA4",
"B  c #2BB2AA",
"V  c #3CB3AC",
"C  c #2EBEB6",
"Z  c #3FB7B0",
"A  c #37BDB5",
"S  c #3ABDB5",
"D  c #528985",
"F  c #469F9A",
"G  c #44A39C",
"H  c #43B5AE",
"J  c #45BCB5",
"K  c #43BFB8",
"L  c #74AEAA",
"P  c #77B1AE",
"I  c #7FB3AF",
"U  c #2FC0B8",
"Y  c #33C2BA",
"T  c #3AC4BC",
"R  c #44C5BD",
"E  c #4DC5BE",
"W  c #65C2BD",
"Q  c #68C4BF",
"!  c #37CBC3",
"~  c #3BCCC4",
"^  c #3ED1C9",
"/  c #43CAC3",
"(  c #4BCEC6",
")  c #4CCFC8",
"_  c #55CEC7",
"`  c #5FCEC7",
"'  c #5ECFC9",
"]  c #45D3CB",
"[  c #4DD2CB",
"{  c #53D5CE",
"}  c #5AD5CE",
"|  c #5CD7D0",
" . c #5FD8D1",
".. c #6DC7C2",
"X. c #6CC9C4",
"o. c #72CBC5",
"O. c #70CEC8",
"+. c #7BCEC8",
"@. c #77D3CE",
"#. c #7BD2CD",
"$. c #61D7D0",
"%. c #63D9D3",
"&. c #6FDCD6",
"*. c #6DDCD5",
"=. c #69DAD4",
"-. c #70D9D3",
";. c #71DAD4",
":. c #72DAD4",
">. c #75DBD5",
",. c #70DDD6",
"<. c #70DDD7",
"1. c #75DED7",
"2. c #7CD9D3",
"3. c #77DFD8",
"4. c #77DFD9",
"5. c #78DFD9",
"6. c #79DFD9",
"7. c #7DE0DA",
"8. c #7EE0DA",
"9. c #80B4B0",
"0. c #80D6D1",
/* pixels */
"                                                                                                                                ",
"                                                                                                                                ",
"                                                                                                                                ",
"                                                                                                                                ",
"                                                                                                                                ",
"                                                                                                                                ",
"                                                                                                                                ",
"                                                                                                                                ",
"                                                                                                                                ",
"                                                                                                                                ",
"                                                                                                                                ",
"                                                                                                                                ",
"                                                                                                                                ",
"                                                                                                                                ",
"                                                            . .                                                                 ",
"                                                          . . . .                                                               ",
"                                                        O - 9 s j >                                                             ",
"                                                      . @ u G +.L , .                                                           ",
"                                                    + - t x V ' W D h >                                                         ",
"                                                  . # i c B Y ~ { 2.L 6 .                                                       ",
"                                                + = t x N C Y ! ] %.W D h >                                                     ",
"                                              . * i x B C C Y ! ! ! ) #.I 8 .                                                   ",
"                                            + * t x N C C C Y ! ] { %.*...D e >                                                 ",
"                                          . * i x B C C C C Y ! [ 6.7.{ ) O.P 0 .                                               ",
"                                        + * t x N C C C C C Y ! [ =.<. .} =.X.D e >                                             ",
"                                      . = i x B C C C C C C Y ! ^ ] { <.1.{ ) o.9.e .                                           ",
"                                    + # t x N C C C C C Y T / { { ] ] %.*.| } <.#.D 8 >                                         ",
"                                  . - i x B C C C C C C T [ %.7.4.{ ^ ] { *.4.%.{ ..P r .                                       ",
"                                O @ t c N C C C C C Y T / ) } -.;.%.{ ] ] %.*.{ ] %.@.D 6 >                                     ",
"                              . - u x B C C C C C C T [ ) ~ T R _ >.4.{ ^ ] [ ] ^ ] { Q L h .                                   ",
"                            . . 1 z v B B B B B B B S ( / Y C C / ;.6.{ ! ! ! ! ! ! ~ %.0.s .                                   ",
"                            . . 1 z x v v v v v v v N A T Y C C T } $./ Y Y Y Y Y Y T [ ` a .                                   ",
"                              . - y p z z z z z z z v N B C Y T / ) ( T C C C C U Y T V n q .                                   ",
"                                o @ 5 z z z z z z z x v M C T ( ) / T Y C C C C Y ~ R d : $                                     ",
"                                  . = y p z z z z z z z v N A ( ( T C C C C U Y Y V m q .                                       ",
"                                    O @ 5 l z z z z z z x v N A T Y C C C C Y ~ K f 2 ;                                         ",
"                                      . = y k z z z z z z z v B C C C C Y Y T Z m q X                                           ",
"                                        O # 5 k z z z z z z v B C C C C Y / J d 2 ;                                             ",
"                                          . * y k z z z z z v B C C U Y T J G 7 .                                               ",
"                                            + % 5 k z z z z v B C C Y ~ Z d 7 &                                                 ",
"                                              . % y k z z z v B U Y T K m 2 .                                                   ",
"                                                + * 5 k z z v B Y / H d 4 &                                                     ",
"                                                  . # y l z v B T E F < .                                                       ",
"                                                    O = 5 p M S V g q $                                                         ",
"                                                      . @ y b J n : .                                                           ",
"                                                        O = 3 w q $                                                             ",
"                                                          . . . .                                                               ",
"                                                                                                                                ",
"                                                                                                                                ",
"                                                                                                                                ",
"                                                                                                                                ",
"                                                                                                                                ",
"                                                                                                                                ",
"                                                                                                                                ",
"                                                                                                                                ",
"                                                                                                                                ",
"                                                                                                                                ",
"                                                                                                                                ",
"                                                                                                                                ",
"                                                                                                                                ",
"                                                                                                                                ",
"                                                                                                                                ",
"                                                                                                                                ",
"                                                                                                                                "
};
