/* XPM */
static char *be95983c12db49d5deaf2ce82f7cfb74nriUK3Izk6HwyyBS[] = {
/* columns rows colors chars-per-pixel */
"64 64 158 2 ",
"   c None",
".  c #040305",
"X  c #050609",
"o  c #08050D",
"O  c #010C0E",
"+  c #0B0A0C",
"@  c #040E11",
"#  c #0E0B12",
"$  c #0F0A19",
"%  c #120F15",
"&  c #130D1C",
"*  c #041214",
"=  c #0E1116",
"-  c #02161B",
";  c #0F151C",
":  c #03191D",
">  c #0D1A1F",
",  c #131016",
"<  c #131118",
"1  c #140D20",
"2  c #0E1420",
"3  c #011E23",
"4  c #0D1D22",
"5  c #221F20",
"6  c #042127",
"7  c #082127",
"8  c #04252B",
"9  c #0B242A",
"0  c #07282E",
"q  c #09292E",
"w  c #082A2F",
"e  c #092A2F",
"r  c #08282D",
"t  c #09292E",
"y  c #152123",
"u  c #1F2426",
"i  c #102629",
"p  c #1D2729",
"a  c #10282B",
"s  c #1A2A2C",
"d  c #062930",
"f  c #062A30",
"g  c #072A30",
"h  c #062A31",
"j  c #062B31",
"k  c #072B31",
"l  c #062B32",
"z  c #072B32",
"x  c #062C32",
"c  c #072C33",
"v  c #072E35",
"b  c #072B31",
"n  c #082D33",
"m  c #0D2E33",
"M  c #082D34",
"N  c #082E35",
"B  c #082F35",
"V  c #0A2E34",
"C  c #172E31",
"Z  c #0F3236",
"A  c #0E3035",
"S  c #0F353A",
"D  c #0B343C",
"F  c #0E383E",
"G  c #103136",
"H  c #103236",
"J  c #103237",
"K  c #103337",
"L  c #113337",
"P  c #103237",
"I  c #113338",
"U  c #113438",
"Y  c #103439",
"T  c #113439",
"R  c #123438",
"E  c #13363A",
"W  c #13363B",
"Q  c #13373B",
"!  c #14363A",
"~  c #14363B",
"^  c #14373B",
"/  c #15373B",
"(  c #10373D",
")  c #123539",
"_  c #15383B",
"`  c #10383D",
"'  c #11383D",
"]  c #11383E",
"[  c #133A3F",
"{  c #14383C",
"}  c #16393D",
"|  c #173A3E",
" . c #173B3E",
".. c #173A3F",
"X. c #173B3F",
"o. c #173C3F",
"O. c #173A3E",
"+. c #183B3E",
"@. c #183B3F",
"#. c #193A3E",
"$. c #232627",
"%. c #252728",
"&. c #2D2B2B",
"*. c #24393C",
"=. c #0F3B43",
"-. c #0F3A41",
";. c #133B40",
":. c #173B40",
">. c #133C41",
",. c #143C40",
"<. c #143C41",
"1. c #153C41",
"2. c #163C40",
"3. c #173C40",
"4. c #173C41",
"5. c #173D41",
"6. c #173D42",
"7. c #173E42",
"8. c #173E43",
"9. c #173F43",
"0. c #133E45",
"q. c #173F44",
"w. c #153D43",
"e. c #183C40",
"r. c #183D41",
"t. c #193E42",
"y. c #273E42",
"u. c #283E42",
"i. c #174044",
"p. c #174045",
"a. c #174145",
"s. c #174146",
"d. c #174246",
"f. c #174247",
"g. c #174145",
"h. c #184044",
"j. c #184045",
"k. c #184045",
"l. c #134149",
"z. c #134249",
"x. c #12424A",
"c. c #144148",
"v. c #174348",
"b. c #15454D",
"n. c #16454C",
"m. c #16454D",
"M. c #17464D",
"N. c #16464E",
"B. c #17464E",
"V. c #17474F",
"C. c #17464D",
"Z. c #1A444A",
"A. c #17484F",
"S. c #17484F",
"D. c #174950",
"F. c #174951",
"G. c #184850",
"H. c #234348",
/* pixels */
"                                                                                                                                ",
"                                                        . . . . . . . .                                                         ",
"                                                  . . o & & & & & & & $ X . .                                                   ",
"                                              . o & & & & < < , , < & 1 & & $ . .                                               ",
"                                          . o & & , < < & & , , , & & < < < & & $ . .                                           ",
"                                      . o & & & , , , , & & % % % % & , , , , & 1 & $ . .                                       ",
"                                    o & & < < & & % % % # X X X X X + % % % & & < < & & $ X                                     ",
"                                  o & & < , , , & $ X X @ 3 3 3 3 3 - X X + & % , , , & 1 $ X                                   ",
"                                o & < & & % % # X @ 3 3 3 8 6 6 6 6 6 3 3 - X + % % & & < & $ X                                 ",
"                              o & , , , & $ X @ 3 3 6 6 j c.! ! ! ! H 6 8 6 3 - X + & < , , & $ X                               ",
"                            o & < , , , # @ 3 3 6 0 { S M B.{ { +.r.E j l.] 8 6 3 - + % , , , & $ .                             ",
"                            o 1 & , , # @ 3 6 0 E _ r.] M B.{ { { +.E j D.a.3.H 8 6 - + % , & & & .                             ",
"                          o & < & & # @ 3 x l.3.{ { 3.] M B.:.{ { { E j B.3.a.3.3.( 6 - + % & & & $ .                           ",
"                          o & , , # O 3 6 v D.a.{ 3.a.] M B.{ { { { E j B.3.a.a.c.>.6 6 - + < , < & .                           ",
"                        o & , , , + O r m M D.a.3.3.a.E M B.r.3.3.{ E j B.:.3.a.a.;.j -.3 + , , , & $ .                         ",
"                        o & , , # O 3 e H M B.3.a.3.h.I M B.3.a.a.{ E j B.{ 3.a.a.E j l.8 - + , , < & .                         ",
"                      o & & & & + O r ! H M B.r.a.3.h.I M B.3.a.a.{ E j B.{ 3.a.a.E j B.E 3 + , & & & $ .                       ",
"                      o & , < # O 3 e +.H M B.3.a.a.h.I M B.3.a.a.{ E j B.{ { 3.h.E j B.{ 6 - + < & < & .                       ",
"                      o & , , + O r ! +.H M B.{ 3.a.r.H M B.3.a.a.{ E j B.e.{ 3.a.E g B.{ H 3 + , , < & .                       ",
"                      o & , , + O e { +.H M B.{ 3.a.{ H M B.3.a.a.{ E j B.{ { 3.a.] j B.r.! 3 + , , < & .                       ",
"                    o & & , # O 3 e { { H M B.{ 3.q.{ H M B.3.a.3.3.E j B.{ { r.a.;.j B.r.! 6 - + , , & $ .                     ",
"                    o 1 & & $ O j 0.{ { H M B.+.{ { { H n A.a.a.3.a.E j B.{ { 3.a.;.j B.3.{ A 3 + & & & & .                     ",
"                    o & & & # O M B.{ +.H A B.{ { { { H n D.a.3.r.h.E g B.{ { 3.a.;.j B.3.{ ! 3 + & & & & .                     ",
"                    o & , , + O M B.{ { H M B.+.+.+.{ H x B.a.{ @.q.E j B.{ { { 3.E j B.{ { E 3 + , , < & .                     ",
"                    o & , , ; 3 8 n 0 e r 8 n e e e e r 8 n g e 0 g r 8 x e e e e r 8 x e e r 6 : < , < & .                     ",
"                    o & , ; e l.0.0.0.0.0.0.0.0.l.l.0.0.0.0.0.0.0.0.0.0.0.0.0.0.0.0.0.0.0.0.0.l.-.4 , < & .                     ",
"                    o 1 & 2 M G.a.h.t.y.h.a.a.a.k.y.h.h.a.a.a.t.y.h.a.a.a.a.t.y.h.a.a.a.t.y.h.h.;.6 & & & .                     ",
"                    o & & ; M B.+.+.+.#.{ { { { +.#.{ +.{ { { +.#.{ { { { { +.#.{ { { { +.#.+.{ E 6 < & & .                     ",
"                    o & , < 4 g 0 0 0 0 0 0 0 0 0 0 0 0 0 0 0 0 0 0 0 0 0 0 0 0 0 0 0 0 0 0 0 0 9 < , < & .                     ",
"                    o & , , # * 3 3 3 3 3 3 6 3 3 3 3 3 3 3 3 3 3 3 3 3 3 3 3 3 3 3 3 3 3 3 3 3 @ , , < & .                     ",
"                    o & , , + O j ;.H H n j >.E H H H m 0 >.( H H E D 0 ;.I H H H m r -.E E A 3 + , , < & .                     ",
"                    o 1 & & $ O M B.+.+.H M D.a.r.{ e.I M D.h.+.+.r.;.j B.r.{ { +.E j B.r.h.{ 3 + & & & & .                     ",
"                    o & & & # O M B.{ +.H M B.3.a.{ { U n D.a.3.{ r.] j B.{ { { { ! g B.a.a.;.3 + & & & & .                     ",
"                    o & , , + O M B.R s H M B.3.a.{ { H n A.q.a.3.a.] j B.{ { { { ! g D.a.3.>.3 + , , < & .                     ",
"                    o & , , + O M q.u %.y M B.3.a.3.{ U M B.3.a.3.a.E j B.{ { 3.r.! g D.a.3.>.3 + , , < & .                     ",
"                    o & , , + O M { 5 &.< M B.{ 3.a.{ U M B.3.a.a.a.E j B.{ 3.a.{ ! g D.a.3.>.3 + , , < & .                     ",
"                    o 1 & & $ O M c.s u a M B.{ 3.h.r.I M B.3.3.a.a.E j B.{ 3.a.{ E j B.a.3.>.3 X & & & & .                     ",
"                    o & & & # O M B.C y H M B.{ r.h.h.I M B.{ 3.a.a.E j B.{ 3.a.{ E j B.a.a.>.3 X & & & & .                     ",
"                    o & , , + O M B.C y H M B.{ +.r.h.I M B.{ 3.a.a.E j B.{ 3.a.{ E j B.c.a.] 3 + , , < & .                     ",
"                    o & , , + O M B.C y H M B.{ { r.h.I M B.{ 3.a.a.E j B.{ 3.a.{ E j B.a.a.E 3 + , , < & .                     ",
"                    o & , , + O M B.C y H M B.{ { 3.a.E M B.{ 3.a.a.E j B.{ 3.a.{ E j B.3.a.E 3 + , , < & .                     ",
"                    o 1 & & # O M B.C y H M B.{ { { q.] M B.{ 3.a.a.E j B.3.q.a.3.E j B.3.a.] 3 + & & & & .                     ",
"                    o 1 & & # O M q.p %.i M B.{ { { r.] M B.{ 3.a.a.E j B.3.a.a.a.! g B.3.a.>.3 + & & & & .                     ",
"                    o & , , + O M { 5 &.< M B.{ { { r.] M B.+.r.a.a.E j B.3.a.a.a.! g B.3.a.{ 3 + , , < & .                     ",
"                    o & , , + O M a.p $.i M B.{ { { r.] M B.{ r.3.3.E j B.3.a.3.a.E j B.3.a.! 3 + , , < & .                     ",
"                    o & , , + O M B.! C H M B.{ { { r.] M B.{ +.{ { E j B.a.a.3.a.E j B.3.3.! 3 + , , < & .                     ",
"                    o 1 & & # O M B.e.+.H M B.{ +.+.r.] M B.{ { { { E j A.a.3.3.a.E j B.3.{ E 3 + & & & & .                     ",
"                    o 1 & & # O M B.+.{ H M B.+.+.+.r.] M B.{ { { { E j D.a.{ 3.a.] j B.:.{ E 3 + & & & & .                     ",
"                    o & , , + O M B.+.+.H M B.+.{ 3.r.E M B.@.{ { +.E j D.a.3.3.q.3.j B.r.+.! 3 + , , < & .                     ",
"                    o & , , = - r D m m e r D m m m A e r D m m m m e r A A A m m n 8 A m m g 3 - , , < & .                     ",
"                    o & , < 9 D D D D D D D D D D D D D D D D D D D D D D D D D D D D D D D D D D 4 , < & .                     ",
"                    o 1 & ; M D.n.n.Z.H.Z.n.n.n.Z.H.Z.n.n.n.n.Z.H.Z.n.n.n.n.Z.H.Z.n.n.n.Z.H.Z.Z.0.7 < & & .                     ",
"                    o 1 & ; M B.+.{ #.*.+.{ { { #.*.+.{ { { { #.*.+.{ { { { +.*.+.{ { { +.*.+.+.E 7 < & & .                     ",
"                    o & , < 9 S m m m m m m m m m m m m m m m m m m m m m m m m m m m m m m m m m > , < & .                     ",
"                    o & , , = - 3 3 3 3 3 3 3 3 3 3 3 3 3 3 3 3 3 3 3 3 3 3 3 3 3 3 3 3 3 3 3 3 * , , < & .                     ",
"                    o & , , + O r A M M 0 r A n n M n e r A n n M n e 8 A n M n M e 8 A n n g 3 + , , < & .                     ",
"                    o 1 & & # O M A.a.h.H M B.{ 3.a.+.H M B.r.r.a.r.E j B.3.a.3.a.E j B.r.+.! 3 + & & & & .                     ",
"                    o 1 & & # O M B.3.a.H M B.{ 3.a.{ H M B.3.a.q.a.E j B.3.3.q.a.E j B.3.{ ! 3 + & & & & .                     ",
"                    o & , , + O M B.3.a.E M B.3.3.3.{ H M B.3.q.3.a.E j B.{ 3.a.3.E j B.3.{ E 3 + , , < & .                     ",
"                    o & , , + O M B.3.a.( M B.3.a.{ { H n B.q.a.3.a.E j B.{ { 3.{ E j B.3.{ E 3 + , , < & .                     ",
"                    o & , , + O M B.+.r.E M A.r.3.{ +.I M D.a.3.r.h.] x B.r.{ +.+.E j B.r.+.! 3 + , , < & .                     ",
"                    o # + + X X 6 D A A 9 6 F D A A A e 3 F S A A A n 3 D A A A A e 3 D A A e * . + + + # .                     ",
"                      . . . . . * 6 6 6 : O 6 6 6 6 6 : O 6 6 6 6 6 : O 6 6 6 6 6 3 O 6 6 6 3 X . . . .                         ",
"                                                                                                                                "
};
