/* XPM */
static char *_fe077a5277f4682a81eacbb38dd7d3d1Ozp2CesUqnS4fzW[] = {
/* columns rows colors chars-per-pixel */
"64 64 148 2 ",
"   c None",
".  c #060506",
"X  c #060509",
"o  c #08070B",
"O  c #05090A",
"+  c #0A090C",
"@  c #0A0711",
"#  c #0E0A14",
"$  c #0F0B18",
"%  c #110E14",
"&  c #130E1C",
"*  c #061113",
"=  c #081116",
"-  c #01171B",
";  c #0B161C",
":  c #02181C",
">  c #09191E",
",  c #131016",
"<  c #131019",
"1  c #140E20",
"2  c #0A1721",
"3  c #041D22",
"4  c #0A1B21",
"5  c #022127",
"6  c #0C2226",
"7  c #04252B",
"8  c #09252A",
"9  c #06282E",
"0  c #092A2F",
"q  c #1B2324",
"w  c #172729",
"e  c #17292C",
"r  c #072B32",
"t  c #092C32",
"y  c #182D30",
"u  c #112E39",
"i  c #0D3035",
"p  c #0C353B",
"a  c #0E3439",
"s  c #0C363D",
"d  c #0D363D",
"f  c #0E363C",
"g  c #0C363E",
"h  c #0D373F",
"j  c #0E373E",
"k  c #0F373F",
"l  c #0C353C",
"z  c #0F383E",
"x  c #133236",
"c  c #1A3337",
"v  c #103439",
"b  c #14373B",
"n  c #13363A",
"m  c #1C3639",
"M  c #13383D",
"N  c #10393F",
"B  c #13393E",
"V  c #143A3E",
"C  c #143A3F",
"Z  c #153B3F",
"A  c #14393E",
"S  c #1B3A3D",
"D  c #242426",
"F  c #292626",
"G  c #212E39",
"H  c #21333C",
"J  c #243A3C",
"K  c #0E3940",
"L  c #0E3A41",
"P  c #183743",
"I  c #183641",
"U  c #133B40",
"Y  c #113C42",
"T  c #133C42",
"R  c #133D43",
"E  c #143D42",
"W  c #173E42",
"Q  c #173E43",
"!  c #103D45",
"~  c #103E46",
"^  c #113E46",
"/  c #113F46",
"(  c #113F47",
")  c #143F45",
"_  c #133D44",
"`  c #193941",
"'  c #1D3B46",
"]  c #1C3E46",
"[  c #1A3D42",
"{  c #1F3E48",
"}  c #1F3E49",
"|  c #1C3E4B",
" . c #213642",
".. c #203E49",
"X. c #213F4B",
"o. c #223F4C",
"O. c #213F4B",
"+. c #114047",
"@. c #174146",
"#. c #174147",
"$. c #164147",
"%. c #184247",
"&. c #194046",
"*. c #134149",
"=. c #134249",
"-. c #13424A",
";. c #15424B",
":. c #16444B",
">. c #17454B",
",. c #13444C",
"<. c #13454D",
"1. c #15454D",
"2. c #16454C",
"3. c #17454C",
"4. c #17464C",
"5. c #16464E",
"6. c #16474E",
"7. c #14444B",
"8. c #18444E",
"9. c #19444F",
"0. c #194248",
"q. c #17484F",
"w. c #154750",
"e. c #1A4752",
"r. c #154851",
"t. c #164A52",
"y. c #164A53",
"u. c #164B53",
"i. c #164B54",
"p. c #174C54",
"a. c #174C55",
"s. c #174D55",
"d. c #174D56",
"f. c #174D56",
"g. c #1D4853",
"h. c #194A54",
"j. c #194B55",
"k. c #1B4A55",
"l. c #1D4955",
"z. c #1E4855",
"x. c #1F4855",
"c. c #1D4A56",
"v. c #1D4955",
"b. c #20404B",
"n. c #21414E",
"m. c #204451",
"M. c #214754",
"N. c #214755",
/* pixels */
"                                                                                                                                ",
"                                                        . . . . . . : 7 7 7 7                                                   ",
"                                                    . . # & $ & $ ; a ;.I t R t                                                 ",
"                                                . @ & & & & < < 4 s j.M.` r 1.i 7                                               ",
"                                            o @ & & , , & & < 4 s i.M.g.A r 1.a p s                                             ",
"                                        o o & & & & , , # # # t u.j.| 9.A r 1.a s #.9                                           ",
"                                      o & & , , , & # + . . O r a.M.u ! A r 1.a s #.8 @                                         ",
"                                    o & & & , , % o o . . O > ! a.M.u ! E r 1.a s #.9 4 @                                       ",
"                                  o & < , & & o . . . . . O 9 u.a.M.u ! ) r 1.a s #.9 3 < #                                     ",
"                                o & < , , % o . . . . . . O t u.l.b.t ! ) r 1.a s :.9 5 < & @                                   ",
"                                o & & , % o . . . . . . o 3 -.a.l...t ! ) r 1.i s 1.r K 8 & # .                                 ",
"                              . & , & % o . . . . . . . O 5 u.a.l...t ! ) r :.i s 1.r ! 8 , & @                                 ",
"                              o & , , + . . . . . . . . o 5 w.a.l...t ! ) r :.i s 1.r ! 8 , & # o                               ",
"                            . & , , % o . . . . . . . . * i u.j.m.] r ! ) r 1.i s 1.r ! t ; , & o                               ",
"                            @ & & & + . . . . . . . . o 3 <.a.l...E t ! E r 1.a s 1.r -.M 4 & & # o                             ",
"                          . $ < & # . . . . . . . . . o 3 <.a.l...E t ! A r 1.a s 1.r -.U 4 & < & o                             ",
"                          . $ % , + . . . . . . . . . o 3 <.a.l.o.E t ! A r 1.a s 1.r -.R : + , & o                             ",
"                          . $ & , + . . . . . . . . . o 3 <.a.9.' n t ! A r 1.i s :.r -.R : o , & o                             ",
"                          # & & # . . . . . . . . X X o 3 <.+.t t r 7 s n r 1.i s #.t -.M : o & & & o                           ",
"                        . # & & # . . . . . . . X X X o 3 ! i 1.:.:.s t r 9 M 0 s &.t -.M : o & & & X                           ",
"                        . # & , # . . . . . . . . . . o 3 ! t 1.[ S &.:.;.p p r r p 9 ;.M : o , , & X                           ",
"                        . # & , # . . . . . . . . . . o 3 -.K p t c S S J 0.:.! s l 9 i r - o , , & X                           ",
"                        . # & % # . . . . . . . . . . o 3 <.u.p 5 7 t t m S S J ;.&.R K l 3 = , , & X                           ",
"                        . # & & # . . . . . . . . . . o 3 <.a.e.I 0 5 5 9 9 t b A J ] &.&.s 4 & & & X                           ",
"                        . # & & # . X X . . . . . . . o 3 <.a.l.n.` r s 9 5 7 7 7 x b b J n 4 & & & X                           ",
"                        . # & , # . X X . . . . . . . o 3 <.a.l.n.E t ! M t K 5 5 7 5 7 n t ; , , & X                           ",
"                        . # < , # . X X . . . . . . . o 3 <.a.l.n.E r ! ` r :.t p a 5 9 5 : + , , & X                           ",
"                        . # & & # . X X . . . . . . . o 3 <.a.l.n.E r ! A r :.i s #.t ! r - o & & & X                           ",
"                        . # & & # . . . . . . . . . . o 3 <.a.l.n.c 8 ! A r 1.i s #.t -.M : o & & & X                           ",
"                        . # < , # . . . . . . . . . . o 3 <.a.l. .D q ) ` r 1.a s #.t -.M : o , , & X                           ",
"                        . # & , # . . . . . . . . . . o 3 <.a.l.G F D ` ` r 1.a s #.t -.R : o , , & X                           ",
"                        . # & , # . . . . . . . . . . o 3 <.a.l.H D D ` ` r 1.a s #.t -.R : o , , & X                           ",
"                        . # 1 & $ . . . . . . . . . . o 3 <.a.l...w 4 ! ) r 1.a s :.r -.R : o & & & X                           ",
"                        . # & , # . . . . . . . . . . o 3 <.a.l.n.w 4 -.) r 1.p s 1.r -.R : o , < & X                           ",
"                        . # & , # . . . . . . . . . . o 3 <.a.l.n.e 4 -.) t :.i s 1.r -.R : o , , & X                           ",
"                        . # & , # . . . . . . . . . . o 3 <.a.l.n.e 4 -.) t :.i s :.r -.M : o , , & X                           ",
"                        . # & & # . . . . . . . . . . o 3 <.a.l.n.w 4 -.) r 1.i s #.t -.U : o & & & X                           ",
"                        . # & & # . . . . . . . . . . o 3 <.a.l...w 4 +.) r 1.a s #.t -.R : o & & & X                           ",
"                        . # < , # . . . . . . . . . . o 3 <.a.l.H D q E ) r 1.a s #.t -.R : o , , & X                           ",
"                        . # & , # . . . . . . . . . . o 3 <.a.l.G F D ` E r 1.a s :.r -.R : o , , & X                           ",
"                        . # & < # . . . . . . . . . . o 3 <.a.l.H D q ` ` r 1.p s 1.r -.R : o & & & X                           ",
"                        . # & & # . . . . . . . . . . o 3 <.a.l...y 6 ! A r 1.i s :.r -.M : o & & & X                           ",
"                        . # & , # . . . . . . . . . . o 3 <.a.l...E r ! E r :.i s #.t -.M : o , , & X                           ",
"                        . # & , # . . . . . . . . . . o 3 <.a.l.n.#.t ! ) t :.i s #.t +.t 3 = , , & X                           ",
"                        . # & , # . . . . . . . . . . o 3 <.a.l.n.) r ! ) t :.i s z 7 i K p 3 ; , & X                           ",
"                        . # & & # . . . . . . . . . . o 3 <.a.l.n.E t ! ` r ! 9 r K ! ! &.E r 2 & & X                           ",
"                        . # & < # . . . . . . . . . . o 3 <.a.l.n.E 0 K i 9 p -.-.Q [ [ J A t ; & & X                           ",
"                        . # & , # . . . . . . . . . . o 3 <.i.;.' i r t ! ;.#.[ [ J m n x 7 > , , & X                           ",
"                        . # < % # . . . . . . . . . . o 3 -.! i t U 1.;.] [ S H x x 9 5 5 - + , , & X                           ",
"                        . # & & # . . . . . . . . . . o 3 ! t 1.:.] S S J x i 0 5 5 5 r 9 - o & & & X                           ",
"                        . # & & # . . . . . . . . . . . 3 ! t 1.A J c t r 5 3 3 r t 9 -.U : o & & & X                           ",
"                        . # & , # . . . . . . . . . . o 3 -.K p r r 7 3 3 7 s t s :.r -.R : o , , & X                           ",
"                        . # < , # . . . . . . . . . . o 3 <.u.s 5 5 5 s i r q.a s 1.r -.M : o , , & X                           ",
"                          # % % + . . . . . . . . . . . 3 <.a.e.' M 0 +.) r 1.a s 1.r -.M : o % % & o                           ",
"                          . . . . . . . . . . . . . . . 3 <.a.l.n.#.r ! ) t 1.i s :.r -.n : . . . .                             ",
"                                                        7 <.a.l.o.E t ! ) t :.i s #.0 s t                                       ",
"                                                        7 <.a.l...E t ! ) t :.i s R 9 7                                         ",
"                                                        7 <.a.l...E t ! E r :.i r t                                             ",
"                                                        7 <.a.l...E r ! A r +.t                                                 ",
"                                                        7 <.a.l...A t ! A 9 t                                                   ",
"                                                        7 <.a.l.o.S t K i                                                       ",
"                                                        7 <.a.l.n.A 0 9                                                         ",
"                                                        7 ! -.;.` t                                                             ",
"                                                          7 7 7 7                                                               "
};
