/* XPM */
static char *bc464c8d007c4a3c87dcff80b7defaad8mWnRAGnvWppigNk[] = {
/* columns rows colors chars-per-pixel */
"64 64 218 2 ",
"   c black",
".  c #000101",
"X  c #010100",
"o  c #010101",
"O  c #050501",
"+  c #040E10",
"@  c #081C21",
"#  c #081B21",
"$  c #091B1F",
"%  c #141809",
"&  c #171803",
"*  c #0E1A15",
"=  c #081B22",
"-  c #0F1A14",
";  c #141503",
":  c #030300",
">  c #061418",
",  c #0D1A16",
"<  c #091B1E",
"1  c #141808",
"2  c #101102",
"3  c #010405",
"4  c #07191D",
"5  c #171802",
"6  c #13190A",
"7  c #0A1B1E",
"8  c #151807",
"9  c #0B0B01",
"0  c #03090B",
"q  c #081B20",
"w  c #070701",
"e  c #061317",
"r  c #0B262D",
"t  c #0C252A",
"y  c #1B220C",
"u  c #202004",
"i  c #13241D",
"p  c #0A262E",
"a  c #14231B",
"s  c #1F2004",
"d  c #202104",
"f  c #1C1D04",
"g  c #040400",
"h  c #13241E",
"j  c #1C210C",
"k  c #0D252A",
"l  c #1C210B",
"z  c #161703",
"x  c #020506",
"c  c #0A2228",
"v  c #13241C",
"b  c #202003",
"n  c #1B220D",
"m  c #0C252B",
"M  c #0D2529",
"N  c #1D210A",
"B  c #0F0F02",
"V  c #040D0F",
"C  c #0B252C",
"Z  c #12241E",
"A  c #061316",
"S  c #1B210C",
"D  c #1F2003",
"F  c #13231D",
"G  c #0A252D",
"H  c #1B1C04",
"J  c #0B252D",
"K  c #12231E",
"L  c #0C2529",
"P  c #0A2128",
"I  c #13231C",
"U  c #1A210D",
"Y  c #0D2528",
"T  c #1C210A",
"R  c #040C0F",
"E  c #040F12",
"W  c #091E24",
"Q  c #091E23",
"!  c #0A1D21",
"~  c #151A0A",
"^  c #191903",
"/  c #0F1C17",
"(  c #081E24",
")  c #101C15",
"_  c #191A03",
"`  c #06161A",
"'  c #0F1C18",
"]  c #161A09",
"[  c #111202",
"{  c #0F1C16",
"}  c #151A0B",
"|  c #091D22",
" . c #0A1D20",
".. c #161A08",
"X. c #0C0C02",
"o. c #030A0C",
"O. c #091D23",
"+. c #0E1C18",
"@. c #010202",
"#. c #020201",
"$. c #020200",
"%. c #010201",
"&. c #020100",
"*. c #000102",
"=. c #010203",
"-. c #010303",
";. c #010304",
":. c #000001",
">. c #000202",
",. c #020302",
"<. c #091F25",
"1. c #020608",
"2. c #151603",
"3. c #1A1B03",
"4. c #121D13",
"5. c #051216",
"6. c #020708",
"7. c #030B0D",
"8. c #0B232A",
"9. c #020809",
"0. c #07171C",
"q. c #162317",
"w. c #07161A",
"e. c #03090A",
"r. c #0B242B",
"t. c #040D10",
"y. c #0A232A",
"u. c #07171B",
"i. c #1A1A03",
"p. c #152217",
"a. c #0B242A",
"s. c #0B262E",
"d. c #162318",
"f. c #07161B",
"g. c #081A1F",
"h. c #07181D",
"j. c #051013",
"k. c #061519",
"l. c #121202",
"z. c #161603",
"x. c #161602",
"c. c #0F1810",
"v. c #050F12",
"b. c #020607",
"n. c #020507",
"m. c #010506",
"M. c #030505",
"N. c #020709",
"B. c #051114",
"V. c #151503",
"C. c #1D1D04",
"Z. c #10201C",
"A. c #0A2229",
"S. c #07181C",
"D. c #090A01",
"F. c #0A2127",
"G. c #12241F",
"H. c #051215",
"J. c #0A0B01",
"K. c #010505",
"L. c #171703",
"P. c #12231F",
"I. c #02080A",
"U. c #1F2104",
"Y. c #0D0E02",
"T. c #121302",
"R. c #121303",
"E. c #0A1512",
"W. c #061417",
"Q. c #060601",
"!. c #070801",
"~. c #050806",
"^. c #070802",
"/. c #03080A",
"(. c #1E1F04",
"). c #1E1F03",
"_. c #142117",
"`. c #0A242B",
"'. c #081D22",
"]. c #1B1F09",
"[. c #0C2326",
"{. c #0A242A",
"}. c #152318",
"|. c #152319",
" X c #0E0F02",
".X c #0A100B",
"XX c #051115",
"oX c #010404",
"OX c #040E11",
"+X c #0D0F05",
"@X c #061113",
"#X c #040D0E",
"$X c #090B04",
"%X c #060C0A",
"&X c #070C09",
"*X c #080801",
"=X c #030B0E",
"-X c #070C0A",
";X c #090B05",
":X c #0A0B03",
">X c #12231D",
",X c #0C2429",
"<X c #1B210B",
"1X c #0D2428",
"2X c #0B252B",
"3X c #090C04",
"4X c #0A0A01",
"5X c #030A0B",
"6X c #0A0C04",
"7X c #030C0E",
"8X c #090C05",
"9X c #050D0E",
"0X c #152116",
"qX c #0A1412",
"wX c #06151A",
"eX c #1D1E04",
"rX c #030400",
"tX c white",
/* pixels */
"                                                                                                                                ",
"    . . . . . . . X X o . o X X X X     . . . . o X X . . X X X X X X X     . . . . . . o X X . . X X X X       . . . . X X o . ",
"O   + @ # # # # $ % & * = - & & & ; : . > @ # # , & % $ < 1 & & & & & 2   3 4 @ # # # # * 5 6 $ 7 8 & & & 9   0 q # # $ % & , # ",
"w   e r r r r r t y u i p a u s d f g . @ r r r h u j t k l u s s s d z   x c r r r r r v b n m M N u s d B   V C r r t j u Z r ",
"w   A r C C C C t S D F G a s s s H g . q r C J K s S t L l s s s s d z   x P C C C C J I D U m Y T s s s B   R C C C L S s K J ",
"w   A r C C C C t S D F G a s s s H g . q r C J K s S t L l s s s s d z   x P C C C C J I D U m Y T s s s B   R C C C L S s K J ",
"w   A r C C C C t S D F G a s s s H g . q r C J K s S t L l s s s s d z   x P C C C C J I D U m Y T s s s B   R C C C L S s K J ",
"w   e r J J J J t S u i p a u s d f g . # r J r Z u S t k l u s s s d z   x c r J J J r I b n m M N u s d B   V C J J t S u Z r ",
"O   E W Q Q Q Q ! ~ ^ / ( ) _ _ _ z : . ` W Q W ' _ ] ! ! ] _ _ _ _ _ [   3 q Q Q Q Q W { ^ } |  ..._ _ _ X.  o.O.Q Q ! ] _ +.( ",
"    . @.@.@.@.@.@.#.$.@.@.%.$.$.$.&.    *.@.@.@.%.$.#.@.@.%.$.$.$.$.$.X     @.@.@.@.@.@.%.$.#.@.@.$.$.$.$.X   . @.@.@.@.$.$.@.=.",
"-.;.-.-.-.-.-.-.-.:.  >.-.-.-.-.-.-.;.-.-.-.-.-.-.;.=.    $.$.$.$.,.;.-.;.-.-.-.-.-.-.-.>.  . -.-.-.-.-.-.-.;.-.-.-.-.-.-.-..   ",
"<.<.<.<.<.<.<.<.O.1.  e <.<.<.<.<.<.<.<.<.<.<.<.<.<.4 >.$.2.3.3.3.4.<.<.<.<.<.<.<.<.<.<.5.  6.O.<.<.<.<.<.<.<.<.<.<.<.<.<.<.7.  ",
"C C C C C C C r 8.9.  0.r C C C C C C C C C C C C r W =.$.3.d s b q.J C C C C C C C C r w.  e.r.J C C C C C C C C C C C C C t.  ",
"C C C C C C C C y.9.  u.r C C C C C C C C C C C C J Q =.$.i.s s D p.J C C C C C C C C r w.  e.8.C C C C C C C C C C C C C C t.  ",
"C C C C C C C C y.9.  u.r C C C C C C C C C C C C J Q =.$.i.s s D p.J C C C C C C C C r w.  e.8.C C C C C C C C C C C C C C t.  ",
"C C C C C C C C y.9.  u.r C C C C C C C C C C C C J Q =.$.i.s s D p.J C C C C C C C C r w.  e.8.C C C C C C C C C C C C C C t.  ",
"r r r r r r r r a.9.  0.s.r r r r r r r r r r r r r W =.$.3.d d b d.r r r r r r r r r s.f.  e.r.r r r r r r r r r r r r r r t.  ",
"g.g.g.g.g.g.g.g.h.x   j.g.g.g.g.g.g.g.g.g.g.g.g.g.g.k.*.$.l.z z.x.c.g.g.g.g.g.g.g.g.g.g.v.  b.4 g.g.g.g.g.g.g.g.g.g.g.g.g.g.0   ",
". . :.                              . . :.:.:.:.:.:.:.                  . .                               :.. . :.:.:.:.:.:.    ",
".   -.b.n.n.n.n.n.b.b.n.n.n.n.n.b.m..   : O O O O O O O O O O M.n.n.b.3   . m.b.n.n.n.n.n.b.b.n.n.n.n.n.b.-.  $.O O O O O O O O ",
"N.  B.c c c c c c c c c c c c c c Q 3 X V.C.f f f f f f f f f Z.A.c A.S.  m.W c c c c c c c c c c c c c c j.  D.f f f f f f f f ",
"9.  A r C C C C C C C C C C C C r F.m.X & d s s s s s s s s s G.J C r g.  x c J C C C C C C C C C C C C r H.  J.s s s s s s s s ",
"9.  A r C C C C C C C C C C C C C F.K.X L.s s s s s s s s s s P.J C r g.  x P C C C C C C C C C C C C C J H.  J.s s s s s s s s ",
"9.  A r C C C C C C C C C C C C C F.K.X L.s s s s s s s s s s P.J C r g.  x P C C C C C C C C C C C C C J H.  J.s s s s s s s s ",
"9.  A r C C C C C C C C C C C C C F.K.X L.s s s s s s s s s s P.J C r g.  x P C C C C C C C C C C C C C J H.  J.s s s s s s s s ",
"I.  e r r r r r r r r r r r r r r P m.X & d d d d d d d d d U.G.r r s.q   x c r r r r r r r r r r r r r r H.  9 s d d d d d d d ",
"m.  7.w.` ` ` ` ` ` ` ` ` ` ` ` ` e -.  Y.T.T.T.T.T.T.T.T.T.R.E.` ` w.v.  ;.W.` ` ` ` ` ` ` ` ` ` ` ` ` w.o.  Q.T.T.T.T.T.T.T.T.",
"                                                                                                                                ",
"!.!.~.0 e.e.e.0 I.@.  n.0 e.e.e.e.e.e.e.e.e.e.e.e.0 6.. X Q.!.!.!.!.!.!.!.^.e.0 e.e.e.0 x   @./.0 e.e.e.e.e.e.e.e.e.e.e.e.e.;.  ",
"(.)._.`.a.a.a.a.c N.  w.r.a.a.a.a.a.a.a.a.a.a.a.a.r.'.=.$.^ (.(.(.(.(.(.).].[.{.a.a.a.r.k.  I.c a.a.a.a.a.a.a.a.a.a.a.a.a.8.V   ",
"s D }.J C C C C y.9.  0.r C C C C C C C C C C C C r Q =.$.3.s s s s s s s T Y C C C C r w.  e.a.C C C C C C C C C C C C C C t.  ",
"s D }.J C C C C y.9.  u.r C C C C C C C C C C C C J Q =.$.i.s s s s s s s T Y C C C C r w.  e.8.C C C C C C C C C C C C C C t.  ",
"s D }.J C C C C y.9.  u.r C C C C C C C C C C C C J Q =.$.i.s s s s s s s T Y C C C C r w.  e.8.C C C C C C C C C C C C C C t.  ",
"s D }.J C C C C y.9.  u.r C C C C C C C C C C C C J Q =.$.i.s s s s s s s T Y C C C C r w.  e.8.C C C C C C C C C C C C C C t.  ",
"s b |.r J J J r 8.9.  0.r J J J J J J J J J J J J r W =.$.3.d s s s s s u T M J J J J r w.  e.r.r J J J J J J J J J J J J C t.  ",
" XB .XXXXXXXXXXXj.oX  7.H.XXXXXXXXXXXXXXXXXXXXXXXXXXOX. X X.B  X X X X XB +X@XXXXXXXXXH.o.  3 B.XXXXXXXXXXXXXXXXXXXXXXXXXXB.b.  ",
"                                                                                                                                ",
"$.  1.V V V V V #X$X9 %Xt.&X9 9 9 D.X   0 V V V %X9 $X#X#X$X9 9 9 9 9 *X  @.=XV V V V V -X9 ;XV #X:X9 9 9 O   3 V V V #X$X9 %XV ",
"w   A C C C C C t S D >XG a s s s H g . q C C C >Xs S ,X,X<Xs s s s s z.  x F.C C C C C I D U t 1XT s s s B   R r.C C ,XS s K J ",
"w   A r C C C C t S D F G a s s s H g . q r C J K s S t L l s s s s d z   x P C C C C J I D U m Y T s s s B   R C C C L S s K J ",
"w   A r C C C C t S D F G a s s s H g . q r C J K s S t L l s s s s d z   x P C C C C J I D U m Y T s s s B   R C C C L S s K J ",
"w   A r C C C C t S D F G a s s s H g . q r C J K s S t L l s s s s d z   x P C C C C J I D U m Y T s s s B   R C C C L S s K J ",
"w   A r C C C C t S D F G a s s s H g . q r C J K s S t L l s s s s d z   x P C C C C J I D U m Y T s s s B   R C C C L S s K J ",
"w   A C C C C C t S D >XG a s s s H g . q C C J >Xs S t ,X<Xs s s s s z.  x P C C C C J I D U t 1XT s s s B   R 2XC C L S s K J ",
"$.  6.t.V V V V V 3X9 %Xt.&X9 9 9 4XX   5Xt.V t.%X9 3XV #X6X9 9 9 9 9 *X  @.7Xt.V V V t.-X9 8XV 9X:X9 9 9 O   3 V V V V 6X9 %Xt.",
"                                                                                                                                ",
"B.B.B.B.B.B.B.B.j.oX  7.XXB.B.B.B.B.B.B.B.B.B.B.B.B.+ . X X. X X X.XB.B.B.B.B.B.B.B.B.XXo.  3 j.B.B.B.B.B.B.B.B.B.B.B.B.B.B.b.  ",
"C C C C C C C r 8.9.  0.r C C C C C C C C C C C C r W =.$.3.d s b q.J C C C C C C C C r w.  e.r.r C C C C C C C C C C C J C t.  ",
"C C C C C C C C y.9.  u.r C C C C C C C C C C C C J Q =.$.i.s s D p.J C C C C C C C C r w.  e.8.C C C C C C C C C C C C C C t.  ",
"C C C C C C C C y.9.  u.r C C C C C C C C C C C C J Q =.$.i.s s D p.J C C C C C C C C r w.  e.8.C C C C C C C C C C C C C C t.  ",
"C C C C C C C C y.9.  u.r C C C C C C C C C C C C J Q =.$.i.s s D p.J C C C C C C C C r w.  e.8.C C C C C C C C C C C C C C t.  ",
"C C C C C C C C y.9.  0.r C C C C C C C C C C C C r Q =.$.3.s s D p.J C C C C C C C C r w.  e.8.C C C C C C C C C C C C C C t.  ",
"a.a.a.a.a.a.a.r.c N.  w.r.a.a.a.a.a.a.a.a.a.a.a.a.r.| =.$.^ (.(.).0X`.a.a.a.a.a.a.a.a.r.k.  I.A.a.a.a.a.a.a.a.a.a.a.a.a.a.a.V   ",
"0 0 0 0 0 0 0 0 e.@.  b.0 0 0 0 0 0 0 0 0 0 0 0 0 0 N.. X Q.*X*X*X~.0 0 0 0 0 0 0 0 0 0 x   @.e.0 0 0 0 0 0 0 0 0 0 0 0 0 0 ;.  ",
"                                                                                                                                ",
"K.  7.` k.k.k.k.k.k.k.k.k.k.k.k.` e -.  Y.T.T.T.T.T.T.T.T.T.R.qXwXk.` E   ;.e ` k.k.k.k.k.k.k.k.k.k.k.k.` o.  Q.l.T.T.T.T.T.T.T.",
"I.  e r r r r r r r r r r r r r r P m.X & d d d d d d d d d U.G.r r r q   x c r r r r r r r r r r r r r r H.  9 s d d d d d d d ",
"9.  A r C C C C C C C C C C C C C F.K.X L.s s s s s s s s s s P.J C r g.  x P C C C C C C C C C C C C C J H.  J.s s s s s s s s ",
"9.  A r C C C C C C C C C C C C C F.K.X L.s s s s s s s s s s P.J C r g.  x P C C C C C C C C C C C C C J H.  J.s s s s s s s s ",
"9.  A r C C C C C C C C C C C C C F.K.X L.s s s s s s s s s s P.J C r g.  x P C C C C C C C C C C C C C J H.  J.s s s s s s s s ",
"9.  A r C C C C C C C C C C C C J F.K.X & d s s s s s s s s s G.J C r g.  x c J C C C C C C C C C C C C r H.  J.s s s s s s s s ",
"N.  B.A.c c c c c c c c c c c c c Q 3 X V.eXf f f f f f f f f Z.A.c A.S.  m.W c c c c c c c c c c c c c A.j.  D.f f f f f f f f ",
".   -.b.b.b.b.b.b.b.b.b.b.b.b.b.b.m..   rXO O O O O O O O O O M.b.b.b.3   . x b.b.b.b.b.b.b.b.b.b.b.b.b.b.-.  $.O O O O O O O O ",
"                                                                                                                                "
};
