/* XPM */
static char *_67762545ac54aa1c8353d62603605dbzL0rOhLwvgnfniju[] = {
/* columns rows colors chars-per-pixel */
"64 64 153 2 ",
"   c None",
".  c #151413",
"X  c #181716",
"o  c #1A1917",
"O  c #1D1C1A",
"+  c #221C17",
"@  c #211F1B",
"#  c #22221E",
"$  c #2D241A",
"%  c #2F2819",
"&  c #2D2216",
"*  c #372B17",
"=  c #392817",
"-  c #352918",
";  c #3B2C18",
":  c #1F1F21",
">  c #242423",
",  c #292724",
"<  c #2B2A26",
"1  c #2B2B2B",
"2  c #312F2C",
"3  c #32312D",
"4  c #3D352C",
"5  c #242537",
"6  c #343434",
"7  c #393837",
"8  c #32303A",
"9  c #373838",
"0  c #3B3B3B",
"q  c #422E18",
"w  c #4B3018",
"e  c #503A18",
"r  c #5F3F19",
"t  c #553518",
"y  c #673F16",
"u  c #683E18",
"i  c #443628",
"p  c #433C2B",
"a  c #5F3F21",
"s  c #443B33",
"d  c #403F3E",
"f  c #66401E",
"g  c #784B18",
"h  c #724318",
"j  c #685317",
"k  c #4F4524",
"l  c #5F5527",
"z  c #5B512C",
"x  c #4B4234",
"c  c #4C4339",
"v  c #51463A",
"b  c #554B3D",
"n  c #594A3B",
"m  c #735721",
"M  c #2E3251",
"N  c #403F40",
"B  c #434343",
"V  c #484747",
"C  c #4E4842",
"Z  c #484748",
"A  c #4C4B4C",
"S  c #524B42",
"D  c #5C4E41",
"F  c #50504F",
"G  c #5B5248",
"H  c #504F50",
"J  c #535353",
"K  c #5A5A5A",
"L  c #695B4B",
"P  c #6F604F",
"I  c #64615F",
"U  c #746251",
"Y  c #5A5E77",
"T  c #71706F",
"R  c #626474",
"E  c #7B7A79",
"W  c #804E18",
"Q  c #8B5219",
"!  c #935519",
"~  c #995919",
"^  c #886817",
"/  c #A86619",
"(  c #AF7118",
")  c #B87918",
"_  c #B1781D",
"`  c #955B27",
"'  c #937F26",
"]  c #AB7523",
"[  c #A26936",
"{  c #836D5A",
"}  c #816C55",
"|  c #83725D",
" . c #987654",
".. c #A5764B",
"X. c #8C7660",
"o. c #937E66",
"O. c #807F7E",
"+. c #9D841A",
"@. c #AB8C21",
"#. c #B7902C",
"$. c #B39621",
"%. c #B69D31",
"&. c #BBA234",
"*. c #DEB016",
"=. c #DDB11C",
"-. c #CF9B25",
";. c #C7A827",
":. c #C9AC2D",
">. c #D8A228",
",. c #D9AE28",
"<. c #E6BC20",
"1. c #E1B527",
"2. c #E1B638",
"3. c #EDC424",
"4. c #F0CB2B",
"5. c #E8C736",
"6. c #BC8C5D",
"7. c #B0855B",
"8. c #9B846C",
"9. c #AD8965",
"0. c #A68A6E",
"q. c #A08770",
"w. c #A18A71",
"e. c #AC9074",
"r. c #AF9479",
"t. c #B5997D",
"y. c #CFA479",
"u. c #787A8B",
"i. c #818180",
"p. c #87878A",
"a. c #808396",
"s. c #9F9E9E",
"d. c #BD9F82",
"f. c #BFA384",
"g. c #AAACB5",
"h. c #C6A889",
"j. c #CBAA89",
"k. c #C1A082",
"l. c #D0AC8B",
"z. c #D3B391",
"x. c #DCBC9E",
"c. c #E1BD9A",
"v. c #E8C39D",
"b. c #EBC5A1",
"n. c #ECCAA8",
"m. c #F0CDAD",
"M. c #ECD1BD",
"N. c #F1D0B3",
"B. c #CACACA",
"V. c #D0CFCF",
"C. c #DDDDDD",
"Z. c #D9D8D9",
"A. c #D4D4D6",
/* pixels */
"                                                                                                                                ",
"                                                                                                                                ",
"                                                                                                                                ",
"                                                                                                                                ",
"                                                    @ > O o                                                                     ",
"                                                  O 7 J V 7 1 < , > O o                                                         ",
"                                                > 0 J K K K K K K J A d 3 > o                                                   ",
"                                            o < A K K K K K K K K K K K K J 0 , o                                               ",
"                                          O 7 K K K K K K K K K K K K K K K K K 0 >                                             ",
"                                        > B K K K K K K K K K K K K K K K K K K K A 1 o                                         ",
"                                      # V K K K K K K K K K K K K K K K K K K K K K J 6 O                                       ",
"                                    > V K K J J J J J J J J J K K K K K K K K K K K K K 7 O                                     ",
"                                  O B K A A J J J J J J J K J J J J K J J K K K K K K K K 7 O                                   ",
"                                O 1 V A Z A A A A J J J J J J J J J K K K K K J J K K K K K 7 o                                 ",
"                              o > 9 V A A A A A A A A J J J J J J J J J J J K K K K K K K K K 3 o                               ",
"                              O 6 7 V Z Z A A A A A A A J J H A J J J J A A A J J J J J J K K J >                               ",
"                            o < 9 7 B V B V A A A A A A A A A A A J J J J J A J J J J J J A J K 0 O                             ",
"                            O 3 9 7 0 B B B V V A A A A A A A A A A H J J A A A J J J H J A A J J ,                             ",
"                          o > 9 9 7 0 0 B B B V V Z Z Z A A A A A A A A A A A A A A A A V B B B A 9                             ",
"                          O 1 7 7 7 0 0 0 B B B B B B V Z Z Z A A A A A Z A A A V B B V Z B 0 0 0 1 o                           ",
"                          O 3 9 7 7 0 0 0 0 0 B B B B B B B B B B B V V V V A Z V V V B N B B B 9 > o                           ",
"                          > 6 7 7 0 0 0 0 0 0 0 0 B V V V B 0 0 0 0 B B B B B B B B 0 0 7 7 0 7 1 O                             ",
"                        o , 6 7 9 7 0 0 0 B B 0 0 0 0 B B B B V B 0 B B B B B B 0 0 7 7 7 7 7 6 # o                             ",
"                        O < 6 7 7 7 0 0 0 0 B 0 0 0 0 0 0 0 B B 0 0 0 B 0 0 0 0 7 7 7 7 9 6 1 O o                               ",
"                        O 1 6 7 7 9 7 0 0 7 0 0 0 0 0 0 0 7 7 7 0 0 7 7 7 7 0 7 7 9 9 6 1 > + +                                 ",
"                        O 1 6 9 7 7 9 7 0 0 7 0 0 0 0 0 0 0 0 0 0 0 0 0 0 0 7 9 9 6 1 > O & y =                                 ",
"                        O 1 6 6 9 7 9 9 7 0 7 7 7 0 0 0 0 0 0 0 7 7 7 7 7 7 9 9 1 > , c c % ; +                                 ",
"                        O 1 1 6 9 7 7 9 9 7 7 7 9 9 7 7 0 0 0 0 0 7 7 7 9 9 6 1 > v w.z.z.| o                                   ",
"                        O 1 1 6 9 9 7 7 9 9 9 7 9 9 9 7 7 7 7 0 7 7 7 7 9 6 1 $ a ..y.v.n.f.,                                   ",
"                        O 1 1 1 6 9 9 7 7 7 9 9 9 9 6 9 9 9 9 7 9 9 9 9 6 1 @ f [ [ ` 6.v.j.3                                   ",
"                        O 1 1 1 1 6 9 9 9 9 7 9 9 9 9 9 9 9 9 9 9 9 9 6 1 # n 9.e.0.9...6.j.4                                   ",
"                        O , 1 1 1 6 6 9 9 9 9 9 9 9 9 9 9 9 9 9 9 6 6 6 1 2 o.S J I A b  .7.i                                   ",
"                        o , 1 1 1 1 6 6 6 9 9 9 9 9 9 9 9 9 9 6 6 6 6 1 > P o.T B.C.u.5 1 } 4                                   ",
"                        o # 1 1 1 1 1 1 6 6 6 6 6 6 6 6 6 6 6 6 6 6 1 1 > e.8.E V.Z.Y 5 8 d @                                   ",
"                          O , 1 1 1 1 1 1 1 1 6 1 6 6 6 6 6 6 6 1 1 1 1 , h.t.I B.C.a.M R F X                                   ",
"                          O > 1 , 1 1 1 1 1 1 1 1 1 1 1 1 1 1 1 1 1 1 , , t.c.G s.C.A.g.p.c <                                   ",
"                            O 1 1 , 1 1 1 6 6 6 1 1 1 1 1 1 1 1 1 1 1 , O 4 d.t.S i.s.O.C { 4                                   ",
"                            o > 1 1 , 1 1 1 1 1 1 1 1 1 1 1 1 6 6 1 1 1 # l x q.r.U S s s p @                                   ",
"                              o > 1 1 1 1 1 1 1 1 1 1 1 1 1 6 3 1 1 1 1 O ' &.z b L v k ' @.%                                   ",
"                                o O , 1 , , 1 1 1 1 1 1 1 1 1 1 1 1 1 1 : j 3.5.$.+.%.:.;.^ +                                   ",
"                                  X O > , 1 , , 1 1 1 1 1 1 1 1 1 , 1 1 > e -.,.=.3.<.4.#.* o                                   ",
"                                      X O @ > , , , , 1 1 1 1 1 , 1 1 1 > ; ] 2.1.=.*.>.] $                                     ",
"                                          . X o O O O O # > > > > > , , O o - m _ ) ( / W +                                     ",
"                                                . o , 2 1 1 > O o O > > @ # o o g ! ! ! r O                                     ",
"                                                o , 0 A J A , 0 1 1 V B 0 0 > o q Q ! Q - o                                     ",
"                                                O 6 B A K A > A V 1 J A B 0 1 o o t ~ h @                                       ",
"                                                > 7 B A J 0 , V A , d V B 0 6 O o $ u w o                                       ",
"                                              o < 0 B A A 6 < B A , 6 V B 0 7 > o o @ @                                         ",
"                                              O 1 0 0 V A 1 1 0 B 1 1 B B 0 7 1 o                                               ",
"                                              O 6 7 0 B B > , 1 1 > , 0 B 7 7 1 O                                               ",
"                                              O 6 7 B B 7 , s C S x > 7 0 7 7 1 O                                               ",
"                                              @ 6 7 0 B 1 L x.M.n.z.D 1 0 0 9 1 O                                               ",
"                                              @ 1 9 7 0 1 X.b.N.m.v.U 1 0 7 6 1 O                                               ",
"                                              O 1 9 7 7 1 D l.b.v.k.s 1 7 9 6 1 O                                               ",
"                                              O 1 6 6 9 6 > v { } s > 6 6 6 3 1 O                                               ",
"                                              O O > > , , , O O O O , , , , > # O                                               ",
"                                                  O > > # # O o O O O O o O o                                                   ",
"                                                  O < 3 3 < @ < @ # # # O < O                                                   ",
"                                                  O # # # @ @ < @ O O o O O O                                                   ",
"                                                  o o o o o o o o                                                               ",
"                                                                                                                                ",
"                                                                                                                                ",
"                                                                                                                                ",
"                                                                                                                                "
};
