/* XPM */
static char *e7aaa3339fe648eb8e998e75e0fdd51fFjslMckwfthfMmga[] = {
/* columns rows colors chars-per-pixel */
"64 64 248 2 ",
"   c None",
".  c #151413",
"X  c #161513",
"o  c #171614",
"O  c #171715",
"+  c #181715",
"@  c #181716",
"#  c #191816",
"$  c #1A1917",
"%  c #1B1918",
"&  c #1B1A18",
"*  c #1B1A19",
"=  c #1C1B18",
"-  c #1C1B19",
";  c #1C1B1A",
":  c #1D1C1A",
">  c #1C1C1B",
",  c #1D1D1B",
"<  c #1E1D1A",
"1  c #1F1D1A",
"2  c #1E1D1B",
"3  c #1F1E1B",
"4  c #1F1F1B",
"5  c #1E1D1C",
"6  c #1E1E1C",
"7  c #1F1E1C",
"8  c #1F1E1D",
"9  c #1F1F1D",
"0  c #201E1B",
"q  c #211F1D",
"w  c #201F1E",
"e  c #21201C",
"r  c #22221D",
"t  c #23221D",
"y  c #20201E",
"u  c #21201E",
"i  c #21201F",
"p  c #21211F",
"a  c #22201E",
"s  c #22211F",
"d  c #23211F",
"f  c #23231E",
"g  c #24211E",
"h  c #24231E",
"j  c #26231F",
"k  c #25251F",
"l  c #212120",
"z  c #222120",
"x  c #232220",
"c  c #222221",
"v  c #232221",
"b  c #232321",
"n  c #232222",
"m  c #232322",
"M  c #242322",
"N  c #242323",
"B  c #272420",
"V  c #262520",
"C  c #262620",
"Z  c #272620",
"A  c #272721",
"S  c #242422",
"D  c #242423",
"F  c #252423",
"G  c #252523",
"H  c gray14",
"J  c #252424",
"K  c #252524",
"L  c #252525",
"P  c #262524",
"I  c #262525",
"U  c #272624",
"Y  c #262625",
"T  c #272625",
"R  c #272725",
"E  c gray15",
"W  c #272626",
"Q  c #272726",
"!  c #272727",
"~  c #282721",
"^  c #2A2723",
"/  c #282726",
"(  c #282727",
")  c #292822",
"_  c #2A2923",
"`  c #2A2A23",
"'  c #2B2A23",
"]  c #2B2824",
"[  c #2B2B24",
"{  c #282827",
"}  c #292827",
"|  c #292927",
" . c #2C2B24",
".. c #282828",
"X. c #292928",
"o. c gray16",
"O. c #2A2929",
"+. c #2B2A28",
"@. c #2A2A29",
"#. c #2B2A29",
"$. c #2A2A2A",
"%. c #2B2A2A",
"&. c gray17",
"*. c #2C2B29",
"=. c #2C2C2B",
"-. c #2C2C2C",
";. c #2D2C2C",
":. c #2D2D2C",
">. c #2D2D2D",
",. c #2E2E2D",
"<. c #2D2D2E",
"1. c gray18",
"2. c #2F2F2E",
"3. c #2E2E2F",
"4. c #2F2F2F",
"5. c #312D29",
"6. c #322E29",
"7. c #302F2E",
"8. c #323128",
"9. c #323228",
"0. c #333229",
"q. c #333329",
"w. c #30302F",
"e. c #31302F",
"r. c #39312A",
"t. c #39332D",
"y. c #3E362E",
"u. c #2F2F30",
"i. c gray19",
"p. c #313130",
"a. c #313131",
"s. c #323231",
"d. c #323232",
"f. c #333332",
"g. c gray20",
"h. c #333434",
"j. c #343434",
"k. c #353534",
"l. c #353535",
"z. c gray21",
"x. c #373737",
"c. c #393837",
"v. c #3C3834",
"b. c gray22",
"n. c #393938",
"m. c #393939",
"M. c #3A3A3A",
"N. c #3B3A3A",
"B. c #3B3A3B",
"V. c gray23",
"C. c #3C3C3B",
"Z. c #3C3B3C",
"A. c #3C3C3C",
"S. c #3D3C3D",
"D. c gray24",
"F. c #3E3D3D",
"G. c #3E3D3E",
"H. c #3E3E3E",
"J. c #3F3F3E",
"K. c #3F3E3F",
"L. c #3E3F3F",
"P. c #3F3F3F",
"I. c #433C35",
"U. c #464039",
"Y. c #41403F",
"T. c #4F453A",
"R. c #52463A",
"E. c #403F40",
"W. c gray25",
"Q. c #414140",
"!. c #414041",
"~. c #414141",
"^. c #424142",
"/. c gray26",
"(. c #434342",
"). c #434243",
"_. c #434343",
"`. c #444343",
"'. c #444344",
"]. c #444444",
"[. c #454444",
"{. c #454544",
"}. c #454445",
"|. c gray27",
" X c #464645",
".X c #464546",
"XX c #464646",
"oX c #474647",
"OX c gray28",
"+X c #484748",
"@X c #484848",
"#X c #494948",
"$X c #494849",
"%X c #494949",
"&X c #4A494A",
"*X c gray29",
"=X c #4B4B4B",
"-X c #4C4C4B",
";X c #4C4C4C",
":X c #4D4C4D",
">X c gray30",
",X c #4E4E4E",
"<X c gray31",
"1X c #5C4E41",
"2X c #5D4F42",
"3X c #5E5145",
"4X c #4F5050",
"5X c #505050",
"6X c #515150",
"7X c #515151",
"8X c gray32",
"9X c #535353",
"0X c gray33",
"qX c #555555",
"wX c #565655",
"eX c #565656",
"rX c gray34",
"tX c #585858",
"yX c gray35",
"uX c #5A5A5A",
"iX c #5B5B5B",
"pX c gray36",
"aX c #615244",
"sX c #6A5949",
"dX c #7F6F60",
"fX c #866F5A",
"gX c #8D7862",
"hX c #997F67",
"jX c #928377",
"kX c #AA8F74",
"lX c #B39478",
"zX c #B4977B",
"xX c #A69588",
"cX c #BFA182",
"vX c #C5A98D",
"bX c #C5AF9D",
"nX c #D8B99B",
"mX c #E4BF9B",
"MX c #D6BAA3",
"NX c #E3C09E",
"BX c #E6C09C",
"VX c #E9C39F",
"CX c #EDC7A2",
"ZX c #F2CEAC",
"AX c #EFD0B6",
"SX c #F2D0B0",
"DX c #F3D4B9",
"FX c #F4D5BC",
/* pixels */
"                                                                                                                                ",
"                                                                                                                                ",
"                                                                                                                                ",
"                                                              - &                                                               ",
"                                                            z F.c.8                                                             ",
"                                                        & *.-XiXiX[.U $                                                         ",
"                                                      s C.qXpXiXiXiX9Xg.2                                                       ",
"                                                  2 e.>XiXqXqX9X9X9XqXiX[.&.-                                                   ",
"                                              - | [.qXqX9X9X9X9X9X9X9XqXiXqX^.| -                                               ",
"                                          & U F.9XiXqX9X9X9X9X9X9X9X9X9XqXqXiXqXY.U &                                           ",
"                                        8 c.9XiXqXqX9X9X9X9XqXqXqXqXqX9X9X9X9XiXpX9X7.-                                         ",
"                                      z ^.qXqXqX9X9X9X9X9XqXiXiXiXiXiXqX9X9X9X9XqXqX9Xg.8                                       ",
"                                    z ^.qX9X9X9X>X[.*X*X>XqXiXiXiXiXqX9X*X^.[.*X>X>X>X*XV.2                                     ",
"                                  8 F.*X>X[.^.F.V.z.V.F.[.>X9X9X>X*X^.F.V.z.z.V.V.z.z.V.^.=.2                                   ",
"                                - =.F.V.z.g.z.V.z.g.g.g.z.V.F.F.F.V.V.V.z.g.V.^.F.V.V.g.g.g.| -                                 ",
"                              & U z.z.g.F.'.[.*X[.^.V.g.4.g.g.z.z.z.z.g.z.F.+X+X+X*X>X^.z.w.g.M &                               ",
"                              s g.g.z.^.*X*X*X*X*X*X*X+X^.F.V.z.g.h.V.E.[.*X[.[.[.*X=X>X^.h.g.4.8                               ",
"                            - &.z.g.V.+X*X*X*X+X[.[.*X*X*X*X[.[.[.[.*XOXOX+X+X+X[.[.*X>X^.V.g.4./ &                             ",
"                            s g.g.z.^.+X*X+X[.+X[.[.+X*X*X[.[.[.[.[.'.[.[.+X+X[.[.[.+X>X^.V.z.4.4.w                             ",
"                          & U g.g.z.F.[.*X[.[.+X[.[.*X*X+X+X[.[.[.[.[.[.[.[.[.[.[.[.+X>X^.V.z.g.g.U &                           ",
"                          2 &.g.g.z.V.^.^.^.[.[.+X[.[.OX[.+X[.[.*X+X[.[.[.[.[.[.^.[.*X[.F.V.V.g.4.=.2                           ",
"                          8 4.g.g.g.V.F.F.^.[.[.[.+XOX[.[.[.[.+X*X[.[.[.[.[.[.[.[.+X*XF.V.V.z.g.g.4.s                           ",
"                        $ z 4.g.g.g.V.V.V.F.[.[.[.[.[.[.[.OX[.OXOX[.[.[.[.^.^.'.[.*X[.Z.V.V.z.g.g.4.z                           ",
"                        & F g.g.g.g.V.V.V.V.^.[.[.[.[.[._.^._.[.[.[.[.^.^.^.[.*X*X[.^.V.V.V.z.g.g.4.U &                         ",
"                        & U u.g.g.g.z.V.V.V.F.^.[.[.^.'.'.'.'.'.'.^.^.^.'.[.[.[.^.'.F.V.V.V.g.g.g.g.U &                         ",
"                        & U 4.g.4.g.g.V.V.F.^.F.^.[.OX[.^.^.^.^.^.^.[.[.[.^.^.^.[.F.V.V.V.z.g.g.g.g.U &                         ",
"                        - U 4.4.4.g.z.z.V.V.F.^.F.^._.[.[.[.[.[.[.[.[.[.'.[.[.[.^.V.V.V.z.z.g.g.g.g.&.&                         ",
"                        & U 4.4.4.g.z.z.V.V.F.F.^.P.^.P.^.'.[.[.[.[.[.[.+X+X[.^.V.V.V.V.z.z.z.g.g.4.U &                         ",
"                        $ z 4.4.4.4.z.z.h.z.V.V.F.E.F.^.^.^.^.'.[.[.[.[.^.^.F.V.V.V.V.z.g.z.g.g.g.4.U &                         ",
"                        $ z &.4.&.4.g.z.h.g.x.V.V.F.W.F.F.^.^.^.^.^.^.^.^.F.V.V.V.V.z.g.z.g.g.h.g.4.z &                         ",
"                          s &.4.4.4.4.z.z.z.z.V.V.V.V.F.F.F.F.F.F.F.F.F.V.V.V.V.z.z.g.z.z.g.z.g.g.&.s                           ",
"                          2 U 4.4.4.g.g.z.z.z.z.V.V.V.V.V.V.F.F.F.F.F.A.F.V.V.z.g.g.z.z.z.z.z.g.g.&.8                           ",
"                          - F &.4.&.4.4.g.z.z.g.z.V.V.V.V.V.V.V.V.V.V.V.V.V.z.z.z.z.g.z.z.z.g.g.g.U 2                           ",
"                            w &.4.4.&.4.4.g.z.z.g.z.V.V.z.z.z.z.z.z.z.z.z.z.z.z.z.g.g.z.g.z.g.g.4.z &                           ",
"                            - U &.4.4.4.4.u.z.z.z.g.g.z.z.z.z.z.z.z.V.V.V.z.z.z.g.g.z.z.g.g.g.4.U 2                             ",
"                            & s &.&.4.4.4.4.g.z.z.z.g.g.z.z.z.z.z.V.z.z.g.z.z.z.z.z.z.z.g.g.4.&.z &                             ",
"                              - z &.&.&.4.4.g.g.z.z.g.g.z.z.z.z.z.g.g.z.V.V.V.z.z.z.z.g.g.4.&.U 2                               ",
"                                2 U &.&.&.4.4.4.g.g.g.g.g.g.g.z.z.z.V.V.V.V.z.z.z.g.g.g.4.&.U 2 $                               ",
"                                  2 z &.&.&.4.4.4.4.g.g.g.z.g.z.g.g.g.z.z.z.z.g.g.u.g.4.&.U 8 +                                 ",
"                                    & s U &.4.4.4.4.4.4.4.4.g.g.g.g.g.z.g.g.4.4.4.-.&.U z - O                                   ",
"                                      O 2 z U &.4.4.4.4.4.4.4.4.g.g.g.g.4.4.4.&.&.U z 2 +                                       ",
"                                          + - s F &.&.4.4.4.4.g.g.4.4.&.&.&.U z 2 $ O                                           ",
"                                            . s M 2 8 z z U U U U z z z w 8 - | F .                                             ",
"                                            s `.V.& M U U F M z s F | 4.g.&.2 V.*XU $                                           ",
"                                          - g.>Xg.z V.F.[.*X*X[.*X*X>X>X>XF.&.&.>XV.8                                           ",
"                                        $ F F.^.z 4.F.^.*XqXiXiXiXiXrX9X>X^.z.s V.F.&.$                                         ",
"                                        w z 4.e.w z.F.^.[.*XqXqXiXqXqX9X>X^.V.M &.4.z F 2                                       ",
"                                      6.xXjXU.w F V.F.^.[.[.*X>X>X9X9X>X*XF.F.&.2 v.dXzX1X                                      ",
"                                      3XAXFXMXI.&.V.F.^.^.[.*X*X*X*X*X*X^.F.F.4.6.bXDXCXhX0                                     ",
"                                      T.NXZXnXt.-.V.V.F.F.^.^.[.[.[.[.^.^.^.V.4.| vXSXVXfX-                                     ",
"                                      g gXmXcX^ 4.z.V.F.^.^.W.^.^.^.^.^.^.^.V.g.s kXBXlXy.                                      ",
"                                        g 1XaXs =.z.A.F.^.^.^.^.^.^.^.^.^.F.V.g.w R.sXr.                                        ",
"                                            O 2 4.g.V.F.F.^.F.F.F.F.F.F.F.V.z.4.w +                                             ",
"                                              8 &.g.g.V.V.F.F.F.F.F.V.V.V.V.g.4.8                                               ",
"                                              2 &.4.g.g.g.g.h.z.z.g.g.z.h.g.4.U 8                                               ",
"                                              - 8 w z z z M F U U U F F z z 8 2 -                                               ",
"                                                & F ` ` F F 2 & $ 2 F F `  .^ &                                                 ",
"                                                - ` 9.9.9.9.k     g 9.9.9.9.| -                                                 ",
"                                                & s s s s s 2     2 g s s s s -                                                 ",
"                                                                                                                                ",
"                                                                                                                                ",
"                                                                                                                                ",
"                                                                                                                                ",
"                                                                                                                                "
};
