/* XPM */
static char *f959908748ad4f43a221f88e39a06a63FmrFGAh8lgvsy494[] = {
/* columns rows colors chars-per-pixel */
"64 64 199 2 ",
"   c None",
".  c #171614",
"X  c #1A1917",
"o  c #1D1C1A",
"O  c #181614",
"+  c #231C14",
"@  c #211E1C",
"#  c #23211E",
"$  c #2D2519",
"%  c #282015",
"&  c #33271B",
"*  c #342A19",
"=  c #392B1D",
"-  c #3A2C16",
";  c #3B3116",
":  c #211F2B",
">  c #252422",
",  c #282726",
"<  c #2A2926",
"1  c #2C2C2C",
"2  c #342C23",
"3  c #312E2A",
"4  c #382F25",
"5  c #3C3424",
"6  c #33312C",
"7  c #3B342D",
"8  c #39392F",
"9  c #373127",
"0  c #232535",
"q  c #333333",
"w  c #3A3734",
"e  c #3D3B32",
"r  c #3B3B3B",
"t  c #422E17",
"y  c #4C3316",
"u  c #483417",
"i  c #563617",
"p  c #573C17",
"a  c #633C13",
"s  c #41392C",
"d  c #433C34",
"f  c #473F36",
"g  c #553E29",
"h  c #5C4A19",
"j  c #4D4017",
"k  c #6B4319",
"l  c #734918",
"z  c #784A17",
"x  c #695A1D",
"c  c #725E13",
"v  c #756114",
"b  c #45443B",
"n  c #4C453B",
"m  c #414135",
"M  c #50453A",
"N  c #564B3D",
"B  c #574C23",
"V  c #6B5129",
"C  c #7C6A27",
"Z  c #2A2C48",
"A  c #2C3151",
"S  c #363C5D",
"D  c #3D4364",
"F  c #434343",
"G  c #4B4B4B",
"H  c #4A4743",
"J  c #524B44",
"K  c #5A4E41",
"L  c #514E4B",
"P  c #5D5144",
"I  c #55514C",
"U  c #4F5050",
"Y  c #535353",
"T  c #5A5A5A",
"R  c #615344",
"E  c #6A5B4B",
"W  c #675847",
"Q  c #665D54",
"!  c #736452",
"~  c #7C6955",
"^  c #74695E",
"/  c #7D6C59",
"(  c #71665B",
")  c #4D526A",
"_  c #5D627B",
"`  c #636362",
"'  c #696868",
"]  c #7C6E61",
"[  c #7B7B7B",
"{  c #636673",
"}  c #834C17",
"|  c #895617",
" . c #9D5D19",
".. c #945818",
"X. c #A05F19",
"o. c #826111",
"O. c #9A6517",
"+. c #9A7212",
"@. c #A06119",
"#. c #A86819",
"$. c #AC7517",
"%. c #B27119",
"&. c #BC7C1A",
"*. c #B47818",
"=. c #935A25",
"-. c #985F2B",
";. c #8D5D32",
":. c #A16A38",
">. c #996C42",
",. c #9D724A",
"<. c #84715D",
"1. c #90775E",
"2. c #866F5A",
"3. c #A87342",
"4. c #A37B55",
"5. c #8E7963",
"6. c #817568",
"7. c #937D66",
"8. c #947E68",
"9. c #BB811C",
"0. c #B98417",
"q. c #B1951F",
"w. c #B79C31",
"e. c #B59B36",
"r. c #C38A18",
"t. c #C89519",
"y. c #D29B1B",
"u. c #D9A81A",
"i. c #E2B71A",
"p. c #C99A29",
"a. c #D4A529",
"s. c #C8A736",
"d. c #DBAF32",
"f. c #DEB538",
"g. c #D2AB2C",
"h. c #E7BC22",
"j. c #E4B722",
"k. c #E5BB38",
"l. c #EEC51A",
"z. c #E7C529",
"x. c #E9C535",
"c. c #F6D134",
"v. c #9A846B",
"b. c #97816A",
"n. c #928377",
"m. c #AB8966",
"M. c #A58667",
"N. c #BF8E60",
"B. c #B9936E",
"V. c #A58C72",
"C. c #AA9176",
"Z. c #B6997C",
"A. c #C49568",
"S. c #D0A57B",
"D. c #EDCB45",
"F. c #F8D546",
"G. c #75798C",
"H. c #808080",
"J. c #8C8F9D",
"K. c #BD9F81",
"L. c #A69588",
"P. c #BDA182",
"I. c #9093A3",
"U. c #9F9FA0",
"Y. c #A4A5A5",
"T. c #AAABAB",
"R. c #A7A9B3",
"E. c #BCBCBC",
"W. c #B2B3B8",
"Q. c #C4A686",
"!. c #C6A98A",
"~. c #C7A98B",
"^. c #D8AD84",
"/. c #CFB08E",
"(. c #DCB28A",
"). c #D4B391",
"_. c #DCBA96",
"`. c #DDBC98",
"'. c #D7B696",
"]. c #C3AD9B",
"[. c #E0B78E",
"{. c #E3BF9A",
"}. c #E2BA91",
"|. c #D2B7A1",
" X c #E6C19C",
".X c #EAC39D",
"XX c #EDC7A1",
"oX c #EBC6A1",
"OX c #EFC9A3",
"+X c #EECAA3",
"@X c #EFC9A3",
"#X c #F0CAA4",
"$X c #F1CBA5",
"%X c #F2CEAB",
"&X c #EFD0B6",
"*X c #F3D3B7",
"=X c #BCBDC3",
"-X c #C8C8C9",
";X c #D1D1D3",
/* pixels */
"                                                                                                                                ",
"                                                                                                                                ",
"                                                                                                                                ",
"                                                              o o                                                               ",
"                                                          X , H H > X                                                           ",
"                                                        o q G T T G < X                                                         ",
"                                                    X > w G Y T T Y G w > X                                                     ",
"                                                X o 1 F G Y Y T T Y G G H q o X                                                 ",
"                                            X o , w F G G G T T T G G G H H r 1 @                                               ",
"                                          o , q r F G G Y T T T T T G G G H F F r , o                                           ",
"                                        @ 1 r r F G G Y T T T T T T Y Y G G G F r r 1 @                                         ",
"                                    X > q r r F H G Y T T T T T T T T T Y G G H F r r q #                                       ",
"                                  X > w r r r H G G Y T T T T T T T T T T Y G G H r r r q #                                     ",
"                                  > w r r r F G G G Y T T T T T T T T T T Y G G G H r r r q o                                   ",
"                                o q r r r F F F F H Y G Y T T T T Y G G G G H F F F F r r r 1 o                                 ",
"                              o < w r r r F F F F F H G G G G G G G G H H H G H F r r r r r r , X                               ",
"                              > q r r r r F F F F H F F F r r r r r r F H G H F F r r r r r r w #                               ",
"                            o 1 w r r r F H F F F r r r r r r r r r r r r r F r r r r r r r r r < o                             ",
"                            > q w r r r F F F F r r r r w w w w w w r r r r r r r r r r r r r r q #                             ",
"                          o < q w r r w r r r r r w w w q 1 1 < < 1 1 q w w w r r r r r r r r r w , X                           ",
"                          o 1 q w r r w r r r r w w 1 , # $ * ; ; * $ # > < q w r r r r r r r r w 1 o                           ",
"                          > 6 q r r w w r r w w q > @ t h o.+.+.+.O.| l y $ # < q w r r r r r r w q #                           ",
"                        X , q w r w w w r w w , > 2 + a ..@.%.&.&.*.%.O.} p + > > 1 w w r r w r q q >                           ",
"                        X , q w w w w w w q > 6 / b.W & k X. . .@. ...l y & n ~ f # 1 w w r r w q q , X                         ",
"                        o < q w w w w w q > 7 b.Q. X)./ 2 i z } | } i 2 R 5.Q./.V.K # 1 w w r r q q < X                         ",
"                        o < q w q q w w , 3 b.~. XXXOX'.8.M 4 = = 2 f 7.~._.XX@X).C.K > q w w w w q < X                         ",
"                        o < q w q q w 1 > <.Q.{.XXOXOXOX`.P.V.8.5.b.Z.`.#XXX X#X@X).C.d , q q q q q < X                         ",
"                        o < q w q q q , M m.B.[. X#XXXOXOX X{._.)._.oX#X#XOXOX.X}.S.B.~ > 6 q q q q < o                         ",
"                        X , q w q q 1 # V =.=.-.:.^.OX@XOXOX#X#XXXOX#XOXOX#X}.3.-.=.=.;.4 < q q q q < X                         ",
"                        X > 6 q q q < = >.m.m.4.,.3.N.{.#XOXXXOXOXOXoX#X.XA.3.>.4.M.m.,.g > w q q q , X                         ",
"                          # 1 q q q , N E H L q w R ,.N.S..XOXOXOXOX{.^.A.4.W d q G L R ! > w q q q >                           ",
"                          o 1 q q q > P n T.J.A : 0 q 1.(..XOXOX.XXX.X(.M.w 0 : Z G.E.H ! > q q q 1 @                           ",
"                          X , q q q > P n E.G.Z @ Z _ I V.XXOXOXoX.X#XZ.H { A @ 0 _ -XL E > q q q < o                           ",
"                            # 1 q q > P n Y.R.D A S R.U.K .XOXOXOX@X#X! H.=X) A S I.E.H E > q q q > X                           ",
"                            o < q q , n W ` ;XW.I.W.;X` 5.#XOXOX.X.X$XC.L -X=XI.R.;X[ N R , q q 1 o                             ",
"                              # 1 q < < 7.K ' T.E.T.` E {.$X$X#X#XOX$X X/ Y Y.E.W.[ n 7.7 1 q q > X                             ",
"                              X , q q > W Q./ J J K 5.{.{.v./ C.P./ 7.`.oXv.P J J ! Q.~ > q 1 , o                               ",
"                                o , q < , 7._._._..X%X!.K h v 5 9 x h N ~.$XoX_.`.`.v.< < q < o                                 ",
"                                  o , 1 > # M ! v.V./ s C z.l.s.e.F.z.c 7 ! b.7.! f @ > q < o                                   ",
"                                    o > < o u C V B x w.D.d.0.e.w.s.D.x.q.C B x C j o < , o                                     ",
"                                      X o o p s.f.y.u.h.h.h.f.s.a.z.c.F.c.f.p.r.$.t o o X                                       ",
"                                          O + - | *.*.y.u.j.k.k.u.i.u.y.t.$.$.p % .                                             ",
"                                            . # * y u O.r.a.9.$.a.i.r.0.O.p $ # , X                                             ",
"                                            # H 1 o , - $.k.d.0.d.t.0.%.t > > q G , X                                           ",
"                                          X q G , q H > l &.r.t.r.&.#.k # F r , G r o                                           ",
"                                        X > r r # H U q & p z %.9.*.l % q G G > w r < X                                         ",
"                                        @ > 1 < < Y G r # # & i y y @ o w H T q , 1 > > o                                       ",
"                                      3 L.n.f o r Y H w > e # K E # e # q F G F o w ] Z.K                                       ",
"                                      P &X*X|.e b G r q # e 6 <.<.6 b # 1 r G H 6 ].*XXX8.@                                     ",
"                                      n  X%X'.7 H G r q # e m 7 7 e e # 1 r H G 6 !.%X.X2.o                                     ",
"                                      # 5. XK.3 G H r 6 # 8 b > # e e > 1 r F U 3 V. XZ.7                                       ",
"                                        # K R 1 G r r 1 o @ > o o # # o < r r G q M W 9                                         ",
"                                            . , H r r 1 , Q I Q ^ b J 3 < r r H 6 .                                             ",
"                                              > r r r 1 > Q ^ 6.] ] ( , 1 r r r 1                                               ",
"                                              # q w q q # > w 3 > d d # 1 q w w ,                                               ",
"                                              o , 1 1 q # X X X X X X o q 1 1 < #                                               ",
"                                                X @ > > < > o     X > < > > # o                                                 ",
"                                                X , 8 e e e #     # e e 8 8 , X                                                 ",
"                                                X # # # # # @     o > # # # # X                                                 ",
"                                                                                                                                ",
"                                                                                                                                ",
"                                                                                                                                ",
"                                                                                                                                ",
"                                                                                                                                "
};
