/* XPM */
static char *f51199c39d194c7aca9210223595f8683xUxOEHEOWiJ6kNF[] = {
/* columns rows colors chars-per-pixel */
"64 64 153 2 ",
"   c None",
".  c #151413",
"X  c #181716",
"o  c #1A1917",
"O  c #1D1C1A",
"+  c #221C17",
"@  c #211F1B",
"#  c #22221E",
"$  c #2D241A",
"%  c #2F2819",
"&  c #2D2216",
"*  c #372B17",
"=  c #392817",
"-  c #352918",
";  c #3B2C18",
":  c #1F1F21",
">  c #242423",
",  c #292724",
"<  c #2B2A26",
"1  c #2B2B2B",
"2  c #312F2C",
"3  c #32312D",
"4  c #3C352C",
"5  c #242537",
"6  c #343434",
"7  c #393837",
"8  c #32303A",
"9  c #373838",
"0  c #3B3B3B",
"q  c #422E18",
"w  c #4B3018",
"e  c #503A18",
"r  c #5F3F19",
"t  c #553518",
"y  c #673F16",
"u  c #683E18",
"i  c #443628",
"p  c #433C2B",
"a  c #5F3F21",
"s  c #443B33",
"d  c #403F3E",
"f  c #66401E",
"g  c #784B18",
"h  c #724318",
"j  c #685317",
"k  c #4F4524",
"l  c #5F5527",
"z  c #5B512C",
"x  c #4B4234",
"c  c #4C4339",
"v  c #51463A",
"b  c #554B3D",
"n  c #594A3B",
"m  c #735721",
"M  c #2E3251",
"N  c #403F40",
"B  c #434343",
"V  c #484747",
"C  c #4E4842",
"Z  c #484748",
"A  c #4C4B4C",
"S  c #524B42",
"D  c #5C4E41",
"F  c #50504F",
"G  c #5B5248",
"H  c #504F50",
"J  c #535353",
"K  c #5A5A5A",
"L  c #695B4B",
"P  c #6F604F",
"I  c #64615F",
"U  c #746251",
"Y  c #5A5E77",
"T  c #71706F",
"R  c #626474",
"E  c #7B7A79",
"W  c #804E18",
"Q  c #8B5219",
"!  c #935519",
"~  c #995919",
"^  c #886817",
"/  c #A86619",
"(  c #AF7118",
")  c #B87918",
"_  c #B1781D",
"`  c #955B27",
"'  c #937F26",
"]  c #AB7523",
"[  c #A26936",
"{  c #836D5A",
"}  c #816C55",
"|  c #83725D",
" . c #987654",
".. c #A5764B",
"X. c #8C7660",
"o. c #937E66",
"O. c #807F7E",
"+. c #9D841A",
"@. c #AB8C21",
"#. c #B7902C",
"$. c #B39621",
"%. c #B69D31",
"&. c #BBA234",
"*. c #DEB016",
"=. c #DDB11C",
"-. c #CF9B25",
";. c #C7A827",
":. c #C9AC2D",
">. c #D8A228",
",. c #D9AE28",
"<. c #E6BC20",
"1. c #E1B527",
"2. c #E1B638",
"3. c #EDC424",
"4. c #F0CB2B",
"5. c #E8C736",
"6. c #BC8C5D",
"7. c #B0855B",
"8. c #9B846C",
"9. c #AD8965",
"0. c #A68A6E",
"q. c #A08770",
"w. c #A18A71",
"e. c #AC9074",
"r. c #AF9479",
"t. c #B5997D",
"y. c #CFA479",
"u. c #787A8B",
"i. c #818180",
"p. c #87878A",
"a. c #808396",
"s. c #9F9E9E",
"d. c #BD9F82",
"f. c #BFA384",
"g. c #AAACB5",
"h. c #C6A889",
"j. c #CBAA89",
"k. c #C1A082",
"l. c #D0AC8B",
"z. c #D3B391",
"x. c #DCBC9E",
"c. c #E1BD9A",
"v. c #E8C39D",
"b. c #EBC5A1",
"n. c #ECCAA8",
"m. c #F0CDAD",
"M. c #ECD1BD",
"N. c #F1D0B3",
"B. c #CACACA",
"V. c #D0CFCF",
"C. c #DDDDDD",
"Z. c #D9D8D9",
"A. c #D4D4D6",
/* pixels */
"                                                                                                                                ",
"                                                                                                                                ",
"                                                                                                                                ",
"                                                                                                                                ",
"                                                                    o O > O                                                     ",
"                                                        o O > , < 1 7 V J 0 O                                                   ",
"                                                  o > 3 d A J J J K K K K J 0 >                                                 ",
"                                              o , 0 J K K K K K K K J J J K K A < o                                             ",
"                                            > 0 J K K K K K K K K K K K K K K K J 7 O                                           ",
"                                        o < A K K K K K K K K K K K K K J J J J J J B >                                         ",
"                                      O 6 J K K K K K K K K K K K J J J J J J J K K K V >                                       ",
"                                    O 0 J K K K K K K K J K J J J J J J J J J J J J J K A >                                     ",
"                                  O 0 K K K K K K J J J J J J J J J J J J J J J J J A A J d O                                   ",
"                                O 0 K K K J J J J J J J J J J J J J J J J J J A A A A Z A V < O                                 ",
"                              o 3 J K K J J J J J J J J J J J J J J J J J J A A A A A A A V 9 > o                               ",
"                              > J K J J J J J J J J A J J J J J A J J J J A A A A A A Z Z V 0 6 O                               ",
"                            O 0 K J A J J J J J J J J J J J J A A A A A A A A A A A V B V B 0 9 < o                             ",
"                            , J J A A J J J J H H H A A J J A A A A A A A A A A V V N B B 0 0 9 3 O                             ",
"                            9 A B B B V A A A A A A A Z A A A A A A A A A A Z V B B B B 0 0 0 9 9 > o                           ",
"                          o 1 0 0 0 B Z V B B V Z Z Z V Z A A A A Z Z Z V B B B N B B 0 0 0 0 0 0 < O                           ",
"                          o > 9 B B B N B V V V Z A V V B V B B B B B B B B B B B 0 0 0 0 0 0 0 9 6 @                           ",
"                            O 1 0 0 0 0 0 0 B B B B B B B B 0 0 0 0 B V V V B 0 0 0 0 0 0 0 0 0 0 6 >                           ",
"                            o # 3 0 0 0 0 0 0 0 B B B B B B 0 B V B B B B 0 0 0 0 0 0 0 0 0 0 0 0 6 , o                         ",
"                              o O < 6 9 0 0 0 0 0 0 0 0 B 0 0 0 B B 0 0 0 0 0 0 0 0 0 0 0 0 0 0 9 6 , o                         ",
"                                + @ > < 6 9 9 0 0 0 0 0 0 0 0 0 0 0 0 0 0 0 0 0 0 0 0 0 0 0 9 0 0 6 < O                         ",
"                                = y & o > < 6 9 9 0 0 0 0 0 0 0 0 0 0 0 0 0 0 0 0 0 0 0 0 9 9 0 9 6 < O                         ",
"                                + = % c c , > 1 9 9 0 0 0 0 0 0 0 0 0 0 0 0 0 0 9 0 0 0 9 9 0 9 6 6 1 O                         ",
"                                  o | z.z.w.v > < 6 9 9 0 0 0 0 0 0 0 0 0 0 9 9 0 0 0 9 9 0 9 9 6 1 < O                         ",
"                                  , f.n.v.y...a $ < 6 9 0 0 0 0 0 0 0 0 9 9 9 9 0 0 9 0 0 0 9 9 6 1 1 O                         ",
"                                  3 j.v.6.` [ [ u @ < 6 9 9 9 0 9 9 9 9 9 6 9 9 9 9 0 0 0 9 9 6 1 < < O                         ",
"                                  4 j.6...9.0.e.9.n O 1 6 9 9 9 6 9 9 9 9 9 9 9 9 0 0 9 9 9 6 2 < < < O                         ",
"                                  i 7. .b A I J S o.2 , 6 6 6 9 9 9 9 9 9 9 9 9 9 9 9 9 9 6 6 1 1 < , O                         ",
"                                  4 } 1 5 u.C.B.T o.P > 6 6 6 6 6 9 9 9 6 6 6 9 9 9 9 6 6 6 1 1 < < , o                         ",
"                                  @ d 8 5 Y Z.V.E 8.e.> 1 2 6 6 6 6 6 6 6 6 6 3 6 3 2 3 1 1 1 1 < < # o                         ",
"                                  X F R M a.C.B.I t.h., < 1 6 6 2 1 2 1 6 6 6 6 3 1 1 1 1 1 1 < < , O                           ",
"                                  < c p.g.A.C.s.G c.t., , 1 1 1 1 1 1 1 2 2 1 1 1 1 1 1 1 1 < < < > o                           ",
"                                  4 { C O.s.i.S t.d.4 O , < 1 1 1 1 1 1 1 1 3 3 6 6 3 2 1 < < < < @                             ",
"                                  @ p s s S U r.q.x l # , < 1 6 1 1 1 1 1 1 2 3 1 1 1 1 < < < < > o                             ",
"                                  % @.' k v L b z &.' O < < 1 1 1 6 1 1 1 < < < < < < < < < < > o                               ",
"                                  + ^ ;.:.%.+.$.5.3.j : < < < 1 1 1 1 1 1 1 < < < < < < < < O o                                 ",
"                                  o * #.4.<.3.=.,.-.e > < < < < < < < 1 < < < < < < < , > O X                                   ",
"                                    & ] >.*.=.1.2.] ; > < < < < < < < < < < < , , > O o X                                       ",
"                                    + W / ( ) _ m - o O , , > > > > > > # O O O o X .                                           ",
"                                    O r ! ! ! g o o > O > > @ O o > 1 3 3 , o .                                                 ",
"                                    o - Q ! Q q o > 0 0 B V 2 2 0 , A J A 0 , o                                                 ",
"                                      @ h ~ t o o 1 0 B A J < V A > A J A B 6 O                                                 ",
"                                      o w u & o O 6 0 B V d , A V , 0 J A B 0 >                                                 ",
"                                        @ @ o o > 0 0 B V 6 , A B < 6 H A B 0 < o                                               ",
"                                              o < 0 0 B B 1 < B 0 1 < A V 0 0 1 O                                               ",
"                                              O 1 0 0 B 0 , > 1 1 , > B B 0 0 6 O                                               ",
"                                              O 1 0 0 0 0 > x S C s , 0 B B 0 6 O                                               ",
"                                              O 1 9 0 0 1 D z.n.M.x.L 1 B 0 0 6 O                                               ",
"                                              O 1 6 0 0 < U v.m.N.b.X.< 0 0 9 1 @                                               ",
"                                              O < 6 9 0 1 s k.v.b.l.D 1 0 0 6 1 O                                               ",
"                                              O < 1 6 6 6 > s } { v > 6 9 6 1 < O                                               ",
"                                              O # > > , , , O O O O , , , > > O O                                               ",
"                                                  o O o O O O O o O # # > > O                                                   ",
"                                                  O < O # # # @ , @ < 3 3 < O                                                   ",
"                                                  O O O o O O @ < @ @ # # # O                                                   ",
"                                                              o o o o o o o o                                                   ",
"                                                                                                                                ",
"                                                                                                                                ",
"                                                                                                                                ",
"                                                                                                                                "
};
