/* XPM */
static char *_565fc1f111e4c0ba8b810efb1fcf22c9Fn70DaI8koMFHy4[] = {
/* columns rows colors chars-per-pixel */
"64 64 166 2 ",
"   c #383D50",
".  c #353A4C",
"X  c #323647",
"o  c #35394B",
"O  c #383D51",
"+  c #393E52",
"@  c #3D4156",
"#  c #2E3140",
"$  c #252834",
"%  c #242733",
"&  c #262835",
"*  c #262935",
"=  c #282B39",
"-  c #292C39",
";  c #272936",
":  c #282A37",
">  c #2C2F3E",
",  c #3C4155",
"<  c #3A3F53",
"1  c #3D4257",
"2  c #3B3F54",
"3  c #222430",
"4  c #16171F",
"5  c #191A22",
"6  c #1C1E27",
"7  c #1D1F28",
"8  c #222530",
"9  c #232632",
"0  c #1E202A",
"q  c #20232D",
"w  c #232631",
"e  c #3D4258",
"r  c #3A3E53",
"t  c #22242F",
"y  c #191B23",
"u  c #20222D",
"i  c #21232E",
"p  c #21232D",
"a  c #272A37",
"s  c #292C3A",
"d  c #232530",
"f  c #252734",
"g  c #3E4358",
"h  c #363B4E",
"j  c #383C4F",
"k  c #3B4054",
"l  c #252733",
"z  c #1D1F27",
"x  c #20222C",
"c  c #242632",
"v  c #262834",
"b  c #2C2F3D",
"n  c #2A2C3A",
"m  c #333748",
"M  c #2E313F",
"N  c #252732",
"B  c #313444",
"V  c #383C50",
"C  c #333747",
"Z  c #2A2D3B",
"A  c #333749",
"S  c #35384B",
"D  c #22242E",
"F  c #2B2E3D",
"G  c #2D303F",
"H  c #3D4358",
"J  c #272A36",
"K  c #262936",
"L  c #333648",
"P  c #252632",
"I  c #1C1D27",
"U  c #20212B",
"Y  c #36394C",
"T  c #1F212B",
"R  c #15161D",
"E  c #181921",
"W  c #1B1C25",
"Q  c #1C1D26",
"!  c #393D51",
"~  c #3A3E52",
"^  c #232430",
"/  c #393D52",
"(  c #1A1C25",
")  c #0C0D11",
"_  c #0F0F14",
"`  c #111117",
"'  c #111116",
"]  c #101116",
"[  c #363A4D",
"{  c #0E0F15",
"}  c black",
"|  c #0C0D12",
" . c #34384A",
".. c #3E4359",
"X. c #0E1015",
"o. c #2C2E3D",
"O. c #0E0F14",
"+. c #34384B",
"@. c #1D1E28",
"#. c #21222D",
"$. c #16171E",
"%. c #242631",
"&. c #1A1C24",
"*. c #171920",
"=. c #15161C",
"-. c #333849",
";. c #121319",
":. c #16181F",
">. c #1F202A",
",. c #1D1F29",
"<. c #1A1B24",
"1. c #101016",
"2. c #0D0E13",
"3. c #292B39",
"4. c #181A22",
"5. c #1D1E27",
"6. c #0F1015",
"7. c #21222C",
"8. c #111217",
"9. c #373B4F",
"0. c #363A4E",
"q. c #23252F",
"w. c #171921",
"e. c #1E2029",
"r. c #1B1D26",
"t. c #0D0E12",
"y. c #2C303F",
"u. c #3B3F53",
"i. c #373C4F",
"p. c #242732",
"a. c #191B24",
"s. c #353A4D",
"d. c #1D2029",
"f. c #363A4C",
"g. c #0E1014",
"h. c #0F1014",
"j. c #0E0E13",
"k. c #34374A",
"l. c #0B0B0E",
"z. c #171820",
"x. c #1C1E28",
"c. c #17181F",
"v. c #191A23",
"b. c #111218",
"n. c #13141B",
"m. c #1F212C",
"M. c #20212C",
"N. c #373C50",
"B. c #282B38",
"V. c #0D0D12",
"C. c #181922",
"Z. c #1C1D25",
"A. c #3A3F54",
"S. c #232531",
"D. c #3C4156",
"F. c #41465D",
"G. c #3F4459",
"H. c #393E51",
"J. c #343849",
"K. c #21242F",
"L. c #2D303E",
"P. c #303444",
"I. c #313546",
"U. c #35394C",
"Y. c #363B4D",
"T. c white",
/* pixels */
"                                                                                                                                ",
"                                                                                                                                ",
"                                                                                                                                ",
"                  . X X X X X X X X X X X X X X X X X X X X X X X X X X X X X X X X X X X X X X X X X X X X o O                 ",
"                + @ # $ % & * * * * * * * * * * * * = - - ; : - - : ; - - = * * * * * * * * * * * * * * & > , <                 ",
"                  1 2 3 4 5 6 7 7 7 7 7 7 7 7 7 7 7 8 % 9 0 q % % q 0 9 % 8 7 7 7 7 7 7 7 7 7 7 7 7 7 6 w + e                   ",
"                    e r t y 6 u i i p p p p p p p i a s - d f s s f d - s a i p p p p p p p p p i p u & + g                     ",
"      h j             e k l z x c l l l l l l l l v b # # ; n # # n ; # # b v l l l l l l l l l l l n 2 g             j h       ",
"      m m               e 2 % 6 x c l l l l l l l v b # M ; n # # n ; M # b v l l l l l l l l l N n 2 g O             m m       ",
"      X # m               e 2 l 6 x c l l l l l l v b # M ; n # # n ; M # b v l l l l l l l l N n 2 e O             m B V       ",
"      C Z b A               e 2 % 6 x c l l l l l v b # M ; n # # n ; M # b v l l l l l l l N n 2 e O             A b S g       ",
"      m ; D > A               e 2 l 6 x c l l l l v F G G ; - G G - ; G G F v l l l l l l N n 2 H O             A > t X g       ",
"      m J 7 l G m               e 2 % 6 x c l l l l K ; ; $ & ; ; & $ ; ; K l l l l l l N n 2 g               m > t 7 L g       ",
"      m J 7 t a G A               1 2 % 6 x c l l l l l l l l l l l l l l l l l l l l P n 2 g               A > t 7 u o g       ",
"      m J 7 t l ; G A               e 2 3 5 I U x x x x x x x x x x x x x x x x x x U ; 2 g O             A > t 7 u c Y g       ",
"      m J 7 t l l J G A               e + T R E W Q Q Q Q Q Q Q Q Q Q Q Q Q Q Q Q W 3 ! g O             A > t 7 u c l Y g       ",
"      m J 7 t l l l J G m               e ~ T R E Q I I I I I I I I I I I I I I Q ^ / g O             A > t 7 u c l l Y g       ",
"      m J 7 t l l l l a G m               e ~ ( ) _ ` ' ' ' ' ' ' ' ' ' ' ' ' ] I ! g O             m > t 7 u c l l l Y g       ",
"      m J 7 t l l l l l J G m               e [ { } } } } } } } } } } } } } } |  ...O             A > t 7 u c l l l l Y g       ",
"      m J 7 t l l l l l l J G A               g [ X.} } } } } } } } } } } } |  ...O             A > t 7 u c l l l l l Y g       ",
"      m J 7 t l l l l l l l l o.A               g [ O.} } } } } } } } } } | +...O             A F u 7 u c l l l l l l Y g       ",
"      m J 7 t l l l l l l l x u o.m               g [ O.} } } } } } } } | +...O             A F @.y p N l l l l l l l Y g       ",
"      m J 7 t l l l l l l f #.Q #.b A               g [ O.} } } } } } | +...O             A o.7 $.@.l l l l l l l l l Y g       ",
"      m J 7 t l l l %.W &.( *.=.=.E = -.              g [ O.} } } } | +...O             -.- 4 ] ;.*.( &.W %.l l l l l Y g       ",
"      m J 7 t l l l t :.>.u ,.<.( 1.2.3.-.              g [ O.} } | +...O             -.s O.) *.<.,.u 0 :.t l l l l l Y g       ",
"      m J 7 t l l l t 4.3 c #.Q 5.` } 2.3.-.              g [ O.| +...O             -.s O.} 6.Q Q #.c 3 4.t l l l l l Y g       ",
"      m J 7 t l l l t y l l 7.Q I 8.} } 2.3.A               g 9.0...O             A s O.} } ` I Q 7.l l y t l l l l l Y g       ",
"      m J 7 t l l l t y l l u Q I 8.} } } 2.3.A               1 ..O             A s O.} } } 8.I Q #.l l y t l l l l l Y g       ",
"      m J 7 t l l l t y l l #.Q I 8.} } } } 2.3.A                             A s O.} } } } 8.I Q #.l l y t l l l l l Y g       ",
"      m J 7 q.l l l t y l l #.Q I 8.} } } } } 2.3.-.                        -.s O.} } } } } 8.I Q #.l l y t l l l l l Y g       ",
"      m J 7 d f l f t y l l #.Q I 8.} } } } } } 2.= -.j                   -.s O.} } } } } } 8.I Q #.l l y t f l l l l Y g       ",
"      m l w.6 0 e.0 r.*.l l #.Q I 8.} } } } } } } t.y.u.                i.> O.} } } } } } } 8.I Q #.l l *.r.0 e.e.e.e.L g       ",
"      m p.:.&.6 6 6 a.:.l l #.Q I 8.} } } } } } } | [ g                 + s.O.} } } } } } } 8.I Q #.l l :.a.6 6 6 6 6 X g       ",
"      m J d.d v $ v t y l l #.Q I 8.} } } } } } )  ...O                   e s.O.} } } } } } 8.I Q #.l l y t v $ $ $ f f.g       ",
"      m J 7 q.l l l t y l l #.Q I 8.} } } } } )  ...O                       e [ O.} } } } } 8.I Q #.l l y t l l l l l Y g       ",
"      m J 7 t l l l t y l l #.Q I 8.} } } } )  ...O                           g s.O.} } } } 8.I Q #.l l y t l l l l l Y g       ",
"      m J 7 t l l l t y l l x Q I 8.} } } )  ...O           i.A A i.            g [ O.} } } 8.I Q x l l y t l l l l l Y g       ",
"      m J 7 t l l l t 5 c l #.Q I 8.} } )  ...O           i.A Z Z A i.            g s.O.} } ` I Q #.l c 5 t l l l l l Y g       ",
"      m J 7 t l l l t 4.t c #.Q 5.8.} )  ...O           i.A s g.2.= A i.            g s.O.} h.Q Q #.c t 4.t l l l l l Y g       ",
"      m J 7 t l l l t :.0 T Q E E j.) k...O           i.A s g.} } t.= -.i.            g s.O.l.R z.Q T 0 :.t l l l l l Y g       ",
"      m J 7 t l l l c x.6 6 y c.:.v.k...O           i.A s O.} } } } t.= -.i.            g [ 4.b.n.v.6 6 x.c l l l l l Y g       ",
"      m J 7 t l l l l $ $ v p Q ^ ! ..O           j -.s O.} } } } } } t.= -.j             e + m.$.5.l v $ l l l l l l Y g       ",
"      m J 7 t l l l l l l l M.t ! g O           j -.s O.} } } } } } } } t.= -.j             e + T 5 x c l l l l l l l Y g       ",
"      m J 7 t l l l l l l l K ! g O           j -.s O.} } } } } } } } } } t.= -.j             e + 8 6 x c l l l l l l Y g       ",
"      m J 7 t l l l l l N n 2 g O           N.-.s O.} } } } } } } } } } } } t.= -.N.            e < % 6 x c l l l l l Y g       ",
"      m J 7 t l l l l N n 2 g O             A s O.} } } } } } } } } } } } } } t.B.A               e 2 % 6 x c l l l l Y g       ",
"      m J 7 t l l l N s 2 g O             A F y V.6.` ' ' ' ' ' ' ' ' ' ' ' ' ] Q b A               g 2 % 6 x c l l l Y g       ",
"      m J 7 t l l N s 2 g O             A F 7 $.C.Q I I I I I I I I I I I I I I Q #.b A               g 2 % 6 x c l l Y g       ",
"      m J 7 t l N n 2 g O             A F @.$.E W Q Q Q Q Q Q Q Q Q Q Q Q Q Q Q Q Z.#.b A               H < % 6 x c l Y g       ",
"      m J 7 q.l s 2 g O             A > x y 6 M.x x x x x x x x x x x x x x x x x x M.l G A               e < % 5.x c Y g       ",
"      m J 7 t n 2 g O             A > t 7 u c l l l l l l l l l l l l l l l l l l l l l ; G A               H A.% 5.x o g       ",
"      m J 7 ; 2 g O             A > t 7 u c l l l l K ; ; $ & ; ; & $ ; ; K l l l l l l l ; G A               H < % 6 L g       ",
"      m * S.~ g O             A > t 7 u c l l l l v F G G ; - G G - ; G G F v l l l l l l l ; G A               H 2 % X g       ",
"      X > ! g O             A > t 7 u c l l l l l v b # M ; n # # n ; M # b v l l l l l l l l ; G A             O g <   g       ",
"      . D.g O             A > t 7 u c l l l l l l v b # M ; n # # n ; M # b v l l l l l l l l l ; G A               1 F.1       ",
"    + G.g O             -.> t 7 u c l l l l l l l v b # M ; n # # n ; M # b v l l l l l l l l l l ; G A               1 D.      ",
"    A.D.H.            J.> t 7 u c l l l l l l l l v b # M ; n # # n ; M # b v l l l l l l l l l l l ; G -.            O +       ",
"                    J.> t 7 u c l l l l l l l l l v b # M ; n # # n ; M # b v l l l l l l l l l l l l J G -.                    ",
"                  A b K.7 x c N N N N N N N N N c l b # G * - # # - * G # b l c N N N N N N N N N N N c ; L.A                   ",
"                m P. .I.X  .S +.+.+.+.+.+.+.+.+.+.o i.  V U.Y.    Y.U.V   i.o +.+.+.+.+.+.+.+.+.+.+.+.+.+.U.P.m                 ",
"              h m j e g H e e e e e e e e e e e e e e e e e e e e e e e e e e e e e e e e e e e e e e e e e V m h               ",
"                                                                                                                                ",
"                                                                                                                                ",
"                                                                                                                                "
};
